<svg id="svgcontent" xmlns:xlink="http://www.w3.org/1999/xlink" x="0px" y="0px" width="500" height="500" viewBox="0 0 500 500" overflow="visible">
    <g style="pointer-events:all">
        <title style="pointer-events: inherit">Layer 1</title>
        <g id="svg_1" style="pointer-events: inherit">
            <path fill="none" stroke="#A7C8EB" stroke-width="2" stroke-miterlimit="10" stroke-dasharray="3.0186,3.0186" d="M359.49701,273.18799C359.49701,315.10999 325.51102,349.09698 283.59702,349.09698C241.66402,349.09698 207.687,315.10999 207.687,273.18799C207.687,231.28099 241.66499,197.29298 283.59702,197.29298C325.51099,197.29401 359.49701,231.28101 359.49701,273.18799z" id="svg_2" style="pointer-events:inherit"></path>
        </g>
        <g id="svg_3" style="pointer-events: inherit">
            <line fill="none" stroke="#153247" stroke-width="7" stroke-miterlimit="10" x1="282.347" y1="268.654" x2="256.094" y2="101.02" id="svg_4" style="pointer-events:inherit"></line>
            <path fill="#9FE0CC" d="M286.43086248203326,95.3420267567626 C286.28971843659747,111.00649723176411 273.28549883125015,123.57927739032584 257.37174219576445,123.4358492639185 C241.4682335281359,123.29128343938464 228.68484894539142,110.48628259223642 228.82713937367225,94.81953672098189 C228.9683007885451,79.15848802507844 241.98160460946747,66.56977140802701 257.88513064653307,66.71319953443435 C273.7989046514558,66.85548996271518 286.57200652746906,79.67756496647962 286.43086248203326,95.3420267567626 z" id="svg_5" stroke="null" style="pointer-events:inherit"></path>
        </g>
        <g id="svg_6" opacity="undefined" style="pointer-events: inherit">
            <line fill="none" stroke="#153247" stroke-width="7.980769230769231" stroke-miterlimit="10" x1="285.071" y1="275.162" x2="426.84" y2="397.541" id="svg_7" style="pointer-events:inherit"></line>
            <path fill="#91d1c6" d="M407.55621337890625,417.0981750488281 C397.0113220214844,404.4963684082031 398.67669677734375,385.74566650390625 411.27520751953125,375.2007751464844 C423.8943176269531,364.6385498046875 442.6482849121094,366.32122802734375 453.17266845703125,378.91973876953125 C463.73486328125,391.52154541015625 462.070556640625,410.29278564453125 449.4698486328125,420.8182678222656 C436.85186767578125,431.37939453125 418.1206359863281,429.6977844238281 407.55621337890625,417.0981750488281 z" id="svg_8" stroke="null" style="pointer-events:inherit"></path>
        </g>
        <g id="svg_9" style="pointer-events: inherit">
            <line fill="none" stroke="#153247" stroke-width="7" stroke-miterlimit="10" x1="285.477" y1="279.312" x2="188.485" y2="356.966" id="svg_10" style="pointer-events:inherit"></line>
            <path fill="#9FE0CC" d="M175.7038720419514,337.97946584317833 C187.37336773017887,331.4092834790936 202.1519336810452,335.5426844022004 208.73272013454698,347.1909544992959 C215.31350658804877,358.8817454278469 211.17876491800416,373.6509609747445 199.5105751521187,380.2184618449537 C187.85434763488593,386.811245371704 173.0492279297323,382.7004107866669 166.49367189587792,371.03089768614154 C159.88897835736861,359.33881824754644 164.03437635372393,344.57089121069293 175.7038720419514,337.97946584317833 z" id="svg_11" stroke="null" style="pointer-events:inherit"></path>
        </g>
        <g id="svg_12" style="pointer-events: inherit">
            <line fill="none" stroke="#153247" stroke-width="9" stroke-miterlimit="10" x1="267.048" y1="270.389" x2="58.559" y2="150.983" id="svg_13" style="pointer-events:inherit"></line>
            <path fill="#9FE0CC" d="M102.764,153.87C101.475,173.54498 84.482,188.44501 64.808,187.14999C45.153,185.85199 30.259,168.87498 31.537,149.203C32.835,129.52901 49.836,114.644 69.484,115.924C89.149,117.221 104.06,134.19501 102.764,153.87z" id="svg_14" style="pointer-events:inherit"></path>
        </g>
        <g id="svg_15" style="pointer-events: inherit">
            <line fill="none" stroke="#59570E" stroke-width="4" stroke-miterlimit="10" x1="289.014" y1="301.335" x2="293.436" y2="361.801" id="svg_16" style="pointer-events:inherit"></line>
            <path fill="#9edfcc" d="M282.20358977183787,368.4839638110643 C282.88594471240503,360.85264964427915 289.6276942521872,355.2202974138054 297.252732579218,355.89338122746267 C304.89809606908966,356.57890974608745 310.5242081179895,363.3159167478734 309.8386795993647,370.94566195472 C309.1687337055846,378.57854508144374 302.4332956637372,384.22958219845896 294.80508375864883,383.5393468000184 C287.15041348368686,382.86472968460293 281.530541616361,376.1230514611816 282.20358977183787,368.4839638110643 z" id="svg_17" stroke="null" style="pointer-events:inherit"></path>
        </g>
        <g id="svg_18" style="pointer-events:inherit" opacity="undefined">
            <line fill="none" stroke="#153247" stroke-width="4" stroke-miterlimit="10" x1="303.343" y1="271.327" x2="419.887" y2="190.812" id="svg_19" style="pointer-events:inherit"></line>
            <path fill="#9FE0CC" d="M429.97,207.25C419.58401,212.16701 407.181,207.733 402.254,197.366C397.328,186.961 401.76199,174.56799 412.146,169.653C422.52301,164.717 434.948,169.129 439.854,179.51401C444.797,189.92101 440.35501,202.312 429.97,207.25z" id="svg_20" style="pointer-events:inherit"></path>
        </g>
        <path fill="#2D619B" d="M330.11301,275.00601C330.11301,299.67599 310.13,319.66 285.46002,319.66C260.79901,319.66 240.79601,299.67599 240.79601,275.00601S260.798,230.31702 285.46002,230.31702C310.13,230.31599 330.11301,250.336 330.11301,275.00601z" id="svg_21" style="pointer-events: inherit"></path>
        <path fill="#f8db7d" d="M327.85519337239583,161.30076039023044 C328.7021785988794,159.2067509483507 331.0852042889836,158.1967567601799 333.1781915573706,159.04075060803345 C335.27520655776516,159.88976529454703 336.28320247395834,162.2707615246212 335.4361874735638,164.3637643870344 C334.5921929186395,166.45975721393623 332.20919770951707,167.47475664674084 330.1171865396149,166.62575755425348 C328.01721134864266,165.77976472735165 327.01019223800506,163.3977605036695 327.85519337239583,161.30076039023044 z" id="svg_22" style="pointer-events: inherit"></path>
        <path fill="#f8db7d" d="M367.17646636955493,139.05151656950363 C369.4154500078914,133.5185121453796 375.71345386482005,130.85051282601404 381.24546659643306,133.07951645606454 C386.7884659157986,135.32151344992897 389.4534745636048,141.6205089993687 387.21345386482005,147.1485088859296 C384.98347342921403,152.6905165127841 378.68546886521466,155.37151628590593 373.1544634201389,153.12652153053978 C367.6034681845802,150.8915209633444 364.94346478140784,144.59450809185606 367.17646636955493,139.05151656950363 z" id="svg_23" style="pointer-events: inherit"></path>
        <path fill="#f8db7d" d="M210.20596933514835,194.77659720742582 C210.9969852694918,192.8205882193024 213.22498161300504,191.87559629991318 215.18097571417297,192.66659664023044 C217.14197364583333,193.45858867305873 218.0819766216856,195.68559403113164 217.29096068734216,197.64160301925506 C216.49997594105113,199.59959539240057 214.27396227548925,200.54559459832703 212.31998274739584,199.75360256549874 C210.35797752919822,198.96359391769255 209.41696797387942,196.7355968671086 210.20596933514835,194.77659720742582 z" id="svg_24" style="pointer-events: inherit"></path>
        <path fill="#f8db7d" d="M115.27381375769413,253.98360706005366 C115.59281398457227,250.42260274936868 118.73581897589173,247.79760274936868 122.29181874901357,248.11062163312815 C125.85781271030618,248.43059795849115 128.48182101779514,251.57259637034406 128.16282079091698,255.1306100094697 C127.84981750118371,258.69161502722534 124.70981806837909,261.32561752288507 121.15181931620896,261.0056100094697 C117.5808201102825,260.68862435566604 114.95981806837909,257.5466259438131 115.27381375769413,253.98360706005366 z" id="svg_25" style="pointer-events: inherit"></path>
        <path fill="#f8db7d" d="M194.37491794408933,154.91555612275096 C194.61092579782198,152.26955975280146 196.9459171500158,150.31855600931186 199.58892214133522,150.55254928997002 C202.23792477687027,150.7895488362137 204.1879212338226,153.12354849589647 203.94991510811238,155.76756148082387 C203.7179200994318,158.41355714370266 201.3849121322601,160.3705578243371 198.74192202789615,160.13155929904514 C196.08892214133522,159.8975511314315 194.14191635594224,157.56255907216698 194.37491794408933,154.91555612275096 z" id="svg_26" style="pointer-events: inherit"></path>
        <path fill="#f8db7d" d="M442.663438292298,277.4199650674716 C446.9584217037563,276.1579711931818 451.4604355697601,278.6169559659091 452.72642669507576,282.90595732717804 C453.9904344353693,287.2089664287405 451.5324264681976,291.70997300820704 447.2394271488321,292.966961637863 C442.94444444444446,294.2379580078125 438.4334273757102,291.78495528527463 437.17744603259155,287.4899718738163 C435.9054430831755,283.1859561927872 438.36644172190654,278.6899534438131 442.663438292298,277.4199650674716 z" id="svg_27" style="pointer-events: inherit"></path>
        <path fill="#f8db7d" d="M293.2998755196496,396.8996894562816 C296.1448766540404,396.0616769515467 299.1328827797506,397.69369606218436 299.9688814184817,400.5356760440341 C300.80887801530935,403.3896796740846 299.17588209911617,406.36969059067235 296.32987438525885,407.2046826499369 C293.4838659643308,408.0426951546717 290.4958896125316,406.4196785396938 289.66486573745266,403.574677405303 C288.82087118252844,400.7236949277936 290.4538670987216,397.74069333964644 293.2998755196496,396.8996894562816 z" id="svg_28" style="pointer-events: inherit"></path>
        <path fill="#f8db7d" d="M180.8116798090278,299.2820919300426 C181.65867992246686,297.18709079565184 184.0426831251973,296.1780882999921 186.13467799400252,297.02209774187185 C188.2316781074416,297.8710968343592 189.24068060310134,300.2520930644334 188.3926739101957,302.3450952197759 C187.54867935527147,304.4400970612374 185.16568414614898,305.455096494042 183.07367368331757,304.60708909406566 C180.97468947778566,303.76109626716385 179.96768596117425,301.3790920434817 180.8116798090278,299.2820919300426 z" id="svg_29" style="pointer-events: inherit"></path>
    </g>
</svg>
