<svg xmlns:xlink="http://www.w3.org/1999/xlink" x="0px" y="0px" width="244" height="282" viewBox="0 0 244 282" id="svgcontent" overflow="visible"><g style="pointer-events:all"><title style="pointer-events: inherit" opacity="undefined">Layer 1</title><g id="Decor" style="pointer-events: inherit" opacity="undefined"><circle id="focus" opacity="1" fill="#FFE9D2" cx="112.099" cy="152.099" r="69.099" style="pointer-events:inherit"></circle><ellipse id="shadow_2_" opacity="1" fill="#E4D7AB" cx="111.988" cy="231.045" rx="39.312" ry="6.045" style="pointer-events:inherit"></ellipse></g><g id="Layer_2"><g id="character_2_"><g id="Legs2_2_" display="" opacity="undefined" style="pointer-events: inherit"><g display="inline" id="svg_1"><rect x="97" y="182" width="9" height="44" id="svg_2"></rect><polygon points="92.53099822998047,231 96.8499984741211,225 106.3239974975586,225 108,231 " id="svg_3"></polygon></g><g display="inline" id="svg_4"><rect x="125" y="182" width="9" height="44" id="svg_5"></rect><polygon points="123.53099822998047,231 124.8499984741211,225 134.32400512695312,225 138,231 " id="svg_6"></polygon></g></g><g id="Legs1_2_" display="none" opacity="undefined" style="pointer-events: inherit"><g display="inline" id="svg_7"><rect x="94.31428628571038" y="179.08693146669543" transform="matrix(0.9638,0.2667,-0.2667,0.9638,57.321,-18.2708) " width="9" height="44" id="svg_8"></rect><polygon points="75.04000091552734,217.0659942626953 88.83899688720703,220.88600158691406 97.97000122070312,223.41299438476562 97.02100372314453,229.37600708007812 " id="svg_9"></polygon></g><g display="inline" id="svg_10"><rect x="122.34414309754372" y="180.29927942096407" transform="matrix(0.9404,-0.3401,0.3401,0.9404,-61.0544,54.1693) " width="9" height="44.001" id="svg_11"></rect><polygon points="131.531005859375,228.36000061035156 129.79100036621094,222.60899353027344 138.7010040283203,219.38800048828125 151.30099487304688,216.95899963378906 " id="svg_12"></polygon></g></g><g id="Body3_2_" display="" opacity="undefined" style="pointer-events: inherit"><g display="inline" id="svg_13"><path fill="#F14263" d="M76.04399871826172,201.92999267578125 C71.61900329589844,199.27499389648438 60.46900177001953,104.58399200439453 117.11299896240234,104.58399200439453 C121.68299865722656,104.58399200439453 142.79800415039062,100.18798828125 146.4969940185547,101.30098724365234 C148.77000427246094,101.98499298095703 133.88600158691406,107.85999298095703 135.85499572753906,108.90499114990234 C170.76499938964844,127.44898986816406 159.42799377441406,199.51199340820312 154.8040008544922,203.10899353027344 C149.49600219726562,207.23899841308594 80.46900177001953,204.5850067138672 76.04399871826172,201.92999267578125 z" id="svg_14"></path><g display="none" id="svg_15"><defs transform="translate(1,23) translate(2,-23) "><path id="SVGID_1_" d="M73.044,201.92999C68.619,199.27499 57.469,104.58399 114.113,104.58399C118.683,104.58399 139.798,100.18799 143.49699,101.30099C145.77,101.98499 130.886,107.85999 132.855,108.90499C167.765,127.44899 156.42799,199.51199 151.804,203.10899C146.496,207.239 77.469,204.58501 73.044,201.92999z"></path></defs><clipPath id="SVGID_2_" transform="translate(1,23) translate(2,-23) "><use xlink:href="#SVGID_1_" id="svg_16" y="0" x="3"></use></clipPath><linearGradient id="ColorMask_3_" x1="0.82188517637275" y1="0.11618057580798198" x2="0.17822807713180225" y2="0.8840099018339933" transform="translate(1,23) translate(2,-23) "><stop offset="0" stop-color="#FFFFFF"></stop><stop offset="1" stop-opacity="0" stop-color="#FFFFFF"></stop></linearGradient><path id="ColorMask_2_" clip-path="url(#SVGID_2_)" fill="url(#ColorMask_3_)" d="M206.24099731445312,121.85600280761719 C218.63600158691406,170.97900390625 188.5050048828125,220.93899536132812 138.9429931640625,233.44400024414062 C89.37999725341797,245.9499969482422 39.15399932861328,216.26600646972656 26.759000778198242,167.14300537109375 C14.36400032043457,118.02100372314453 44.49399948120117,68.06099700927734 94.05599975585938,55.55500030517578 C143.6199951171875,43.04899978637695 193.8470001220703,72.73300170898438 206.24099731445312,121.85600280761719 z"></path></g></g><path opacity="0.07" d="M76.04399871826172,201.92999267578125 C71.61900329589844,199.27499389648438 60.46900177001953,104.58399200439453 117.11299896240234,104.58399200439453 C121.68299865722656,104.58399200439453 142.79800415039062,100.18798828125 146.4969940185547,101.30098724365234 C148.77000427246094,101.98499298095703 126.79499816894531,106.91499328613281 124.56500244140625,106.91899108886719 C92.52300262451172,106.97599029541016 82.6240005493164,161.12399291992188 95.52999877929688,201.98399353027344 C95.53099822998047,201.98399353027344 77.83699798583984,203.00599670410156 76.04399871826172,201.92999267578125 z" id="svg_17"></path></g><g id="Body2_2_" display="none" opacity="undefined" style="pointer-events: inherit"><g display="inline" id="svg_18"><path fill="#FCA40F" d="M71.24099731445312,142.56100463867188 C71.24099731445312,114.1510009765625 95.62200164794922,91.12100982666016 114.68099975585938,91.12100982666016 C129.5,91.12100982666016 155.12098693847656,114.15100860595703 155.12098693847656,142.56100463867188 C155.12098693847656,170.9700164794922 142.08999633789062,192 113.68099975585938,192 C85.27100372314453,192 71.24099731445312,170.97000122070312 71.24099731445312,142.56100463867188 z" id="svg_19"></path><g display="none" id="svg_20"><defs transform="translate(1,23) translate(2,-23) "><path id="SVGID_3_" d="M68.241,142.561C68.241,114.151 92.622,91.12101 111.681,91.12101C126.5,91.12101 152.12099,114.15101 152.12099,142.561C152.12099,170.97002 139.09,192 110.681,192C82.271,192 68.241,170.97 68.241,142.561z"></path></defs><clipPath id="SVGID_4_" transform="translate(1,23) translate(2,-23) "><use xlink:href="#SVGID_3_" id="svg_21" y="0" x="3"></use></clipPath><linearGradient id="ColorMask_4_" x1="0.8218817547352912" y1="0.11617579610973618" x2="0.1782254775273928" y2="0.8840044139941975" transform="translate(1,23) translate(2,-23) "><stop offset="0" stop-color="#FFFFFF"></stop><stop offset="1" stop-opacity="0" stop-color="#FFFFFF"></stop></linearGradient><path id="ColorMask_1_" clip-path="url(#SVGID_4_)" fill="url(#ColorMask_4_)" d="M204.24099731445312,118.85600280761719 C216.63600158691406,167.97900390625 186.5050048828125,217.93899536132812 136.9429931640625,230.44400024414062 C87.37999725341797,242.9499969482422 37.15399932861328,213.26600646972656 24.759000778198242,164.14300537109375 C12.36400032043457,115.02100372314453 42.49399948120117,65.06099700927734 92.05599975585938,52.55500030517578 C141.6199951171875,40.04899978637695 191.8470001220703,69.73300170898438 204.24099731445312,118.85600280761719 z"></path></g></g><path opacity="0.07" d="M71.24099731445312,142.56100463867188 C71.24099731445312,114.1510009765625 95.62200164794922,91.12100982666016 114.68099975585938,91.12100982666016 C113.78800201416016,91.12100982666016 111.74800109863281,93.10001373291016 111.0999984741211,93.57901000976562 C107.90699768066406,95.93901062011719 105.00499725341797,98.6610107421875 102.39600372314453,101.65200805664062 C88.18399810791016,117.94400787353516 77.17498779296875,144.58700561523438 85.83499145507812,166.04901123046875 C91.12499237060547,179.15701293945312 101.19599151611328,186.0850067138672 113.54399108886719,192.00001525878906 C111.28999328613281,190.92001342773438 107.26998901367188,191.25601196289062 104.75898742675781,190.83401489257812 C102.12198638916016,190.3920135498047 99.489990234375,189.84800720214844 96.94599151611328,189.01600646972656 C92.68598937988281,187.62301635742188 88.85598754882812,185.416015625 85.64998626708984,182.27301025390625 C79.53298950195312,176.27500915527344 75.0889892578125,167.9180145263672 73.0669937133789,159.6370086669922 C71.72100067138672,154.12399291992188 71.24099731445312,148.22900390625 71.24099731445312,142.56100463867188 z" id="svg_22"></path><g display="inline" id="svg_23"><g id="svg_24"><path fill="none" stroke="#000000" stroke-width="2" stroke-miterlimit="10" d="M97,101.63800048828125 C97,101.63800048828125 82.82599639892578,72.93900299072266 78.89900207519531,79.58499908447266 C74.97100067138672,86.23100280761719 78.89900207519531,87.60399627685547 78.89900207519531,87.60399627685547 " id="svg_25"></path><circle cx="77.563" cy="86.225" r="2.88700008392334" id="svg_26"></circle><ellipse transform="matrix(0.8368,-0.5475,0.5475,0.8368,-40.1282,68.0832) " opacity="0.15" cx="96.64742387413101" cy="102.99451562032351" rx="2.6359999999999992" ry="1.3849999999999996" id="svg_27"></ellipse></g><g id="svg_28"><path fill="none" stroke="#000000" stroke-width="2" stroke-miterlimit="10" d="M130.14599609375,101.63800048828125 C130.14599609375,101.63800048828125 144.32000732421875,72.93900299072266 148.2469940185547,79.58499908447266 C152.1750030517578,86.23100280761719 148.2469940185547,87.60399627685547 148.2469940185547,87.60399627685547 " id="svg_29"></path><circle cx="149.584" cy="86.225" r="2.88700008392334" id="svg_30"></circle><ellipse transform="matrix(-0.8368,-0.5475,0.5475,-0.8368,177.7978,255.7023) " opacity="0.15" cx="124.49857612586871" cy="102.99451562032347" rx="2.6359999999999992" ry="1.3849999999999996" id="svg_31"></ellipse></g></g></g><g id="Body1_2_" display="none" opacity="undefined" style="pointer-events: inherit"><g display="inline" id="svg_32"><path fill="#CE4A0C" d="M72.24099731445312,160.56100463867188 C77.36599731445312,132.61700439453125 95.62200164794922,109.12100982666016 114.68099975585938,109.12100982666016 C116.51899719238281,109.12100982666016 131.8990020751953,106.54100799560547 134,107.21601104736328 C135.65499877929688,107.74800872802734 123.99500274658203,111.41300964355469 125.73600006103516,112.32601165771484 C139.60400390625,119.60001373291016 155.12100219726562,138.45201110839844 155.12100219726562,160.56100463867188 C155.12100219726562,174.3710174560547 152.04200744628906,188.43600463867188 145.61500549316406,197.19000244140625 C144.97799682617188,198.05801391601562 145.30799865722656,194.89300537109375 144.60499572753906,195.6940155029297 C144.0330047607422,196.34600830078125 142.43899536132812,198.97500610351562 141.822998046875,199.5810089111328 C135.11900329589844,206.17401123046875 125.80000305175781,210.00100708007812 113.68199920654297,210.00100708007812 C94.59600067138672,210.00100708007812 82,200.50900268554688 75.78700256347656,185.66500854492188 C75.43299865722656,184.81800842285156 75.0989990234375,179.95401000976562 74.78700256347656,179.07301330566406 C74.3280029296875,177.781005859375 71.91400146484375,182.4530029296875 71.54399871826172,181.09201049804688 C71.54299926757812,181.09100341796875 71.00399780273438,167.30799865722656 72.24099731445312,160.56100463867188 z" id="svg_33"></path><g display="none" id="svg_34"><defs transform="translate(1,23) translate(2,-23) "><path id="SVGID_5_" d="M69.241,160.561C74.366,132.617 92.622,109.12101 111.681,109.12101C113.519,109.12101 128.899,106.54101 131,107.21601C132.655,107.74801 120.995,111.41301 122.736,112.32601C136.604,119.60001 152.121,138.45201 152.121,160.561C152.121,174.37102 149.04201,188.436 142.61501,197.19C141.978,198.05801 142.308,194.89301 141.605,195.69402C141.033,196.34601 139.439,198.97501 138.823,199.58101C132.119,206.17401 122.8,210.00101 110.682,210.00101C91.596,210.00101 79,200.509 72.787,185.66501C72.433,184.81801 72.099,179.95401 71.787,179.07301C71.328,177.78101 68.914,182.453 68.544,181.09201C68.543,181.091 68.004,167.308 69.241,160.561z"></path></defs><clipPath id="SVGID_6_" transform="translate(1,23) translate(2,-23) "><use xlink:href="#SVGID_5_" id="svg_35" y="0" x="3"></use></clipPath><linearGradient id="ColorMask_5_" x1="0.821887855840865" y1="0.11618368314047249" x2="0.17823052180282092" y2="0.88401406713059" transform="translate(1,23) translate(2,-23) "><stop offset="0" stop-color="#FFFFFF"></stop><stop offset="1" stop-opacity="0" stop-color="#FFFFFF"></stop></linearGradient><path id="ColorMask" clip-path="url(#SVGID_6_)" fill="url(#ColorMask_5_)" d="M207.24099731445312,130.8560028076172 C219.63600158691406,179.97900390625 189.5050048828125,229.93899536132812 139.9429931640625,242.44400024414062 C90.37999725341797,254.9499969482422 40.15399932861328,225.26600646972656 27.759000778198242,176.14300537109375 C15.36400032043457,127.02100372314453 45.49399948120117,77.06099700927734 95.05599975585938,64.55500030517578 C144.6199951171875,52.04899978637695 194.8470001220703,81.73300170898438 207.24099731445312,130.8560028076172 z"></path></g></g><path opacity="0.15" fill="#FFFFFF" d="M130.7659912109375,191.69200134277344 C130.7659912109375,194.3820037841797 130.24000549316406,196.93800354003906 129.2939910888672,199.24000549316406 C129.09100341796875,199.73300170898438 128.86900329589844,197.21499633789062 128.62899780273438,197.68299865722656 C128.43599700927734,198.0590057373047 128.125,201.38099670410156 128.01599884033203,201.78700256347656 C126.09500122070312,208.93800354003906 119.95099639892578,210 114.16600036621094,210 C104.99800109863281,210 97.56600189208984,201.80299377441406 97.56600189208984,191.69200134277344 C97.56600189208984,190.26499938964844 97.71299743652344,188.8769989013672 97.99299621582031,187.54400634765625 C98.27899932861328,186.1840057373047 96.7020034790039,187.88099670410156 97.24500274658203,186.65499877929688 C99.94400024414062,180.572998046875 107.61100006103516,173.38400268554688 114.16500091552734,173.38400268554688 C123.33399963378906,173.38400268554688 130.7659912109375,181.5800018310547 130.7659912109375,191.69200134277344 z" id="svg_36"></path><path opacity="0.07" d="M72.24099731445312,160.56100463867188 C77.36599731445312,132.61700439453125 95.62200164794922,109.12100982666016 114.68099975585938,109.12100982666016 C116.51899719238281,109.12100982666016 131.8990020751953,106.54100799560547 134,107.21601104736328 C135.65499877929688,107.74800872802734 120.59200286865234,111.67601013183594 118.73600006103516,112.32601165771484 C83.23799896240234,124.75801086425781 58.57600021362305,194.31500244140625 113.68099975585938,210.00100708007812 C113.68099975585938,210.00100708007812 86.23899841308594,210.00100708007812 75.78600311279297,185.66500854492188 C75.42400360107422,184.82200622558594 75.0979995727539,179.95401000976562 74.78600311279297,179.07301330566406 C74.3270034790039,177.781005859375 71.91300201416016,182.4530029296875 71.54299926757812,181.09201049804688 C71.54299926757812,181.09100341796875 71.00399780273438,167.30799865722656 72.24099731445312,160.56100463867188 z" id="svg_37"></path><g display="inline" id="svg_38"><path d="M91.8280029296875,126.68900299072266 C91.8280029296875,126.68900299072266 78.88700103759766,121.302001953125 85.68199920654297,104.26599884033203 C91.26699829101562,119.52999877929688 96.95999908447266,119.56500244140625 96.95999908447266,119.56500244140625 " id="svg_39"></path><path d="M139.84100341796875,128.68899536132812 C139.84100341796875,128.68899536132812 152.78199768066406,123.302001953125 145.98699951171875,106.26599884033203 C140.40199279785156,121.52999114990234 134.70899963378906,121.56498718261719 134.70899963378906,121.56498718261719 " id="svg_40"></path></g></g><g id="Face5_2_" display="none" opacity="undefined" style="pointer-events: inherit"><g display="inline" id="svg_41"><circle cx="101.991" cy="149.257" r="4.425000190734863" id="svg_42"></circle><circle cx="123.991" cy="149.257" r="4.425000190734863" id="svg_43"></circle></g><path fill="none" stroke="#000000" stroke-width="2" stroke-linecap="round" stroke-miterlimit="10" d="M102.5,161.12399291992188 C102.5,161.12399291992188 105.1500015258789,165.31698608398438 112.0530014038086,165.37098693847656 S121.74199676513672,161.30899047851562 121.74199676513672,161.30899047851562 " id="svg_44"></path></g><g id="Face4_2_" display="" opacity="undefined" style="pointer-events: inherit"><g display="inline" id="svg_45"><ellipse cx="100.687" cy="149.257" rx="3.121" ry="4.425" id="svg_46"></ellipse><ellipse cx="125.538" cy="149.257" rx="2.878" ry="4.425" id="svg_47"></ellipse></g><g display="inline" id="svg_48"><path d="M122.74199676513672,158.30999755859375 C122.74199676513672,158.30999755859375 120.02400207519531,158.17799377441406 113.12100219726562,158.12399291992188 S103.5,158.12399291992188 103.5,158.12399291992188 S105.87100219726562,167.85299682617188 113.12100219726562,167.63400268554688 S122.74199676513672,158.30999755859375 122.74199676513672,158.30999755859375 z" id="svg_49"></path><path fill="#FFFFFF" d="M122.74199676513672,158.30999755859375 C122.74199676513672,158.30999755859375 120.02400207519531,158.17799377441406 113.12100219726562,158.12399291992188 S103.5,158.12399291992188 103.5,158.12399291992188 S103.77999877929688,158.2740020751953 104.44200134277344,159.7729949951172 L121.76599884033203,159.8769989013672 C122.4520034790039,158.42100524902344 122.74199676513672,158.30999755859375 122.74199676513672,158.30999755859375 z" id="svg_50"></path></g></g><g id="Face3_2_" display="none" opacity="undefined" style="pointer-events: inherit"><g display="inline" id="svg_51"><ellipse cx="100.687" cy="149.257" rx="3.121" ry="4.425" id="svg_52"></ellipse><ellipse cx="125.538" cy="149.257" rx="2.878" ry="4.425" id="svg_53"></ellipse></g><g display="inline" id="svg_54"><path d="M122.74199676513672,158.30999755859375 C122.74199676513672,158.30999755859375 120.02400207519531,158.17799377441406 113.12100219726562,158.12399291992188 S103.5,158.12399291992188 103.5,158.12399291992188 S105.87100219726562,167.85299682617188 113.12100219726562,167.63400268554688 S122.74199676513672,158.30999755859375 122.74199676513672,158.30999755859375 z" id="svg_55"></path><path fill="#FFFFFF" d="M112.11900329589844,158.13499450683594 L108.0510025024414,158.09999084472656 L108.44200134277344,160.72299194335938 L112.052001953125,160.80099487304688 C112.0999984741211,160.6999969482422 112.11900329589844,158.13499450683594 112.11900329589844,158.13499450683594 z" id="svg_56"></path><path fill="#FFFFFF" d="M115.0510025024414,158.13499450683594 L119.11900329589844,158.09999084472656 L118.72799682617188,160.72299194335938 L115.11799621582031,160.80099487304688 C115.06999969482422,160.6999969482422 115.0510025024414,158.13600158691406 115.0510025024414,158.13499450683594 z" id="svg_57"></path></g></g><g id="Face2_2_" display="none" opacity="undefined" style="pointer-events: inherit"><g display="inline" id="svg_58"><ellipse cx="100.687" cy="149.257" rx="3.121" ry="4.425" id="svg_59"></ellipse><ellipse cx="125.538" cy="149.257" rx="2.878" ry="4.425" id="svg_60"></ellipse></g><g display="inline" id="svg_61"><path d="M119.91799926757812,162.11000061035156 C119.91799926757812,162.11000061035156 118.02200317382812,162.01800537109375 113.20899963378906,161.9810028076172 C108.39600372314453,161.94400024414062 106.5,161.9810028076172 106.5,161.9810028076172 S108.15299987792969,168.76600646972656 113.20899963378906,168.61300659179688 C118.26499938964844,168.4600067138672 119.91799926757812,162.11000061035156 119.91799926757812,162.11000061035156 z" id="svg_62"></path></g></g><g id="Face1_2_" display="none" opacity="undefined" style="pointer-events: inherit"><g display="inline" id="svg_63"><ellipse cx="100.687" cy="149.257" rx="3.121" ry="4.425" id="svg_64"></ellipse><ellipse cx="125.538" cy="149.257" rx="2.878" ry="4.425" id="svg_65"></ellipse></g><g display="inline" id="svg_66"><path fill="#FFFFFF" d="M121.60700225830078,162.11000061035156 C121.60700225830078,162.11000061035156 119.35800170898438,162.01800537109375 113.64700317382812,161.9810028076172 C107.93599700927734,161.94400024414062 105.68599700927734,161.9810028076172 105.68599700927734,161.9810028076172 S107.64800262451172,168.76600646972656 113.64700317382812,168.61300659179688 C119.64600372314453,168.4600067138672 121.60700225830078,162.11000061035156 121.60700225830078,162.11000061035156 z" id="svg_67"></path></g></g><g id="Arms1_2_" display=""><path id="leftArm_2_" fill="none" stroke-width="7" stroke-miterlimit="10" d="M 73.239 152.026 C 57.384 154.73 71.885 175.257 75.682 185.119" style="vector-effect: non-scaling-stroke;" stroke="#000000"></path><path id="rightArm_2_" fill="none" stroke="#000000" stroke-width="7" stroke-miterlimit="10" d="M 159.682 154.026 C 182.905 156.73 160.385 180.285 152.239 180.119"></path></g></g></g><g id="specialEffects" style="pointer-events: inherit" opacity="undefined"><g id="surpriseLines" display="none" style="pointer-events:inherit"><line fill="none" stroke="#000000" stroke-width="6" stroke-miterlimit="10" stroke-dasharray="52,39,35" x1="51" y1="59" x2="69.54" y2="77.54" style="pointer-events:inherit" id="svg_68"></line><line fill="none" stroke="#000000" stroke-width="6" stroke-miterlimit="10" stroke-dasharray="52,39,35" x1="76.777" y1="33.61" x2="90.728" y2="64.606" style="pointer-events:inherit" id="svg_69"></line><line fill="none" stroke="#000000" stroke-width="6" stroke-miterlimit="10" stroke-dasharray="52,39,35" x1="114" y1="28" x2="114" y2="60" style="pointer-events:inherit" id="svg_70"></line><line fill="none" stroke="#000000" stroke-width="6" stroke-miterlimit="10" stroke-dasharray="52,39,35" x1="175.729" y1="59" x2="157.188" y2="77.54" style="pointer-events:inherit" id="svg_71"></line><line fill="none" stroke="#000000" stroke-width="6" stroke-miterlimit="10" stroke-dasharray="52,39,35" x1="149.952" y1="33.61" x2="136" y2="64.606" style="pointer-events:inherit" id="svg_72"></line></g><g display="none" style="pointer-events:inherit" id="svg_73"><g display="inline" style="pointer-events:inherit" id="svg_74"><g style="pointer-events:inherit" id="svg_75"><rect x="174" y="92" transform="matrix(-0.8919,0.4523,-0.4523,-0.8919,424.175,112.5855) " fill="#EDC49F" width="49.257" height="30" style="pointer-events:inherit" id="svg_76"></rect><path d="M213.37,83.827L226.035,108.799L183.88901,130.174L171.224,105.202L213.37,83.827M214.24899,81.138L168.53499,104.323L183.00899,132.862L228.72299,109.677L214.24899,81.138L214.24899,81.138z" style="pointer-events:inherit" id="svg_77"></path></g><g style="pointer-events:inherit" id="svg_78"><polygon fill="#EDC49F" points="171.667,103.855 212.186,83.306 206.638,95.732 200.417,110.292 				" style="pointer-events:inherit" id="svg_79"></polygon><path d="M210.123,85.473L205.71201,95.354L199.82401,109.134L185.30701,105.884L174.60201,103.487L192.394,94.464L210.123,85.473M214.24899,81.138L191.491,92.68L168.733,104.222L184.871,107.836L201.00999,111.449L207.552,96.139L214.24899,81.138L214.24899,81.138z" style="pointer-events:inherit" id="svg_80"></path></g></g><path d="M184.76199,120.869C186.381,122.371 186.74599,124.611 185.577,125.87L180.28699,131.571C179.118,132.83099 176.85799,132.634 175.23799,131.131L175.23799,131.131C173.61899,129.629 173.25398,127.389 174.42299,126.13L179.713,120.429C180.882,119.169 183.142,119.366 184.76199,120.869L184.76199,120.869z" style="pointer-events:inherit" id="svg_81"></path></g></g></g></svg>