<svg id="svgcontent" xmlns:xlink="http://www.w3.org/1999/xlink" x="0px" y="0px" width="500" height="500" viewBox="0 0 500 500" overflow="visible"><g style="pointer-events:all"><title style="pointer-events: inherit" opacity="undefined">Layer 1</title><path fill="#d80000" stroke-width="2" stroke-miterlimit="10" id="svg_1" opacity="undefined" stroke="#000000" d="M 232.522 179.424 C 274.944 262.424 359.2870547945206 318.32461643835614 411.2870547945206 335.85961643835617 C 346.8840547945206 344.34561643835616 253.75641369863013 332.42306027397257 211.14641369863014 399.42306027397257 C 198.70041369863014 353.42306027397257 194.709 290 147.854 246" style="pointer-events: inherit; vector-effect: non-scaling-stroke;"></path><polygon fill="#C60000" points="186.203,290.903 205.886,359.384 214,331.604 282.682,303.516 288,283 320.251,290.903 
	256.701,227.578 " style="pointer-events: inherit" id="svg_2" opacity="undefined"></polygon><path fill="#001119" d="M209.16901,167.72301C218.21501,165.23502 219.20001,161.56401 220.48001,151.89601C221.95901,140.70001 214.43301,131.46001 207.13802,123.91001C207.13802,123.91001 215.09801,147.05301 199.30801,156.47101L209.16901,167.72301z" style="pointer-events: inherit" id="svg_3" opacity="undefined"></path><g id="svg_4" opacity="undefined"><path id="rightArm_2_" fill="none" stroke="#001119" stroke-width="15" stroke-linecap="round" stroke-miterlimit="10" d="M147.21800231933594,233.03599548339844 C116.60400390625,197.96400451660156 111.11399841308594,192.61398315429688 89.13300323486328,173.281982421875 "></path><path fill="#001119" d="M90.23500061035156,160.2429962158203 C90.08699798583984,159.53900146484375 89.99600219726562,158.822998046875 89.97200012207031,158.0959930419922 C89.85299682617188,154.4810028076172 88.87100219726562,154.33599853515625 85.68499755859375,153.052001953125 C83.4010009765625,152.1320037841797 78.15399932861328,162.00799560546875 79.0270004272461,160.3070068359375 C81.89700317382812,156.39599609375 87.68399810791016,147.6009979248047 72.3219985961914,145.84300231933594 C68.1760025024414,145.3679962158203 62.33000183105469,155.5 62.26899719238281,159.3800048828125 C62.092002868652344,170.94700622558594 76.1259994506836,174.76600646972656 84.53299713134766,178.10000610351562 L90.40499877929688,179.4720001220703 L97.78700256347656,173.93600463867188 C95.13300323486328,169.6540069580078 91.27799987792969,165.2239990234375 90.23500061035156,160.2429962158203 z" id="svg_5"></path></g><path fill="#001119" d="M206.554,307.474C206.554,307.474 229.856,331.008 230.687,333.20001C231.517,335.392 230.687,358.25201 234.711,359.349C238.73599,360.44601 250.96001,335.81 250.593,330.80899C250.226,325.80899 242.203,326.31799 240.41901,323.86801C237.75301,320.20499 235.94701,319.45901 228.57401,296.63699L206.554,307.474z" id="svg_6" opacity="undefined" transform="rotate(-0.6486769914627075 231.5775451660161,329.010772705078) " style="pointer-events: inherit"></path><path fill="#001119" d="M244.34800720214844,278.43499755859375 C244.34800720214844,278.43499755859375 263.35400390625,310.0199890136719 265.4909973144531,311.5169982910156 C267.62701416015625,313.0140075683594 292.5160217285156,318.37799072265625 292.5970153808594,323.0220031738281 C292.677001953125,327.6650085449219 274.57501220703125,330.6510009765625 257.4580078125,332.3370056152344 C251.9040069580078,332.8840026855469 254.91000366210938,322.0570068359375 252.75601196289062,319.4599914550781 C249.53500366210938,315.5799865722656 249.22500610351562,313.4280090332031 226.62501525878906,299.22100830078125 L244.34800720214844,278.43499755859375 z" id="svg_7" opacity="undefined" transform="rotate(6.7697672843933105 259.6111450195309,305.3959960937501) " style="pointer-events: inherit"></path><g id="svg_8" opacity="undefined" style="pointer-events: inherit"><path fill="#FFFFFF" stroke="#000000" stroke-width="2" stroke-miterlimit="10" d="M239.44901,305.811C207.93401,319.422 167.98199,313.81601 151.94,280.40701C151.35699,279.19 147.61099,286.198 147.071,284.965C146.52901,283.72702 149.19299,274.24701 148.69501,272.99301C148.306,272.01102 145.172,277.95102 144.80901,276.96002C144.29401,275.548 144.56599,269.20102 144.10899,267.776C142.48,262.70602 141.22099,253.565 140.35899,248.44701C136.506,225.59 137.60001,207.87001 143.444,185.55501C145.312,178.42702 146.339,173.50801 149.48199,169.36301C150.149,168.48302 142.644,159.96201 142.644,159.96201C144.45599,158.27802 155.94,163.53201 159.028,161.90601C160.802,160.97202 194.59,124.98601 196.511,124.27401C196.511,124.27401 176.80701,152.936 179.201,152.44101C181.41402,151.98401 197.68001,140.62801 199.93901,140.45201C199.93901,140.45201 189.06902,154.28902 191.16301,154.34502C220.15501,155.13501 236.20201,176.46201 253.47601,196.884C254.09302,197.61301 264.65802,197.81401 265.26001,198.55402C266.02802,199.49602 256.828,200.98001 257.573,201.93901C258.62802,203.29301 265.681,205.73302 266.68701,207.119C267.513,208.26001 262.29901,208.34201 263.09201,209.50301C271.254,221.464 272.13602,222.17801 271.71701,236.40401C270.67999,271.677 265.60199,294.51599 239.44901,305.811z" id="svg_9" style="pointer-events:inherit"></path><path fill="#C7D6DD" d="M250.244,297.98801C239.237,305.58801 220.405,312.19302 207.05299,311.82001C188.42,311.29901 173.30701,305.591 163.12399,294.44101C156.5,287.18802 151.12399,279.88202 151.994,279.19501C150.61099,280.28702 149.48,281.73502 148.121,282.86002C148.23,279.08301 149.019,275.297 149.28,271.521C148.082,272.11902 146.01601,273.064 145.759,274.55502C145.87601,269.293 144.41299,264.633 143.397,259.53302C139.397,239.45201 136.46001,217.87601 141.759,197.77301C140.966,203.54901 143.23199,210.33301 143.12399,216.16901C142.86501,230.21201 143.77,245.43201 148.097,258.76202C154.922,279.784 166.188,290.95502 187.30299,300.59601C204.554,308.47302 254.304,299.67001 269.60901,256.80701C269.608,256.80801 266.99301,286.42401 250.244,297.98801z" id="svg_10" style="pointer-events:inherit"></path></g><g id="svg_11" style="pointer-events: inherit" opacity="undefined"><path fill="#b2b2b2" d="M237.7452278067288,118.66823260983367 C238.53323749111618,105.37523325835276 238.53323749111618,105.37523325835276 249.85623461617934,99.50223566327776 C236.9302244994459,98.26823463645584 236.9302244994459,98.26823463645584 230.6902342919198,87.39223512284518 C229.7182341838333,99.9012341230449 229.7182341838333,99.9012341230449 218.5842318059299,106.55923158301175 C231.02122867142094,107.24823423113142 231.02122867142094,107.24823423113142 237.7452278067288,118.66823260983367 z" id="svg_12" style="pointer-events:inherit"></path><path fill="#b2b2b2" d="M337.48966567652616,266.11101132210376 C343.2726552355332,262.02600423179274 343.2726552355332,262.02600423179274 349.47065350614895,264.77901067358465 C345.69266827060255,259.00000336710065 345.69266827060255,259.00000336710065 348.13865285762984,252.79800818759475 C342.62067741455735,256.54701657494394 342.62067741455735,256.54701657494394 336.1586724425776,254.13200786333522 C340.00068288357056,259.5270116463633 340.00068288357056,259.5270116463633 337.48966567652616,266.11101132210376 z" id="svg_13" style="pointer-events:inherit"></path><path fill="#b2b2b2" d="M111.52067088206823,152.901346821039 C116.29467271953901,152.80634574017384 116.29467271953901,152.80634574017384 118.71567061185195,156.68735747820503 C118.7906746650963,152.03135114449967 118.7906746650963,152.03135114449967 122.5016733680581,149.49234984746147 C118.00267288166879,149.49935319814347 118.00267288166879,149.49935319814347 115.3066736382744,145.70734660486596 C115.4126761242643,150.17434124393927 115.4126761242643,150.17434124393927 111.52067088206823,152.901346821039 z" id="svg_14" style="pointer-events:inherit"></path><path fill="#b2b2b2" d="M84.98200199960056,334.0740045358169 C86.03199794635619,345.2829884096377 86.03199794635619,345.2829884096377 77.3280025940764,351.64498797729163 C88.28399697357753,351.01299928297675 88.28399697357753,351.01299928297675 94.89600329663875,359.29800252557226 C94.09899913530786,348.7239979859386 94.09899913530786,348.7239979859386 102.5469974059236,341.72799604038124 C92.06700118895168,342.7530199487897 92.06700118895168,342.7530199487897 84.98200199960056,334.0740045358169 z" id="svg_15" style="pointer-events:inherit"></path><path fill="#b2b2b2" d="M221.70935688275853,397.0590287617398 C226.4833598657819,396.96402768087466 226.4833598657819,396.96402768087466 228.90434985713495,400.8460456879238 C228.97835439676865,396.190040499771 228.97835439676865,396.190040499771 232.68935309973045,393.6510392027328 C228.19036051430098,393.6590341660656 228.19036051430098,393.6590341660656 225.4943454689869,389.86603481458474 C225.60135536954732,394.3320085282729 225.60135536954732,394.3320085282729 221.70935688275853,397.0590287617398 z" id="svg_16" style="pointer-events:inherit"></path></g><g display="none" style="pointer-events: inherit" id="svg_17" opacity="undefined"><circle fill="#001119" cx="181.092" cy="184.009" r="9.026" style="pointer-events:inherit" id="svg_18"></circle><circle fill="#001119" cx="147.707" cy="201.699" r="6.511" style="pointer-events:inherit" id="svg_19"></circle></g><path id="rightArm" fill="none" stroke="#001119" stroke-width="15" stroke-linecap="round" stroke-miterlimit="10" d="M259.375,218.718C286.20901,237.533 290.427,241.095 305.98801,255.784" style="pointer-events: inherit" opacity="undefined"></path><path fill="#001119" d="M144.866,199.63L143.726,192.06L144.151,187.942L143.73,184.694C131.42,196.97701 119.326,175.159 119.326,175.159C120.74,182.93201 126.659,197.953 134.039,201.90601C136.545,203.24899 137.196,204.60201 138.841,205.174L142.108,199.463L144.866,199.63z" style="pointer-events: inherit" id="svg_20" opacity="undefined"></path><path fill="#001119" d="M301.453,261.30399C301.54401,261.918 301.44,262.564 301.60501,263.173C302.20001,265.37198 304.34399,268.76199 307.76501,268.12C309.54501,267.78598 307.45001,264.96198 308.724,264.22998C310.78799,266.401 312.94901,271.21799 315.52399,271.65598C318.22,272.11398 320.90302,264.88898 320.978,261.517C321.19699,251.46399 310.776,248.83699 305.32999,245.84599L301.51599,244.588L296.65799,249.31699C298.34698,253.067 300.81799,256.96399 301.453,261.30399z" style="pointer-events: inherit" id="svg_21" opacity="undefined"></path><g style="pointer-events: inherit" id="svg_22" opacity="undefined"><path fill="#DCE8EF" stroke="#000000" stroke-width="2" stroke-miterlimit="10" d="M147.927,234.242C147.927,234.242 145.745,210.696 152.87,193.7C153.423,192.382 154.02499,191.09801 154.68201,189.86C155.395,188.51401 156.173,187.22301 157.021,186.005C158.989,183.17599 161.334,180.733 164.125,178.886C164.64799,178.53999 165.188,178.215 165.742,177.912L166.50101,184.38901C166.50101,184.38901 172.041,175.05299 173.586,174.571L177.011,186.06599L187.675,172.71101L192.118,178.76901L200.23801,174.811C203.707,175.826 207.09399,177.15901 210.36501,178.716C234.10699,190.01901 245.73599,213.10201 244.185,211.356C244.185,211.356 230.758,227.61099 200.40601,243.66602C179.51801,254.716 150.659,252.58401 150.659,252.58401L147.927,234.242z" style="pointer-events:inherit" id="svg_23"></path><g style="pointer-events:inherit" id="svg_24"><g style="pointer-events:inherit" id="svg_25"><path fill="#001119" d="M208.078,204.099C208.036,203.879 206.66499,197.964 202.694,195.85899C200.411,194.646 197.368,193.92101 194.313,195.239C194.30499,195.243 194.298,195.246 194.28799,195.25C187.16499,198.32401 191.536,209.47301 191.70799,209.91499L193.995,208.69501C193.96201,208.60899 190.586,199.94099 195.41901,197.854C195.423,197.853 195.42599,197.851 195.42999,197.85001C197.728,196.856 199.96899,197.42999 201.526,198.254C204.40401,199.77 205.395,204.22701 205.40601,204.27L208.078,204.099z" style="pointer-events:inherit" id="svg_26"></path><path fill="#001119" d="M162.679,224.79201L164.367,223.58301C164.34599,223.55701 162.15199,220.21101 162.85201,217.69101C163.23199,216.32901 164.11,214.65501 165.955,213.85901C165.959,213.85701 165.963,213.856 165.966,213.85301C169.86301,212.17201 173.21001,219.285 173.24001,219.35001L174.957,218.09401C174.797,217.74701 170.787,209.28801 165.063,211.75801C165.056,211.76102 165.05,211.76401 165.045,211.76701C162.591,212.826 161.358,215.05202 160.808,217.05402C159.85001,220.539 162.575,224.646 162.679,224.79201z" style="pointer-events:inherit" id="svg_27"></path></g><g style="pointer-events:inherit" id="svg_28"><path fill="#001119" d="M177.313,231.59L201.252,221.616C201.252,221.616 204.242,235.578 195.994,240.69701C187.743,245.81599 177.313,231.59 177.313,231.59z" style="pointer-events:inherit" id="svg_29"></path><path fill="#DCE8EF" d="M194.67599,238.619C191.884,240.351 188.74399,239.004 186.202,237.091C186.50398,235.213 188.40199,233.121 191.17099,231.871C194.09698,230.55 197.088,230.575 198.63699,231.77299C198.245,234.36501 197.185,237.063 194.67599,238.619z" style="pointer-events:inherit" id="svg_30"></path></g></g><path fill="#C2CACE" d="M149.31,219.56C149.033,189.951 165.12399,178.88499 165.12399,178.88499L165.5,187.948L172.715,176.537L177.312,187.897L187.618,174.369L192.41901,180.10201L200.237,175.808C200.237,175.808 228.799,184.351 243.18401,211.145L237.77,216C226.562,190.403 200.60201,177.729 200.60201,177.729L190.42101,185.338L186.54701,178.584L174.31401,193.881L171.75101,183.593L162.79102,192.511L160.84201,185.27499C160.842,185.276 154.187,203.623 149.31,219.56L149.31,219.56z" style="pointer-events:inherit" id="svg_31"></path></g></g></svg>