<svg id="svgcontent" xmlns:xlink="http://www.w3.org/1999/xlink" x="0px" y="0px" width="500" height="500" viewBox="0 0 500 500" overflow="visible"><g style="pointer-events:all"><title style="pointer-events:inherit">Layer 1</title><g display="none" style="pointer-events:inherit" id="svg_1"><circle fill="#001119" cx="181.092" cy="184.009" r="9.026" style="pointer-events:inherit" id="svg_2"></circle><circle fill="#001119" cx="147.707" cy="201.699" r="6.511" style="pointer-events:inherit" id="svg_3"></circle></g><g id="stars" style="pointer-events:inherit"><path opacity="0.9" fill="#B2B2B2" d="M334.4110107421875,181.364990234375 C335.1990051269531,168.07199096679688 335.1990051269531,168.07199096679688 346.5220031738281,162.19900512695312 C333.59600830078125,160.96499633789062 333.59600830078125,160.96499633789062 327.35601806640625,150.0889892578125 C326.3840026855469,162.59799194335938 326.3840026855469,162.59799194335938 315.25,169.2559814453125 C327.68701171875,169.94500732421875 327.68701171875,169.94500732421875 334.4110107421875,181.364990234375 z" id="svg_4" style="pointer-events:inherit"></path><path opacity="0.9" fill="#B2B2B2" d="M353.2699890136719,282.23500061035156 C359.052978515625,278.1499938964844 359.052978515625,278.1499938964844 365.2509765625,280.9029998779297 C361.4729919433594,275.1239929199219 361.4729919433594,275.1239929199219 363.9189758300781,268.9219970703125 C358.4010009765625,272.67100524902344 358.4010009765625,272.67100524902344 351.9389953613281,270.25599670410156 C355.781005859375,275.6510009765625 355.781005859375,275.6510009765625 353.2699890136719,282.23500061035156 z" id="svg_5" style="pointer-events:inherit"></path><path opacity="0.9" fill="#B2B2B2" d="M272.2699966430664,376.3070068359375 C277.0439987182617,376.2120056152344 277.0439987182617,376.2120056152344 279.4649963378906,380.093017578125 C279.54000091552734,375.43701171875 279.54000091552734,375.43701171875 283.2509994506836,372.89801025390625 C278.7519989013672,372.90501403808594 278.7519989013672,372.90501403808594 276.0559997558594,369.1130065917969 C276.16200256347656,373.5800018310547 276.16200256347656,373.5800018310547 272.2699966430664,376.3070068359375 z" id="svg_6" style="pointer-events:inherit"></path><path opacity="0.9" fill="#B2B2B2" d="M98.98200225830078,285.2909851074219 C100.03199768066406,296.4999694824219 100.03199768066406,296.4999694824219 91.3280029296875,302.8619689941406 C102.28399658203125,302.22998046875 102.28399658203125,302.22998046875 108.89600372314453,310.5149841308594 C108.0989990234375,299.94097900390625 108.0989990234375,299.94097900390625 116.5469970703125,292.9449768066406 C106.06700134277344,293.9700012207031 106.06700134277344,293.9700012207031 98.98200225830078,285.2909851074219 z" id="svg_7" style="pointer-events:inherit"></path><path opacity="0.9" fill="#B2B2B2" d="M179.27000427246094,348.3070068359375 C184.04400634765625,348.2120056152344 184.04400634765625,348.2120056152344 186.46499633789062,352.0940246582031 C186.53900146484375,347.4380187988281 186.53900146484375,347.4380187988281 190.25,344.8990173339844 C185.75100708007812,344.9070129394531 185.75100708007812,344.9070129394531 183.05499267578125,341.114013671875 C183.16200256347656,345.5799865722656 183.16200256347656,345.5799865722656 179.27000427246094,348.3070068359375 z" id="svg_8" style="pointer-events:inherit"></path></g><g id="sentiman" style="pointer-events:inherit" transform="translate(0,0)"><path fill="#D80000" stroke="#000000" stroke-width="2" stroke-miterlimit="10" d="M232.522,179.424C274.944,262.42401 358,311.465 410,329C345.59698,337.48599 252.59801,345 209.98801,412C197.54201,366 194.70901,290 147.854,246" style="pointer-events:inherit" id="svg_9"></path><polygon fill="#C60000" points="186.203,290.903 205.886,359.384 214,331.604 282.682,303.516 288,283 320.251,290.903 
		256.701,227.578 	" style="pointer-events:inherit" id="svg_10"></polygon><path fill="#001119" d="M209.16901,167.72301C218.21501,165.23502 219.20001,161.56401 220.48001,151.89601C221.95901,140.70001 214.43301,131.46001 207.13802,123.91001C207.13802,123.91001 215.09801,147.05301 199.30801,156.47101L209.16901,167.72301z" style="pointer-events:inherit" id="svg_11"></path><g style="pointer-events:inherit" id="svg_12"><path id="rightArm_2_" fill="none" stroke="#001119" stroke-width="15" stroke-linecap="round" stroke-miterlimit="10" d="M149.218,239.036C118.604,203.964 113.114,198.61398 91.133,179.28198" style="pointer-events:inherit"></path><path fill="#001119" d="M92.235,166.243C92.087,165.539 91.996,164.823 91.972,164.09599C91.853,160.481 90.871,160.336 87.685,159.052C85.401,158.132 80.154,168.008 81.027,166.30701C83.897,162.396 89.684,153.601 74.322,151.843C70.176,151.368 64.33,161.5 64.269,165.38C64.092,176.94701 78.126,180.76601 86.533,184.10001L92.405,185.472L99.787,179.936C97.133,175.65401 93.278,171.224 92.235,166.243z" style="pointer-events:inherit" id="svg_13"></path></g><path fill="#001119" d="M206.554,307.474C206.554,307.474 229.856,331.008 230.687,333.20001C231.517,335.392 230.687,358.25201 234.711,359.349C238.73599,360.44601 250.96001,335.81 250.593,330.80899C250.226,325.80899 242.203,326.31799 240.41901,323.86801C237.75301,320.20499 235.94701,319.45901 228.57401,296.63699L206.554,307.474z" style="pointer-events:inherit" id="svg_14"></path><path fill="#001119" d="M245.34801,276.435C245.34801,276.435 264.354,308.01999 266.491,309.517C268.62701,311.01401 293.51602,316.37799 293.59702,321.022C293.677,325.66501 275.57501,328.651 258.45801,330.33701C252.90401,330.884 255.91,320.05701 253.75601,317.45999C250.535,313.57999 250.22501,311.42801 227.62502,297.22101L245.34801,276.435z" style="pointer-events:inherit" id="svg_15"></path><g style="pointer-events:inherit" id="svg_16"><path fill="#FFFFFF" stroke="#000000" stroke-width="2" stroke-miterlimit="10" d="M239.44901,305.811C207.93401,319.422 167.98199,313.81601 151.94,280.40701C151.35699,279.19 147.61099,286.198 147.071,284.965C146.52901,283.72702 149.19299,274.24701 148.69501,272.99301C148.306,272.01102 145.172,277.95102 144.80901,276.96002C144.29401,275.548 144.56599,269.20102 144.10899,267.776C142.48,262.70602 141.22099,253.565 140.35899,248.44701C136.506,225.59 137.60001,207.87001 143.444,185.55501C145.312,178.42702 146.339,173.50801 149.48199,169.36301C150.149,168.48302 142.644,159.96201 142.644,159.96201C144.45599,158.27802 155.94,163.53201 159.028,161.90601C160.802,160.97202 194.59,124.98601 196.511,124.27401C196.511,124.27401 176.80701,152.936 179.201,152.44101C181.41402,151.98401 197.68001,140.62801 199.93901,140.45201C199.93901,140.45201 189.06902,154.28902 191.16301,154.34502C220.15501,155.13501 236.20201,176.46201 253.47601,196.884C254.09302,197.61301 264.65802,197.81401 265.26001,198.55402C266.02802,199.49602 256.828,200.98001 257.573,201.93901C258.62802,203.29301 265.681,205.73302 266.68701,207.119C267.513,208.26001 262.29901,208.34201 263.09201,209.50301C271.254,221.464 272.13602,222.17801 271.71701,236.40401C270.67999,271.677 265.60199,294.51599 239.44901,305.811z" style="pointer-events:inherit" id="svg_17"></path><path fill="#C7D6DD" d="M250.244,297.98801C239.237,305.58801 220.405,312.19302 207.05299,311.82001C188.42,311.29901 173.30701,305.591 163.12399,294.44101C156.5,287.18802 151.12399,279.88202 151.994,279.19501C150.61099,280.28702 149.48,281.73502 148.121,282.86002C148.23,279.08301 149.019,275.297 149.28,271.521C148.082,272.11902 146.01601,273.064 145.759,274.55502C145.87601,269.293 144.41299,264.633 143.397,259.53302C139.397,239.45201 136.46001,217.87601 141.759,197.77301C140.966,203.54901 143.23199,210.33301 143.12399,216.16901C142.86501,230.21201 143.77,245.43201 148.097,258.76202C154.922,279.784 166.188,290.95502 187.30299,300.59601C204.554,308.47302 254.304,299.67001 269.60901,256.80701C269.608,256.80801 266.99301,286.42401 250.244,297.98801z" style="pointer-events:inherit" id="svg_18"></path></g><path id="rightArm" fill="none" stroke="#001119" stroke-width="15" stroke-linecap="round" stroke-miterlimit="10" d="M259.375,218.718C286.20901,237.533 290.427,241.095 305.98801,255.784" style="pointer-events:inherit"></path><path fill="#001119" d="M144.866,199.63L143.726,192.06L144.151,187.942L143.73,184.694C131.42,196.97701 119.326,175.159 119.326,175.159C120.74,182.93201 126.659,197.953 134.039,201.90601C136.545,203.24899 137.196,204.60201 138.841,205.174L142.108,199.463L144.866,199.63z" style="pointer-events:inherit" id="svg_19"></path><path fill="#001119" d="M301.453,261.30399C301.54401,261.918 301.44,262.564 301.60501,263.173C302.20001,265.37198 304.34399,268.76199 307.76501,268.12C309.54501,267.78598 307.45001,264.96198 308.724,264.22998C310.78799,266.401 312.94901,271.21799 315.52399,271.65598C318.22,272.11398 320.90302,264.88898 320.978,261.517C321.19699,251.46399 310.776,248.83699 305.32999,245.84599L301.51599,244.588L296.65799,249.31699C298.34698,253.067 300.81799,256.96399 301.453,261.30399z" style="pointer-events:inherit" id="svg_20"></path><g style="pointer-events:inherit" id="svg_21"><path fill="#DCE8EF" stroke="#000000" stroke-width="2" stroke-miterlimit="10" d="M147.927,234.242C147.927,234.242 145.745,210.696 152.87,193.7C153.423,192.382 154.02499,191.09801 154.68201,189.86C155.395,188.51401 156.173,187.22301 157.021,186.005C158.989,183.17599 161.334,180.733 164.125,178.886C164.64799,178.53999 165.188,178.215 165.742,177.912L166.50101,184.38901C166.50101,184.38901 172.041,175.05299 173.586,174.571L177.011,186.06599L187.675,172.71101L192.118,178.76901L200.23801,174.811C203.707,175.826 207.09399,177.15901 210.36501,178.716C234.10699,190.01901 245.73599,213.10201 244.185,211.356C244.185,211.356 230.758,227.61099 200.40601,243.66602C179.51801,254.716 150.659,252.58401 150.659,252.58401L147.927,234.242z" style="pointer-events:inherit" id="svg_22"></path><g style="pointer-events:inherit" id="svg_23"><g style="pointer-events:inherit" id="svg_24"><path fill="#001119" d="M208.078,204.099C208.036,203.879 206.66499,197.964 202.694,195.85899C200.411,194.646 197.368,193.92101 194.313,195.239C194.30499,195.243 194.298,195.246 194.28799,195.25C187.16499,198.32401 191.536,209.47301 191.70799,209.91499L193.995,208.69501C193.96201,208.60899 190.586,199.94099 195.41901,197.854C195.423,197.853 195.42599,197.851 195.42999,197.85001C197.728,196.856 199.96899,197.42999 201.526,198.254C204.40401,199.77 205.395,204.22701 205.40601,204.27L208.078,204.099z" style="pointer-events:inherit" id="svg_25"></path><path fill="#001119" d="M162.679,224.79201L164.367,223.58301C164.34599,223.55701 162.15199,220.21101 162.85201,217.69101C163.23199,216.32901 164.11,214.65501 165.955,213.85901C165.959,213.85701 165.963,213.856 165.966,213.85301C169.86301,212.17201 173.21001,219.285 173.24001,219.35001L174.957,218.09401C174.797,217.74701 170.787,209.28801 165.063,211.75801C165.056,211.76102 165.05,211.76401 165.045,211.76701C162.591,212.826 161.358,215.05202 160.808,217.05402C159.85001,220.539 162.575,224.646 162.679,224.79201z" style="pointer-events:inherit" id="svg_26"></path></g><g style="pointer-events:inherit" id="svg_27"><path fill="#001119" d="M177.313,231.59L201.252,221.616C201.252,221.616 204.242,235.578 195.994,240.69701C187.743,245.81599 177.313,231.59 177.313,231.59z" style="pointer-events:inherit" id="svg_28"></path><path fill="#DCE8EF" d="M194.67599,238.619C191.884,240.351 188.74399,239.004 186.202,237.091C186.50398,235.213 188.40199,233.121 191.17099,231.871C194.09698,230.55 197.088,230.575 198.63699,231.77299C198.245,234.36501 197.185,237.063 194.67599,238.619z" style="pointer-events:inherit" id="svg_29"></path></g></g><path fill="#C2CACE" d="M149.31,219.56C149.033,189.951 165.12399,178.88499 165.12399,178.88499L165.5,187.948L172.715,176.537L177.312,187.897L187.618,174.369L192.41901,180.10201L200.237,175.808C200.237,175.808 228.799,184.351 243.18401,211.145L237.77,216C226.562,190.403 200.60201,177.729 200.60201,177.729L190.42101,185.338L186.54701,178.584L174.31401,193.881L171.75101,183.593L162.79102,192.511L160.84201,185.27499C160.842,185.276 154.187,203.623 149.31,219.56L149.31,219.56z" style="pointer-events:inherit" id="svg_30"></path></g></g></g></svg>