<svg id="svgcontent" xmlns:xlink="http://www.w3.org/1999/xlink" x="0px" y="0px" width="105.405" height="128.653" viewBox="0 0 105.405 128.653" overflow="visible">
    <g style="pointer-events:all">
        <title style="pointer-events:inherit">Layer 1</title>
        <g id="svg_1">
            <circle fill="#F4F4F4" cx="54.257" cy="79.581" r="45.5" id="svg_2"></circle>
            <g id="svg_3">
                <ellipse fill="#D3D3D3" cx="52.371" cy="119.929" rx="23.571" ry="6.111" id="svg_4"></ellipse>
                <g id="svg_5">
                    <path d="M58.466,120.004C55.136,119.983 51.797,120.495 48.599,120.28C49.506,115.917 51.741,111.738 51.966,107.182C52.208,102.29 51.521,97.359 50.665,92.521C48.97,82.917 46.016,73.501 44.304,63.902C48.35,73.896 51.306,84.478 54.103,94.872C56.09,102.256 60.096,113.726 59.351,120.486" id="svg_6"></path>
                </g>
                <g id="svg_7" transform="rotate(0.35319146513938904 68.84056854247989,67.86312103271554) " stroke="null">
                    <path fill="#8AB91C" d="M85.71074464078993,46.913807447999716 C78.26069428678602,48.33020454272628 70.71664979215711,49.86380058154464 64.63259675260633,53.937611158937216 C54.337175152264535,60.82867484912276 52.49838807340711,67.95709663257003 53.03801133390516,81.07754188403487 L53.912832043133676,82.82815223559737 C64.18501069303602,77.24399238452315 72.60193421598524,69.88113075122237 76.29305817838758,60.503155287355185 C76.79876496549696,59.12551933154464 77.23666932340711,57.71494346484542 77.59414460416883,56.28597694262862 C77.26669099088758,57.73238044604659 76.83267762418836,59.139080580323935 76.29305817838758,60.503155287355185 C72.65810944791883,70.4139752946794 65.36209656950086,78.95006996020675 56.2708947872743,85.26467567309737 C55.98897340055555,85.45843940600753 55.70414139982313,85.64832740649581 55.41931702848524,85.83820014819503 L56.003495953045785,87.00175147876143 C65.06080415006727,88.81242805346847 77.35388734098524,84.92268806323409 80.66135956998914,77.59179359301925 C83.36722352262586,71.61237769946456 84.36605622526258,63.60718971118331 84.12773682828993,56.351849135011435 C84.01923157926649,52.986248549073935 82.77237488981336,48.45904975757003 85.71074464078993,46.913807447999716 z" id="svg_8" stroke="null"></path>
                    <path fill="#B8CA00" d="M69.13071229215711,58.06953101977706 C73.43218018766493,55.76087623462081 78.25584199186414,54.242779310792685 83.31006409879774,53.133507307618856 C83.13082673307508,50.696007307618856 83.23448731657118,48.354420240968466 85.18758942838758,47.32360893115401 C77.73657014127821,48.74774604663253 70.19155671354383,50.27942329272628 64.10556580778211,54.35321479663253 C53.81498124357313,61.2433209978044 51.97039201017469,68.36980110034347 52.50903870817274,81.498959120363 L52.85005738493055,82.17519050464034 C53.45652940031141,71.22678809985518 57.28521897550672,64.42485481128097 69.13071229215711,58.06953101977706 z" id="svg_9" stroke="null"></path>
                </g>
                <g id="svg_10" stroke="null">
                    <path fill="#8AB91C" d="M23.422999900063587,89.63537819834528 C25.7035624729142,93.05742909064065 28.06065936035884,96.50148728263957 31.378505407852572,98.68028012962895 C36.993194938691886,102.37020814063726 40.94285961316564,101.78398308067699 47.38070355747004,98.74540377160884 L48.07195452539054,97.93773025838163 C43.11431903279845,93.98725153838313 37.660838586394675,91.33541402990886 32.197582576060086,91.47220174860195 C31.40211272807028,91.51046188826513 30.605835852189557,91.58862429390865 29.816878368397738,91.71157323868101 C30.60909203428855,91.57071529236418 31.40211272807028,91.49011075014641 32.197582576060086,91.47220174860195 C37.914862895919214,91.19537012911678 43.71844607666935,93.03870604357144 48.791704104311066,96.24663489232262 C48.94721487007337,96.34760460792677 49.10191159031092,96.44856028826325 49.25660831054847,96.55195810517398 L49.71500015258789,96.01458981196629 C48.7094714710438,91.10906726822577 44.17032555451078,85.78829729525751 39.81193985027494,85.68408543282203 C36.253908267177394,85.5953264000891 32.04369990134728,86.78568552155411 28.47019443564568,88.43525053058329 C26.812495989002855,89.19815153994932 24.814463354310647,90.77606650753296 23.422999900063587,89.63537819834528 z" id="svg_11" stroke="null"></path>
                    <path fill="#B8CA00" d="M32.493137242614466,95.56191032386778 C30.432409067248955,93.90094867749212 28.657459994507008,91.8125289190175 27.0364006141117,89.5205697088204 C25.856631102102256,90.12470377032514 24.664650907221585,90.56681470186959 23.737277613687183,89.8096120111768 C26.02191041416154,93.23086289321509 28.377379210556683,96.67653514099584 31.69766739462466,98.85614203350997 C37.310728834414476,102.54199981689453 41.25876541783873,101.95985901982567 47.703121726341124,98.91965161970802 L47.969363736370724,98.6061739163415 C42.37340427023446,100.61480317812311 38.16808017755284,100.13767425374681 32.493137242614466,95.56191032386778 z" id="svg_12" stroke="null"></path>
                </g>
            </g>
        </g>
    </g>
</svg>
