<svg id="svgcontent" xmlns:xlink="http://www.w3.org/1999/xlink" x="0px" y="0px" width="105.405" height="128.653" viewBox="0 0 105.405 128.653" overflow="visible"><g style="pointer-events:all"><title style="pointer-events:inherit">Layer 1</title><g id="svg_1" style="pointer-events:inherit"><circle fill="#f4f4f4" cx="54.257" cy="79.581" r="45.5" id="svg_2" style="pointer-events:inherit"></circle><g id="svg_3" style="pointer-events:inherit"><ellipse fill="#d3d3d3" cx="52.88" cy="120.729" rx="22.853" ry="5.926" id="svg_4" style="pointer-events:inherit"></ellipse><g id="svg_5" style="pointer-events:inherit"><path d="M58.473,119.813C53.631,119.811 48.772,120.614 44.125,120.316C45.48,113.713 48.766,107.379 49.134,100.491C49.528,93.096 48.571,85.649 47.37,78.345C44.988,63.845 40.775,49.638 38.37,35.146C44.165,50.215 48.37,66.184 52.347,81.869C55.172,93.012 60.897,110.312 59.755,120.537" id="svg_6" style="pointer-events:inherit"></path><path d="M49.883,100.562C60.455,98.76 69.122,86.517 76.134,80.11C72.849,85.251 68.605,90.135 64.377,94.887C61.377,98.268 57.232,103.901 53.017,105.908" id="svg_7" style="pointer-events:inherit"></path><path d="M48.862,92.239C48.47,85.403 37.501,76.528 32.088,70.407C36.738,73.925 41.012,77.935 45.155,81.893C48.103,84.706 53.123,88.877 54.564,91.997" id="svg_8" style="pointer-events:inherit"></path></g><g id="svg_9" stroke="null"><path fill="#8ab91c" d="M68.00797723238975,46.5840329402472 C63.98037445179398,48.52529057415086 59.917952297691954,50.54696714090642 57.07259745598276,53.793175671993595 C52.2582103329587,59.28532624059517 52.296762032434344,63.62507180919056 54.60115210660297,71.01454448685035 L55.36637921112742,71.8780185699361 C60.366063313365885,67.13409751051222 64.03841196392932,61.659355061776296 64.71285674183127,55.75682099416372 C64.79120111566408,54.89500467802827 64.82560996465145,54.025316319210106 64.81152051246136,53.15728572734224 C64.84550943560498,54.03112007042364 64.81234156149912,54.89790655363504 64.71285674183127,55.75682099416372 C64.15157884504333,61.954506521979056 61.29586060956353,67.92585202001646 57.08005584037164,72.90688075995786 C56.94906404732319,73.05984658297893 56.81517037866797,73.21114523772485 56.682110294150334,73.36287008586442 L57.191568088310305,73.93699645996094 C62.62485382818886,73.58921011564235 69.03477739849222,69.50273623877365 69.80249585410456,64.82390055135511 C70.43299883961117,61.006881180072014 69.78301004144487,56.2957112026852 68.54272459042295,52.19971064995843 C67.96943180046401,50.29949293284335 66.56996311691364,47.91136525814727 68.00797723238975,46.5840329402472 z" id="svg_10" stroke="null"></path><path fill="#b8ca00" d="M60.263673484316314,55.46167266773591 C62.36162299966054,53.49181306983337 64.87742379972951,51.89337161317235 67.5868104137644,50.492251430221586 C67.11424968590472,49.13133757992182 66.81702366668287,47.78203123204912 67.77127694261617,46.89741983690328 C63.74450147860807,48.84282032129522 59.681668799987165,50.86325591316927 56.83548350791534,54.11070855291291 C52.02399826049805,59.60078456249539 52.05840397571046,63.93970281450311 54.36403815853555,71.3345593175327 L54.660841118138705,71.6682562096612 C53.339726209746004,65.34082299745387 54.48508334988219,60.88418135555003 60.263673484316314,55.46167266773591 z" id="svg_11" stroke="null"></path></g><g id="svg_12" stroke="null"><path fill="#8ab91c" d="M31.83976605733926,60.52181249547198 C30.955498416764385,63.052193186115346 30.08999970796185,65.6320545684523 30.25977097920577,68.21490355995456 C30.54685029317625,72.58505549629353 32.40325881911326,74.40904415129671 36.51320724311563,76.56490089604222 L37.20466630527085,76.60628105830119 C37.312161903294054,72.47542697865401 36.548612187044,68.5971044947687 34.33175673105973,65.80822459854517 C33.99988990940278,65.40981246017873 33.64626781489358,65.02590468243739 33.27216994568482,64.66417825423741 C33.65650506820066,65.02036061313743 34.010127162709864,65.40170939457334 34.33175673105973,65.80822459854517 C36.72179460797156,68.67388452861451 38.04329428478104,72.41698853180606 38.36705423657645,76.31621413516541 C38.37601452790159,76.43693586374638 38.38411759350697,76.5568003666076 38.391371041904904,76.67879018057283 L38.8512092362846,76.70566851837748 C41.00791813440833,74.25505293457445 41.992000579833984,69.80428120184615 40.33437204639108,67.49486185323826 C38.983016567294726,65.60902106553272 36.70985177982266,63.88697886691125 34.447355394688316,62.676391010150155 C33.3988592840841,62.11332305697988 31.79327170672559,61.69401033531017 31.83976605733926,60.52181249547198 z" id="svg_13" stroke="null"></path><path fill="#b8ca00" d="M32.320504835022234,67.56951150363852 C32.37467871072295,65.84491030871163 32.76370448107514,64.10026322003046 33.31866556438388,62.35731790193495 C32.54103883228322,61.98066103642077 31.843179743193673,61.534903662147826 31.872185928273097,60.75471666565636 C30.990049939229152,63.287230275916045 30.123271732273906,65.86666304539312 30.293896424981426,68.45036672644437 C30.5814030837264,72.81838320699626 32.435677421961714,74.6436551644083 36.548612187044,76.80121621591024 L36.816066611607766,76.81700134277344 C33.57332500742052,74.69398800948011 32.169501227465275,72.3188793017971 32.320504835022234,67.56951150363852 z" id="svg_14" stroke="null"></path><path fill="#ffffff" d="M34.33175673105973,65.80822459854517 C36.548612187044,68.5971044947687 37.312161903294054,72.47542697865401 37.20466630527085,76.60628105830119 L38.390942429045026,76.67879018057283 C38.38369405298863,76.55722644329671 38.37558591504171,76.4373619404355 38.36663069605811,76.31621413516541 C38.04329428478104,72.41656245511695 36.72179460797156,68.67388452861451 34.33175673105973,65.80822459854517 z" id="svg_15" stroke="null"></path></g><g id="svg_16" stroke="null"><path fill="#8ab91c" d="M24.98699949461934,84.95671750768543 C26.476463876975913,82.98563823973473 28.014761998724225,81.00614379175204 30.082665621504816,79.81726514347702 C33.580253729407104,77.80661525797132 35.924327822523765,78.30002103131255 39.67282480116228,80.35444912438925 L40.05592426616818,80.86300864558962 C36.94228195912615,83.05383974080314 33.57772596349673,84.44731646848186 30.310842264501957,84.169461356189 C29.836807464738172,84.11810306278767 29.3610880230176,84.04316941769366 28.892105543173784,83.94128792509264 C29.362772664974386,84.05495709354 29.835965946734973,84.1307322566372 30.310842264501957,84.169461356189 C33.7267581594831,84.54077635724934 37.27065384681714,83.64491299292786 40.42555623122212,81.90369661588147 C40.523223710005595,81.84896582666579 40.62005288268665,81.79339351944691 40.71603732546373,81.73782121222803 L40.97200012207031,82.07629773975896 C40.189799502394635,84.9819758953845 37.27738920274351,88.00805536348298 34.661357047157935,87.9145954747155 C32.52861960127211,87.84049692382314 30.04814411196901,86.97578257322311 27.968452813342083,85.85847792183085 C27.001017058088223,85.33897224278735 25.8626600030625,84.32185962418816 24.98699949461934,84.95671750768543 z" id="svg_17" stroke="null"></path><path fill="#b8ca00" d="M30.63753111618655,81.72772299618964 C29.3408819552385,82.65053420801814 28.200840258255994,83.83940643249161 27.146679970161017,85.15458344306353 C26.462991559172792,84.75042996847378 25.76246475836865,84.44142584245947 25.18149775203426,84.86157458291154 C26.67348668840043,82.89301986897044 28.210943292145544,80.91100086697816 30.28053155688292,79.72296373670633 C33.776433416878035,77.71399688720703 36.120507509994695,78.20571320074032 39.87237377254678,80.26014771761857 L40.01887820262277,80.45717213499347 C36.73852218582488,79.05190773146842 34.20163447725008,79.1874627918005 30.63753111618655,81.72772299618964 z" id="svg_18" stroke="null"></path><path fill="#ffffff" d="M30.310842264501957,84.169461356189 C33.57772596349673,84.44731646848186 36.94228195912615,83.05383974080314 40.05592426616818,80.86300864558962 L40.71519580746053,81.73697969422483 C40.62005288268665,81.79255200144371 40.5223821920024,81.84812430866259 40.42471150131814,81.90285509787827 C37.26981232881394,83.64491299292786 33.7259166414799,84.54161787525254 30.310842264501957,84.169461356189 z" id="svg_19" stroke="null"></path></g><g id="svg_20" style="pointer-events:inherit"><path fill="#8ab91c" d="M59.279,79.476C58.39,81.653 57.51,83.866 57.395,85.963C57.198,89.509 58.396,90.785 61.227,92.071L61.735,92.023C62.199,88.627 61.998,85.539 60.624,83.513C60.415,83.226 60.191,82.952 59.947,82.7C60.199,82.948 60.425,83.218 60.624,83.513C62.119,85.582 62.744,88.493 62.617,91.65C62.613,91.748 62.608,91.845 62.602,91.943L62.939,91.912C64.758,89.652 65.901,85.891 64.893,84.193C64.073,82.806 62.556,81.662 61.001,80.933C60.279,80.596 59.135,80.442 59.279,79.476z" id="svg_21" style="pointer-events:inherit"></path><path fill="#b8ca00" d="M58.977,85.194C59.177,83.772 59.626,82.298 60.2,80.805C59.662,80.588 59.187,80.304 59.282,79.662C58.395,81.839 57.513,84.055 57.399,86.15C57.203,89.696 58.399,90.974 61.232,92.26L61.429,92.24C59.231,90.883 58.419,89.101 58.977,85.194z" id="svg_22" style="pointer-events:inherit"></path><path fill="#ffffff" d="M60.624,83.514C61.998,85.539 62.199,88.627 61.735,92.024L62.602,91.944C62.608,91.846 62.613,91.749 62.617,91.651C62.744,88.495 62.119,85.583 60.624,83.514z" id="svg_23" style="pointer-events:inherit"></path></g></g></g></g></svg>