<svg id="svgcontent" xmlns:xlink="http://www.w3.org/1999/xlink" x="0px" y="0px" width="500" height="500" viewBox="0 0 500 500" overflow="visible"><g style="pointer-events:all"><title style="pointer-events: inherit" opacity="undefined">Layer 1</title><g id="svg_1" style="pointer-events:inherit"><path fill="none" stroke="#4A557C" stroke-width="12" stroke-linecap="round" stroke-linejoin="round" stroke-miterlimit="10" d="M 235.874 291.674 C 249.952 314.776 272.391 378.862 270.856 404.276" id="svg_2" opacity="undefined"></path><path fill="none" stroke="#4A557C" stroke-width="11" stroke-linecap="round" stroke-linejoin="round" stroke-miterlimit="10" d="M 208.961 292.372 C 206.272 337.994 201.151 369.695 187.983 404.882" id="svg_3" opacity="undefined" style="pointer-events:inherit"></path><g id="svg_4" fill="#4A557C" points="189.764,267.749 193.973,306.736 253.615,300.811 248.085,264.664 	" opacity="undefined" style="pointer-events:inherit"><path fill="#84BFA4" d="M236.78199768066406,168.83900451660156 C225.31399536132812,164.47500610351562 200.7570037841797,162.24099731445312 199.875,164.51699829101562 C195.44900512695312,175.95599365234375 190.70799255371094,210.5330047607422 189.6790008544922,227.3400115966797 C187.9739990234375,255.1820068359375 195.96600341796875,305.63299560546875 195.96600341796875,305.63299560546875 L255.60699462890625,299.6540222167969 C255.60699462890625,299.6540222167969 248.80099487304688,250.65301513671875 249.24400329589844,240.19200134277344 C249.68299865722656,229.73300170898438 257.1860046386719,193.05499267578125 257.1860046386719,193.05499267578125 L259.98199462890625,175.072998046875 L236.78199768066406,168.83900451660156 z" id="svg_5" style="pointer-events:inherit"></path><polygon fill="#4A557C" points="191.76400756835938,266.7489929199219 195.97300720214844,305.7359924316406 255.61500549316406,299.8110046386719 250.0850067138672,263.66400146484375 " id="svg_6" style="pointer-events:inherit"></polygon><rect x="192.33002091021328" y="268.4939908913071" transform="matrix(0.9986,-0.0528,0.0528,0.9986,-14.0612,11.985) " fill="#5D678C" width="58.952" height="5.359" id="svg_7" style="pointer-events:inherit"></rect><path fill="#F9E6D6" d="M232.80799865722656,177.8280029296875 C239.39599609375,177.53599548339844 246.35699462890625,176.34800720214844 248.50900268554688,171.54100036621094 L231.45799255371094,167.40199279785156 C225.41799926757812,165.2779998779297 216.46400451660156,163.89599609375 216.46400451660156,163.89599609375 C216.8209991455078,171.9739990234375 224.7310028076172,178.18600463867188 232.80799865722656,177.8280029296875 z" id="svg_8" style="pointer-events:inherit"></path></g><g id="svg_9" opacity="undefined" transform="rotate(5.517066478729248 240.48001098632847,116.50199890136712) "><path fill="#FAE6DC" d="M248.97000122070312,158.43299865722656 C262.97998046875,156.15199279785156 268.9570007324219,147.093994140625 271.177001953125,142.54600524902344 C273.9209899902344,136.92300415039062 274.489990234375,122.31600189208984 274.489990234375,122.31600189208984 C271.2130126953125,112.88099670410156 267.4490051269531,92.5719985961914 261.81700134277344,91.23899841308594 C256.18499755859375,89.90599822998047 222.19400024414062,94.19200134277344 216.64999389648438,99.8759994506836 C211.10699462890625,105.56099700927734 208.75,113.66200256347656 208.46499633789062,118.93000030517578 C208.1790008544922,124.19900512695312 204.98199462890625,129.97900390625 210.33599853515625,137.2830047607422 C220.37100219726562,150.96600341796875 231.4499969482422,161.4239959716797 248.97000122070312,158.43299865722656 z" id="svg_10"></path><ellipse transform="matrix(0.983,-0.1836,0.1836,0.983,-19.6757,44.584) " fill="#402F25" cx="239.20121679168224" cy="128.06779898570994" rx="4.332" ry="1.497" id="svg_11"></ellipse><ellipse transform="matrix(0.983,-0.1836,0.1836,0.983,-18.6347,49.0891) " fill="#402F25" cx="264.08221679168224" cy="124.70779898570994" rx="4.082" ry="1.41" id="svg_12"></ellipse><path fill="#725A41" d="M211.3040008544922,139.55999755859375 C210.88099670410156,138.64599609375 215.1009979248047,132.38800048828125 215.6439971923828,131.2209930419922 C217.5760040283203,127.05099487304688 218.2689971923828,123.08100891113281 219.031005859375,118.60199737548828 C219.468994140625,116.04299926757812 219.2969970703125,112.28099822998047 219.62899780273438,111.08200073242188 C220.75999450683594,106.98999786376953 222.64300537109375,106.25700378417969 229.61599731445312,104.09500122070312 C233.51600646972656,102.88600158691406 238.64700317382812,101.03600311279297 242.6790008544922,101.5780029296875 C247.5989990234375,102.23899841308594 251.75900268554688,105.18299865722656 257.07200622558594,102.19000244140625 C259.98899841308594,100.5459976196289 261.1909942626953,97.9739990234375 263.697998046875,95.92400360107422 C263.90899658203125,96.16000366210938 264.2149963378906,96.5479965209961 264.3030090332031,96.86000061035156 C264.9679870605469,99.1780014038086 267.75299072265625,104.41500091552734 268.79998779296875,107.64099884033203 C270.8739929199219,114.03800201416016 272.81500244140625,121.0479965209961 275.2690124511719,127.30599975585938 C275.9010009765625,127.35899353027344 276.5320129394531,127.41200256347656 277.16400146484375,127.46400451660156 C276.52899169921875,120.34300231933594 275.510009765625,113.29100036621094 273.8789978027344,106.3270034790039 C272.2980041503906,99.5770034790039 270.177001953125,92.87699890136719 265.3280029296875,87.69999694824219 C260.593994140625,82.6449966430664 254.81100463867188,80.33200073242188 251.04600524902344,78.31300354003906 C249.8179931640625,77.65599822998047 248.5959930419922,77.0979995727539 247.32400512695312,76.55599975585938 L248.26199340820312,79.77400207519531 L231.50799560546875,71.58000183105469 C231.50799560546875,71.58000183105469 236.42999267578125,75.61599731445312 234.0050048828125,78.10299682617188 C231.5800018310547,80.58999633789062 228.4010009765625,80.58699798583984 228.4010009765625,80.58699798583984 S231.11500549316406,81.0199966430664 230.47300720214844,83.61599731445312 C228.86300659179688,90.12799835205078 221.66000366210938,89.72000122070312 217.91700744628906,91.97200012207031 C209.95199584960938,96.76399993896484 205.2429962158203,103.47899627685547 204.43899536132812,113.81999969482422 C203.79600524902344,122.11499786376953 206.7480010986328,133.33399963378906 211.3040008544922,139.55999755859375 z" id="svg_13"></path><path fill="#806851" d="M252.5229949951172,100.61900329589844 C248.843994140625,101.98899841308594 244.60000610351562,99.96499633789062 241.91000366210938,97.50599670410156 C240.43800354003906,96.15799713134766 239.1959991455078,94.71600341796875 238.78298950195312,92.7249984741211 C238.3369903564453,90.5770034790039 239.11199951171875,88.26599884033203 237.91798400878906,86.29199981689453 C236.9849853515625,84.7509994506836 233.1479949951172,82.48899841308594 231.8560028076172,81.22899627685547 L242.4010009765625,86.89600372314453 C242.4010009765625,86.89600372314453 241.38800048828125,80.83599853515625 239.87100219726562,79.60299682617188 C240.73599243164062,80.30599975585938 247.0970001220703,83.5719985961914 248.5709991455078,84.1969985961914 C252.23300170898438,85.7490005493164 260.927001953125,88.24500274658203 259.05999755859375,93.91799926757812 C257.71600341796875,98.00299835205078 256.5740051269531,99.13099670410156 252.5229949951172,100.61900329589844 z" id="svg_14"></path></g><g id="svg_15" transform="rotate(25.918373107910156 169.41986083984372,197.81045532226565) " style="pointer-events:inherit"><path fill="none" stroke="#F9E6D6" stroke-width="12" stroke-linecap="round" stroke-miterlimit="10" d="M187.69200134277344,163.60499572753906 C187.69200134277344,163.60499572753906 146.71800231933594,208.53399658203125 146.71800231933594,240.9499969482422 " id="svg_16" transform="rotate(0.48605263233184814 201.99580383301526,166.19767761230298) " style="pointer-events:inherit"></path><path fill="none" stroke="#84BFA4" stroke-width="14" stroke-miterlimit="10" d="M192.7310028076172,155.12899780273438 C192.7310028076172,155.12899780273438 169.07901000976562,187.38699340820312 167.71400451660156,189.364990234375 " id="svg_17" transform="rotate(0.48605263233184814 207.10652160645424,157.7647247314447) " style="pointer-events:inherit"></path></g><g id="svg_18" opacity="undefined" transform="rotate(-32.20158386230469 298.42050170898443,206.70999145507812) " style="pointer-events:inherit"><path fill="none" stroke="#f9e6d6" stroke-width="12" stroke-linecap="round" stroke-miterlimit="10" d="M276.88800048828125,166.19400024414062 C276.88800048828125,166.19400024414062 295.36199951171875,234.4080047607422 324.27301025390625,256.0899963378906 " id="svg_19" style="pointer-events:inherit"></path><path fill="none" stroke="#84BFA4" stroke-width="14" stroke-miterlimit="10" d="M272.5679931640625,157.3300018310547 C272.5679931640625,157.3300018310547 286.552001953125,194.8070068359375 287.4570007324219,197.0330047607422 " id="svg_20" style="pointer-events:inherit"></path></g></g></g></svg>