<svg id="svgcontent" xmlns:xlink="http://www.w3.org/1999/xlink" x="0px" y="0px" width="500" height="500" viewBox="0 0 500 500" overflow="visible">
    <g style="pointer-events:all">
        <title style="pointer-events:inherit">Layer 1</title>
        <g style="pointer-events:inherit" id="svg_1">
            <path fill="none" stroke="#A7C8EB" stroke-width="2" stroke-miterlimit="10" stroke-dasharray="3.0186,3.0186" d="M359.49701,273.18799C359.49701,315.10999 325.51102,349.09698 283.59702,349.09698C241.66402,349.09698 207.687,315.10999 207.687,273.18799C207.687,231.28099 241.66499,197.29298 283.59702,197.29298C325.51099,197.29401 359.49701,231.28101 359.49701,273.18799z" style="pointer-events:inherit" id="svg_2"></path>
        </g>
        <g style="pointer-events:inherit" id="svg_3">
            <line fill="none" stroke="#153247" stroke-width="7" stroke-miterlimit="10" x1="282.347" y1="268.654" x2="256.094" y2="101.02" style="pointer-events:inherit" id="svg_4"></line>
            <path fill="#2D619B" d="M279.431,98.756C279.30701,112.517 267.883,123.562 253.903,123.436C239.93201,123.309 228.702,112.06 228.827,98.297C228.951,84.539 240.383,73.48 254.354,73.606C268.33401,73.731 279.55499,84.995 279.431,98.756z" style="pointer-events:inherit" id="svg_5"></path>
        </g>
        <g style="pointer-events:inherit" id="svg_6">
            <line fill="none" stroke="#153247" stroke-width="7" stroke-miterlimit="10" x1="285.071" y1="275.162" x2="426.84" y2="397.541" style="pointer-events:inherit" id="svg_7"></line>
            <path fill="#2D619B" d="M409.15399,415.901C399.40298,404.24799 400.94299,386.909 412.59299,377.15799C424.26199,367.39099 441.604,368.94699 451.336,380.59698C461.103,392.25 459.564,409.608 447.91199,419.341C436.24399,429.10699 418.923,427.552 409.15399,415.901z" style="pointer-events:inherit" id="svg_8"></path>
        </g>
        <g style="pointer-events:inherit" id="svg_9">
            <line fill="none" stroke="#153247" stroke-width="7" stroke-miterlimit="10" x1="285.477" y1="279.312" x2="188.485" y2="356.966" style="pointer-events:inherit" id="svg_10"></line>
            <path fill="#2D619B" d="M178.64799,343.20599C187.43098,338.26099 198.554,341.37198 203.50699,350.13898C208.45999,358.93799 205.34799,370.05399 196.56599,374.99698C187.79298,379.95898 176.64999,376.86499 171.71599,368.082C166.745,359.28201 169.86501,348.16699 178.64799,343.20599z" style="pointer-events:inherit" id="svg_11"></path>
        </g>
        <g style="pointer-events:inherit" id="svg_12">
            <line fill="none" stroke="#153247" stroke-width="7" stroke-miterlimit="10" x1="267.048" y1="270.389" x2="58.559" y2="150.983" style="pointer-events:inherit" id="svg_13"></line>
            <path fill="#2D619B" d="M102.764,153.87C101.475,173.54498 84.482,188.44501 64.808,187.14999C45.153,185.85199 30.259,168.87498 31.537,149.203C32.835,129.52901 49.836,114.644 69.484,115.924C89.149,117.221 104.06,134.19501 102.764,153.87z" style="pointer-events:inherit" id="svg_14"></path>
        </g>
        <g style="pointer-events:inherit" id="svg_15">
            <line fill="none" stroke="#59570E" stroke-width="4" stroke-miterlimit="10" x1="289.014" y1="301.335" x2="293.436" y2="361.801" style="pointer-events:inherit" id="svg_16"></line>
            <path fill="#2D619B" d="M285.18399,361.95401C285.62198,357.056 289.94901,353.44101 294.84299,353.87302C299.75,354.31302 303.36099,358.63702 302.92099,363.534C302.491,368.43301 298.168,372.06 293.272,371.617C288.35901,371.18399 284.75201,366.85699 285.18399,361.95401z" style="pointer-events:inherit" id="svg_17"></path>
        </g>
        <g style="pointer-events:inherit" id="svg_18">
            <line fill="none" stroke="#153247" stroke-width="4" stroke-miterlimit="10" x1="303.343" y1="271.327" x2="419.887" y2="190.812" style="pointer-events:inherit" id="svg_19"></line>
            <path fill="#9FE0CC" d="M429.97,207.25C419.58401,212.16701 407.181,207.733 402.254,197.366C397.328,186.961 401.76199,174.56799 412.146,169.653C422.52301,164.717 434.948,169.129 439.854,179.51401C444.797,189.92101 440.35501,202.312 429.97,207.25z" style="pointer-events:inherit" id="svg_20"></path>
        </g>
        <path fill="#2D619B" d="M330.11301,275.00601C330.11301,299.67599 310.13,319.66 285.46002,319.66C260.79901,319.66 240.79601,299.67599 240.79601,275.00601S260.798,230.31702 285.46002,230.31702C310.13,230.31599 330.11301,250.336 330.11301,275.00601z" style="pointer-events:inherit" id="svg_21"></path>
        <path fill="#F8DB7D" d="M301.83499,209.62399C302.68198,207.52998 305.065,206.51999 307.15799,207.36398C309.255,208.213 310.263,210.59399 309.41599,212.687C308.57199,214.78299 306.189,215.79799 304.09698,214.94899C301.99701,214.103 300.98999,211.72099 301.83499,209.62399z" style="pointer-events:inherit" id="svg_22"></path>
        <path fill="#F8DB7D" d="M308.63101,127.9C310.87,122.367 317.168,119.699 322.70001,121.928C328.24301,124.17 330.90802,130.46899 328.668,135.99699C326.43802,141.539 320.14001,144.22 314.60901,141.97501C309.05801,139.74001 306.39801,133.44299 308.63101,127.9z" style="pointer-events:inherit" id="svg_23"></path>
        <path fill="#F8DB7D" d="M286.40799,154.817C287.19901,152.86099 289.427,151.916 291.383,152.707C293.34399,153.49899 294.284,155.726 293.49298,157.68201C292.702,159.64 290.47598,160.586 288.522,159.79401C286.56,159.004 285.61899,156.776 286.40799,154.817z" style="pointer-events:inherit" id="svg_24"></path>
        <path fill="#F8DB7D" d="M157.092,321.82199C157.411,318.26099 160.554,315.63599 164.11,315.94901C167.67599,316.26898 170.3,319.41098 169.981,322.96899C169.668,326.53 166.528,329.164 162.97,328.84399C159.399,328.52701 156.778,325.38501 157.092,321.82199z" style="pointer-events:inherit" id="svg_25"></path>
        <path fill="#F8DB7D" d="M131.183,175.36C131.41901,172.714 133.754,170.763 136.397,170.99699C139.04601,171.23399 140.996,173.56799 140.758,176.21201C140.526,178.858 138.19299,180.815 135.55,180.576C132.897,180.342 130.95,178.007 131.183,175.36z" style="pointer-events:inherit" id="svg_26"></path>
        <path fill="#F8DB7D" d="M422.21899,337.82401C426.51398,336.56201 431.01599,339.021 432.28198,343.31C433.54599,347.61301 431.08798,352.11401 426.79498,353.371C422.5,354.642 417.98898,352.189 416.733,347.89401C415.461,343.59 417.922,339.09399 422.21899,337.82401z" style="pointer-events:inherit" id="svg_27"></path>
        <path fill="#F8DB7D" d="M328.61301,343.92999C331.45801,343.09198 334.44601,344.724 335.28201,347.56598C336.12201,350.41998 334.48901,353.39999 331.64301,354.23499C328.797,355.073 325.80902,353.44998 324.978,350.60498C324.134,347.754 325.767,344.771 328.61301,343.92999z" style="pointer-events:inherit" id="svg_28"></path>
        <path fill="#F8DB7D" d="M165.94299,232.373C166.78999,230.278 169.174,229.269 171.26599,230.11301C173.36299,230.96201 174.37199,233.343 173.52399,235.436C172.67999,237.53101 170.297,238.54601 168.20499,237.698C166.106,236.85201 165.099,234.47 165.94299,232.373z" style="pointer-events:inherit" id="svg_29"></path>
    </g>
</svg>
