<?xml version="1.0" encoding="utf-8"?>
<!-- Generator: Adobe Illustrator 16.0.0, SVG Export Plug-In . SVG Version: 6.00 Build 0)  -->
<!DOCTYPE svg PUBLIC "-//W3C//DTD SVG 1.1//EN" "http://www.w3.org/Graphics/SVG/1.1/DTD/svg11.dtd">
<svg version="1.1" id="Layer_1" xmlns="http://www.w3.org/2000/svg" xmlns:xlink="http://www.w3.org/1999/xlink" x="0px" y="0px"
	 width="500px" height="500px" viewBox="0 0 500 500" enable-background="new 0 0 500 500" xml:space="preserve">
<g>
	<path fill="none" stroke="#A7C8EB" stroke-width="2" stroke-miterlimit="10" stroke-dasharray="3.0186,3.0186" d="M359.497,273.188
		c0,41.922-33.986,75.909-75.9,75.909c-41.933,0-75.91-33.987-75.91-75.909c0-41.907,33.978-75.895,75.91-75.895
		C325.511,197.294,359.497,231.281,359.497,273.188z"/>
</g>
<g>
	<line fill="none" stroke="#153247" stroke-width="7" stroke-miterlimit="10" x1="282.347" y1="268.654" x2="256.094" y2="101.02"/>
	<path fill="#2D619B" d="M279.431,98.756c-0.124,13.761-11.548,24.806-25.528,24.68c-13.971-0.127-25.201-11.376-25.076-25.139
		c0.124-13.758,11.556-24.817,25.527-24.691C268.334,73.731,279.555,84.995,279.431,98.756z"/>
</g>
<g>
	<line fill="none" stroke="#153247" stroke-width="7" stroke-miterlimit="10" x1="285.071" y1="275.162" x2="426.84" y2="397.541"/>
	<path fill="#2D619B" d="M409.154,415.901c-9.751-11.653-8.211-28.992,3.439-38.743c11.669-9.767,29.011-8.211,38.743,3.439
		c9.767,11.653,8.228,29.011-3.424,38.744C436.244,429.107,418.923,427.552,409.154,415.901z"/>
</g>
<g>
	
		<line fill="none" stroke="#153247" stroke-width="7" stroke-miterlimit="10" x1="285.477" y1="279.312" x2="188.485" y2="356.966"/>
	<path fill="#2D619B" d="M178.648,343.206c8.783-4.945,19.906-1.834,24.859,6.933c4.953,8.799,1.841,19.915-6.941,24.858
		c-8.773,4.962-19.916,1.868-24.85-6.915C166.745,359.282,169.865,348.167,178.648,343.206z"/>
</g>
<g>
	<line fill="none" stroke="#153247" stroke-width="7" stroke-miterlimit="10" x1="267.048" y1="270.389" x2="58.559" y2="150.983"/>
	<path fill="#2D619B" d="M102.764,153.87c-1.289,19.675-18.282,34.575-37.956,33.28c-19.655-1.298-34.549-18.275-33.271-37.947
		c1.298-19.674,18.299-34.559,37.947-33.279C89.149,117.221,104.06,134.195,102.764,153.87z"/>
</g>
<g>
	
		<line fill="none" stroke="#59570E" stroke-width="4" stroke-miterlimit="10" x1="289.014" y1="301.335" x2="293.436" y2="361.801"/>
	<path fill="#2D619B" d="M285.184,361.954c0.438-4.898,4.765-8.513,9.659-8.081c4.907,0.44,8.518,4.764,8.078,9.661
		c-0.43,4.899-4.753,8.526-9.649,8.083C288.359,371.184,284.752,366.857,285.184,361.954z"/>
</g>
<g>
	
		<line fill="none" stroke="#153247" stroke-width="4" stroke-miterlimit="10" x1="303.343" y1="271.327" x2="419.887" y2="190.812"/>
	<path fill="#9FE0CC" d="M429.97,207.25c-10.386,4.917-22.789,0.483-27.716-9.884c-4.926-10.405-0.492-22.798,9.892-27.713
		c10.377-4.936,22.802-0.524,27.708,9.861C444.797,189.921,440.355,202.312,429.97,207.25z"/>
</g>
<path fill="#2D619B" d="M330.113,275.006c0,24.67-19.983,44.654-44.653,44.654c-24.661,0-44.664-19.984-44.664-44.654
	s20.002-44.689,44.664-44.689C310.13,230.316,330.113,250.336,330.113,275.006z"/>
<path fill="#F8DB7D" d="M301.835,209.624c0.847-2.094,3.23-3.104,5.323-2.26c2.097,0.849,3.105,3.23,2.258,5.323
	c-0.844,2.096-3.227,3.111-5.319,2.262C301.997,214.103,300.99,211.721,301.835,209.624z"/>
<path fill="#F8DB7D" d="M308.631,127.9c2.239-5.533,8.537-8.201,14.069-5.972c5.543,2.242,8.208,8.541,5.968,14.069
	c-2.23,5.542-8.528,8.223-14.059,5.978C309.058,139.74,306.398,133.443,308.631,127.9z"/>
<path fill="#F8DB7D" d="M286.408,154.817c0.791-1.956,3.019-2.901,4.975-2.11c1.961,0.792,2.901,3.019,2.11,4.975
	c-0.791,1.958-3.017,2.904-4.971,2.112C286.56,159.004,285.619,156.776,286.408,154.817z"/>
<path fill="#F8DB7D" d="M157.092,321.822c0.319-3.561,3.462-6.186,7.018-5.873c3.566,0.32,6.19,3.462,5.871,7.02
	c-0.313,3.561-3.453,6.195-7.011,5.875C159.399,328.527,156.778,325.385,157.092,321.822z"/>
<path fill="#F8DB7D" d="M131.183,175.36c0.236-2.646,2.571-4.597,5.214-4.363c2.649,0.237,4.599,2.571,4.361,5.215
	c-0.232,2.646-2.565,4.603-5.208,4.364C132.897,180.342,130.95,178.007,131.183,175.36z"/>
<path fill="#F8DB7D" d="M422.219,337.824c4.295-1.262,8.797,1.197,10.063,5.486c1.264,4.303-1.194,8.804-5.487,10.061
	c-4.295,1.271-8.806-1.182-10.062-5.477C415.461,343.59,417.922,339.094,422.219,337.824z"/>
<path fill="#F8DB7D" d="M328.613,343.93c2.845-0.838,5.833,0.794,6.669,3.636c0.84,2.854-0.793,5.834-3.639,6.669
	c-2.846,0.838-5.834-0.785-6.665-3.63C324.134,347.754,325.767,344.771,328.613,343.93z"/>
<path fill="#F8DB7D" d="M165.943,232.373c0.847-2.095,3.231-3.104,5.323-2.26c2.097,0.849,3.106,3.23,2.258,5.323
	c-0.844,2.095-3.227,3.11-5.319,2.262C166.106,236.852,165.099,234.47,165.943,232.373z"/>
</svg>
