<?xml version="1.0" encoding="utf-8"?>
<!DOCTYPE svg PUBLIC "-//W3C//DTD SVG 1.1//EN" "http://www.w3.org/Graphics/SVG/1.1/DTD/svg11.dtd">
<svg version="1.1" id="Layer_1" xmlns="http://www.w3.org/2000/svg" xmlns:xlink="http://www.w3.org/1999/xlink" x="0px" y="0px"
	 width="62.796px" height="62.304px" viewBox="0 0 62.796 62.304" enable-background="new 0 0 62.796 62.304" xml:space="preserve">
<path fill="#BABABA" d="M-211.882,61.785c-16.59,0-30.088-13.498-30.088-30.089s13.498-30.089,30.088-30.089
	c16.592,0,30.089,13.498,30.089,30.089S-195.29,61.785-211.882,61.785z M-211.882,3.607c-15.487,0-28.088,12.601-28.088,28.089
	s12.601,28.089,28.088,28.089c15.488,0,28.089-12.601,28.089-28.089S-196.394,3.607-211.882,3.607z"/>
<path fill="#BABABA" d="M31.63,60.887c-16.591,0-30.088-13.498-30.088-30.089S15.039,0.71,31.63,0.71s30.088,13.497,30.088,30.088
	S48.221,60.887,31.63,60.887z M31.63,2.71c-15.487,0-28.088,12.601-28.088,28.088c0,15.488,12.601,28.089,28.088,28.089
	s28.088-12.601,28.088-28.089C59.718,15.311,47.117,2.71,31.63,2.71z"/>
<path fill="#BABABA" d="M-46.87,60.177c-16.591,0-30.089-13.497-30.089-30.087C-76.959,13.498-63.461,0-46.87,0
	s30.089,13.498,30.089,30.09C-16.781,46.68-30.279,60.177-46.87,60.177z M-46.87,2c-15.488,0-28.089,12.601-28.089,28.09
	c0,15.487,12.601,28.087,28.089,28.087s28.089-12.6,28.089-28.087C-18.781,14.601-31.382,2-46.87,2z"/>
<g>
	<path id="allo" class="gg" fill="#BABABA" d="M25.551,41.49c0,0-0.212,6.723,6.314,6.723c6.213,0,6.406-5.605,6.316-6.771"/>
	<path fill="#BABABA" d="M23.534,30.665l-2.104-0.32c0.079-0.548,0.11-2.182-0.698-3.1c-0.479-0.544-1.2-0.804-2.226-0.781
		c-1.065,0.018-1.825,0.313-2.324,0.899c-0.935,1.104-0.697,2.928-0.693,2.945l-2.108,0.311c-0.018-0.112-0.389-2.787,1.179-4.635
		c0.905-1.065,2.221-1.621,3.911-1.649c1.647-0.018,2.966,0.48,3.871,1.515C23.965,27.706,23.554,30.546,23.534,30.665z"/>
	<path fill="#BABABA" d="M48.599,30.114l-2.105-0.319c0.08-0.549,0.109-2.183-0.698-3.1c-0.479-0.545-1.226-0.807-2.225-0.783
		c-1.062,0.019-1.82,0.311-2.317,0.894c-0.946,1.104-0.705,2.938-0.701,2.957l-2.109,0.304c-0.018-0.11-0.389-2.784,1.18-4.632
		c0.904-1.067,2.221-1.622,3.91-1.651c1.679-0.02,2.967,0.48,3.872,1.515C49.027,27.156,48.617,29.995,48.599,30.114z"/>
</g>
<path fill="#2472B2" d="M-292.179,61.728c-17.156,0-31.113-13.957-31.113-31.113c0-17.155,13.957-31.112,31.113-31.112
	c17.155,0,31.112,13.957,31.112,31.112C-261.066,47.771-275.023,61.728-292.179,61.728z M-292.179,1.502
	c-16.053,0-29.113,13.06-29.113,29.112s13.061,29.113,29.113,29.113s29.112-13.061,29.112-29.113S-276.126,1.502-292.179,1.502z"/>
<g>
	<g>
		<path fill="#2472B2" d="M-282.159,46.751c-0.101-0.346-2.57-8.634-10.178-8.634c-0.063,0-0.123,0-0.187,0
			c-7.723,1-9.584,8.158-9.659,8.492l-2.152-0.378c0.021-0.099,2.297-9.797,11.773-9.959c0.076-0.002,0.151,0.024,0.227,0.024
			c9.273,0,12.265,9.827,12.294,9.928L-282.159,46.751z"/>
		<path fill="#2472B2" d="M-281.483,24.581c0.849,2.144,3.27,3.19,5.412,2.346c2.141-0.849,3.19-3.268,2.344-5.409
			c-0.16-0.404-0.375-0.769-0.634-1.091l-7.401,2.928C-281.734,23.764-281.642,24.178-281.483,24.581z"/>
		<path fill="#2472B2" d="M-302.567,24.734c-0.848,2.144-3.27,3.193-5.411,2.347c-2.141-0.847-3.19-3.27-2.345-5.411
			c0.16-0.403,0.375-0.768,0.635-1.088l7.402,2.927C-302.317,23.92-302.409,24.332-302.567,24.734z"/>
	</g>
</g>
<g>
	<circle fill="#BABABA" cx="-222.579" cy="25.197" r="3.131"/>
	<circle fill="#BABABA" cx="-202.595" cy="24.927" r="4.185"/>
	<path fill="#BABABA" d="M-211.014,43.396c-1.089,0-2.229-0.572-3.345-1.131c-2.766-1.392-4.415-2.027-6.105,1.015l-1.861-1.035
		c2.766-4.978,6.621-3.039,8.924-1.885c1.038,0.522,2.216,1.112,2.69,0.828c0.336-0.2,0.664-0.438,0.981-0.667
		c1.52-1.099,3.408-2.464,6.719,0.017l-1.277,1.704c-2.055-1.54-2.771-1.023-4.193,0.006c-0.354,0.255-0.721,0.52-1.135,0.768
		C-210.067,43.287-210.535,43.396-211.014,43.396z"/>
</g>
<path fill="#BABABA" d="M-128.011,61.597c-16.591,0-30.088-13.497-30.088-30.088S-144.602,1.42-128.011,1.42
	s30.088,13.498,30.088,30.089S-111.42,61.597-128.011,61.597z M-128.011,3.42c-15.488,0-28.088,12.601-28.088,28.089
	c0,15.487,12.6,28.088,28.088,28.088c15.487,0,28.088-12.601,28.088-28.088C-99.923,16.021-112.523,3.42-128.011,3.42z"/>
<g>
	<path fill="#BABABA" d="M-136.274,25.62c0,2.12-1.721,3.837-3.841,3.837s-3.841-1.717-3.841-3.837c0-2.124,1.721-3.843,3.841-3.843
		S-136.274,23.496-136.274,25.62z"/>
	<circle fill="#BABABA" cx="-117.63" cy="24.924" r="3.668"/>
	<rect x="-135.597" y="41.117" fill="#BABABA" width="13" height="2"/>
</g>
<g>
	<circle fill="#BABABA" cx="-64.833" cy="25.373" r="3.814"/>
	<circle fill="#BABABA" cx="-28.802" cy="25.791" r="4.134"/>
	<path fill="#BABABA" d="M-46.59,51.811c-17.343,0-19.907-16.043-19.932-16.205l2.107-0.311l-1.054,0.155l1.054-0.158
		c0.089,0.589,2.348,14.389,17.824,14.389c15.841,0,17.956-13.791,18.038-14.378l2.109,0.296
		C-26.466,35.76-28.919,51.811-46.59,51.811z"/>
</g>
</svg>
