<?xml version="1.0" encoding="utf-8"?>
<!DOCTYPE svg PUBLIC "-//W3C//DTD SVG 1.1//EN" "http://www.w3.org/Graphics/SVG/1.1/DTD/svg11.dtd">
<svg version="1.1" id="Layer_1" xmlns="http://www.w3.org/2000/svg" xmlns:xlink="http://www.w3.org/1999/xlink" x="0px" y="0px"
	 width="62.796px" height="62.304px" viewBox="0 0 62.796 62.304" enable-background="new 0 0 62.796 62.304" xml:space="preserve">
<path fill="#BABABA" d="M-211.882,61.785c-16.59,0-30.088-13.498-30.088-30.089s13.498-30.089,30.088-30.089
	c16.592,0,30.089,13.498,30.089,30.089S-195.29,61.785-211.882,61.785z M-211.882,3.607c-15.487,0-28.088,12.601-28.088,28.089
	s12.601,28.089,28.088,28.089c15.488,0,28.089-12.601,28.089-28.089S-196.394,3.607-211.882,3.607z"/>
<path fill="#BABABA" d="M31.63,60.887c-16.591,0-30.088-13.498-30.088-30.089S15.039,0.71,31.63,0.71s30.088,13.497,30.088,30.088
	S48.221,60.887,31.63,60.887z M31.63,2.71c-15.487,0-28.088,12.601-28.088,28.088c0,15.488,12.601,28.089,28.088,28.089
	s28.088-12.601,28.088-28.089C59.718,15.311,47.117,2.71,31.63,2.71z"/>
<path fill="#BABABA" d="M-46.87,60.177c-16.591,0-30.089-13.497-30.089-30.087C-76.959,13.498-63.461,0-46.87,0
	s30.089,13.498,30.089,30.09C-16.781,46.68-30.279,60.177-46.87,60.177z M-46.87,2c-15.488,0-28.089,12.601-28.089,28.09
	c0,15.487,12.601,28.087,28.089,28.087s28.089-12.6,28.089-28.087C-18.781,14.601-31.382,2-46.87,2z"/>
<g>
	<path id="allo" class="gg" fill="#BABABA" d="M25.551,41.49c0,0-0.212,6.723,6.314,6.723c6.213,0,6.406-5.605,6.316-6.771"/>
	<path fill="#BABABA" d="M23.534,30.665l-2.104-0.32c0.079-0.548,0.11-2.182-0.698-3.1c-0.479-0.544-1.2-0.804-2.226-0.781
		c-1.065,0.018-1.825,0.313-2.324,0.899c-0.935,1.104-0.697,2.928-0.693,2.945l-2.108,0.311c-0.018-0.112-0.389-2.787,1.179-4.635
		c0.905-1.065,2.221-1.621,3.911-1.649c1.647-0.018,2.966,0.48,3.871,1.515C23.965,27.706,23.554,30.546,23.534,30.665z"/>
	<path fill="#BABABA" d="M48.599,30.114l-2.105-0.319c0.08-0.549,0.109-2.183-0.698-3.1c-0.479-0.545-1.226-0.807-2.225-0.783
		c-1.062,0.019-1.82,0.311-2.317,0.894c-0.946,1.104-0.705,2.938-0.701,2.957l-2.109,0.304c-0.018-0.11-0.389-2.784,1.18-4.632
		c0.904-1.067,2.221-1.622,3.91-1.651c1.679-0.02,2.967,0.48,3.872,1.515C49.027,27.156,48.617,29.995,48.599,30.114z"/>
</g>
<circle cx="5" cy="5" r="5"></circle>

</svg>
