<?xml version="1.0" encoding="utf-8"?>
<!-- Generator: Adobe Illustrator 16.0.0, SVG Export Plug-In . SVG Version: 6.00 Build 0)  -->
<!DOCTYPE svg PUBLIC "-//W3C//DTD SVG 1.1//EN" "http://www.w3.org/Graphics/SVG/1.1/DTD/svg11.dtd">
<svg version="1.1" id="Layer_1" xmlns="http://www.w3.org/2000/svg" xmlns:xlink="http://www.w3.org/1999/xlink" x="0px" y="0px"
	 width="389px" height="306px" viewBox="0 0 389 306" enable-background="new 0 0 389 306" xml:space="preserve">
<path fill="#74B588" d="M120.946,103.877C115,99.423,98,96,98,96v-8.018c0,0,21.098-3.517,24.09-25.775
	c3.179-0.31,6.487-1.496,6.487-5.002c0-4.121-3.22-4.938-5.925-4.919c-0.009-0.2,0.023-0.39,0.012-0.592
	c-1.695-30.508-31.18-32.424-31.18-32.424s-29.492,1.916-31.187,32.424c-0.015,0.268-0.011,0.519-0.022,0.782
	c-2.555-0.406-8.265-0.71-8.265,4.729c0,4.368,4.692,5.134,8.408,5.093C63.443,84.48,84,87.983,84,87.983V96
	c0,0-15.069,4.135-21.487,7.877C52.011,110,54.746,129,54.746,129H91.5h35.672C127.172,129,129.12,110,120.946,103.877z"/>
<circle fill="#273F2D" cx="80.388" cy="61.309" r="4.588"/>
<circle fill="#273F2D" cx="103.188" cy="61.586" r="4.866"/>
<path fill="#51A869" d="M115.054,37c0,0,1.108,21.149-0.127,27.681c-1.106,5.85-9.103,25.027-42.061,18.424
	c0,0,19.093,12.925,37.509-0.985c17.249-13.029,12.168-37.837,11.441-29.41S119.032,37,119.032,37H115.054z"/>
<path fill="#273F2D" d="M80.817,34.825C84.975,47.594,112,44.297,112,44.297c0,13.738,9.287,22.242,9.287,22.242
	S133.08,19.271,91.5,19.271c-36.449,0-32.268,32.538-32.268,32.538s10.301,4.991,12.677-12.232L80.817,34.825z"/>
<path fill="#74B588" d="M59.297,51.695"/>
<path fill="#74B588" d="M121.664,51.695"/>
<path fill="none" stroke="#74B588" stroke-width="12" stroke-miterlimit="10" d="M68,112c-19.708-6-41-14.279-29-53.279"/>
<path fill="none" stroke="#74B588" stroke-width="12" stroke-miterlimit="10" d="M119,110c33.102-15,33-35.864,21-58.305"/>
<g id="dialogBox">
	<rect x="29" y="115" fill="#273F2D" width="360" height="191"/>
	<rect x="135" y="235" fill="#74B588" width="126" height="37"/>
	<rect x="135" y="272" fill="#51A869" width="126" height="5"/>
	<g>
		<path fill="#FFFFFF" d="M182.101,260.938c-0.504,0.252-1.639,0.522-3.115,0.522c-4.195,0-6.356-2.61-6.356-6.067
			c0-4.142,2.953-6.446,6.626-6.446c1.422,0,2.502,0.288,2.989,0.54l-0.558,2.179c-0.558-0.234-1.333-0.45-2.305-0.45
			c-2.179,0-3.871,1.314-3.871,4.016c0,2.43,1.44,3.961,3.889,3.961c0.828,0,1.746-0.18,2.287-0.396L182.101,260.938z"/>
		<path fill="#FFFFFF" d="M183.898,249.145h2.755v9.83h4.825v2.305h-7.58V249.145z"/>
		<path fill="#FFFFFF" d="M203.521,255.086c0,3.979-2.413,6.393-5.96,6.393c-3.601,0-5.708-2.72-5.708-6.177
			c0-3.637,2.323-6.355,5.906-6.355C201.486,248.946,203.521,251.736,203.521,255.086z M194.753,255.248
			c0,2.377,1.116,4.051,2.952,4.051c1.855,0,2.918-1.764,2.918-4.123c0-2.179-1.045-4.051-2.936-4.051
			C195.833,251.125,194.753,252.889,194.753,255.248z"/>
		<path fill="#FFFFFF" d="M205.408,258.453c0.738,0.378,1.872,0.756,3.043,0.756c1.26,0,1.926-0.521,1.926-1.314
			c0-0.756-0.576-1.188-2.034-1.711c-2.017-0.701-3.331-1.818-3.331-3.582c0-2.07,1.729-3.655,4.592-3.655
			c1.368,0,2.376,0.288,3.097,0.612l-0.612,2.215c-0.486-0.234-1.351-0.576-2.539-0.576c-1.188,0-1.764,0.539-1.764,1.17
			c0,0.774,0.684,1.116,2.25,1.711c2.143,0.792,3.15,1.908,3.15,3.619c0,2.034-1.566,3.763-4.896,3.763
			c-1.387,0-2.756-0.36-3.439-0.738L205.408,258.453z"/>
		<path fill="#FFFFFF" d="M222.258,256.148h-4.465v2.881h4.986v2.25h-7.742v-12.135h7.49v2.25h-4.734v2.521h4.465V256.148z"/>
	</g>
	<g>
		<path fill="#FFFFFF" d="M102.349,177.967v5.182h5.021v-5.182h3.041v13.482h-3.041v-5.641h-5.021v5.641h-3.061v-13.482H102.349z"/>
		<path fill="#FFFFFF" d="M122.57,186.449c0,3.58-2.541,5.221-5.161,5.221c-2.86,0-5.061-1.881-5.061-5.041
			c0-3.161,2.081-5.182,5.221-5.182C120.57,181.447,122.57,183.508,122.57,186.449z M115.489,186.549c0,1.68,0.7,2.94,2,2.94
			c1.18,0,1.94-1.181,1.94-2.94c0-1.461-0.56-2.941-1.94-2.941C116.029,183.607,115.489,185.108,115.489,186.549z"/>
		<path fill="#FFFFFF" d="M126.369,181.668l0.78,4c0.2,1.021,0.4,2.102,0.56,3.221h0.04c0.2-1.119,0.48-2.24,0.72-3.2l1.04-4.021
			h2.4l0.98,3.9c0.26,1.1,0.52,2.201,0.72,3.32h0.04c0.14-1.119,0.34-2.221,0.561-3.34l0.84-3.881h2.981l-3.001,9.781h-2.86
			l-0.92-3.44c-0.24-0.96-0.42-1.841-0.62-3.04h-0.04c-0.18,1.22-0.38,2.12-0.64,3.04l-0.98,3.44h-2.861l-2.84-9.781H126.369z"/>
		<path fill="#FFFFFF" d="M148.63,177.246v11.283c0,1.1,0.04,2.26,0.08,2.92h-2.701l-0.14-1.439h-0.04
			c-0.62,1.1-1.801,1.66-3.061,1.66c-2.32,0-4.181-1.98-4.181-5.021c-0.02-3.301,2.041-5.201,4.381-5.201
			c1.2,0,2.141,0.42,2.581,1.101h0.04v-5.302H148.63z M145.59,185.809c0-0.16-0.02-0.381-0.04-0.54
			c-0.18-0.82-0.84-1.501-1.78-1.501c-1.38,0-2.101,1.24-2.101,2.781c0,1.66,0.82,2.7,2.081,2.7c0.88,0,1.58-0.601,1.76-1.46
			c0.06-0.221,0.08-0.44,0.08-0.7V185.809z"/>
		<path fill="#FFFFFF" d="M153.349,181.668l1.46,4.801c0.16,0.58,0.36,1.301,0.48,1.82h0.06c0.14-0.52,0.3-1.26,0.44-1.82l1.2-4.801
			h3.261l-2.281,6.441c-1.4,3.881-2.34,5.441-3.44,6.421c-1.061,0.921-2.181,1.24-2.941,1.341l-0.64-2.581
			c0.38-0.06,0.86-0.24,1.32-0.521c0.46-0.24,0.96-0.72,1.26-1.22c0.1-0.14,0.16-0.3,0.16-0.44c0-0.1-0.02-0.26-0.14-0.5
			l-3.581-8.941H153.349z"/>
		<path fill="#FFFFFF" d="M159.388,193.83c0.62-1.78,1.16-3.861,1.44-5.682l3.101-0.199c-0.66,2.04-1.561,4.141-2.521,5.701
			L159.388,193.83z"/>
		<path fill="#FFFFFF" d="M172.208,179.047c0.02,0.6-0.42,1.08-1.121,1.08c-0.62,0-1.06-0.48-1.06-1.08c0-0.62,0.46-1.1,1.1-1.1
			C171.788,177.947,172.208,178.427,172.208,179.047z M170.248,191.449v-9.682h1.76v9.682H170.248z"/>
		<path fill="#FFFFFF" d="M177.288,177.746c-0.46,1.682-1.32,3.821-1.88,4.742l-1.12,0.14c0.44-1.181,0.96-3.261,1.18-4.701
			L177.288,177.746z"/>
		<path fill="#FFFFFF" d="M178.427,184.389c0-1-0.02-1.82-0.08-2.621h1.54l0.08,1.561h0.06c0.54-0.92,1.44-1.781,3.041-1.781
			c1.32,0,2.321,0.801,2.741,1.941h0.04c0.3-0.541,0.68-0.961,1.08-1.261c0.581-0.44,1.221-0.681,2.141-0.681
			c1.28,0,3.181,0.841,3.181,4.201v5.701h-1.72v-5.48c0-1.861-0.68-2.98-2.101-2.98c-1,0-1.78,0.74-2.081,1.6
			c-0.08,0.24-0.14,0.561-0.14,0.881v5.98h-1.721v-5.801c0-1.541-0.68-2.66-2.021-2.66c-1.1,0-1.9,0.88-2.18,1.76
			c-0.1,0.26-0.14,0.561-0.14,0.86v5.841h-1.72V184.389z"/>
		<path fill="#FFFFFF" d="M204.708,191.449l-0.14-1.22h-0.061c-0.539,0.761-1.58,1.44-2.961,1.44c-1.96,0-2.96-1.381-2.96-2.781
			c0-2.34,2.081-3.62,5.821-3.6v-0.201c0-0.8-0.221-2.24-2.201-2.24c-0.899,0-1.84,0.28-2.52,0.721l-0.4-1.16
			c0.801-0.521,1.961-0.861,3.181-0.861c2.96,0,3.681,2.021,3.681,3.961v3.621c0,0.84,0.04,1.66,0.16,2.32H204.708z
			 M204.448,186.509c-1.921-0.04-4.101,0.3-4.101,2.181c0,1.141,0.76,1.68,1.66,1.68c1.26,0,2.061-0.8,2.34-1.62
			c0.061-0.18,0.101-0.38,0.101-0.56V186.509z"/>
		<path fill="#FFFFFF" d="M221.588,177.246v11.703c0,0.86,0.021,1.84,0.08,2.5h-1.58l-0.08-1.68h-0.04
			c-0.54,1.08-1.72,1.9-3.301,1.9c-2.341,0-4.141-1.98-4.141-4.922c-0.021-3.221,1.98-5.201,4.341-5.201
			c1.48,0,2.48,0.701,2.92,1.48h0.041v-5.781H221.588z M219.828,185.709c0-0.221-0.021-0.521-0.08-0.74
			c-0.26-1.121-1.221-2.041-2.541-2.041c-1.82,0-2.9,1.601-2.9,3.74c0,1.961,0.961,3.582,2.861,3.582c1.18,0,2.26-0.781,2.58-2.102
			c0.06-0.239,0.08-0.479,0.08-0.76V185.709z"/>
		<path fill="#FFFFFF" d="M226.467,179.047c0.02,0.6-0.42,1.08-1.121,1.08c-0.619,0-1.06-0.48-1.06-1.08c0-0.62,0.46-1.1,1.101-1.1
			C226.047,177.947,226.467,178.427,226.467,179.047z M224.506,191.449v-9.682h1.761v9.682H224.506z"/>
		<path fill="#FFFFFF" d="M234.547,191.449l-0.14-1.22h-0.06c-0.541,0.761-1.581,1.44-2.961,1.44c-1.961,0-2.961-1.381-2.961-2.781
			c0-2.34,2.08-3.62,5.821-3.6v-0.201c0-0.8-0.22-2.24-2.2-2.24c-0.9,0-1.841,0.28-2.521,0.721l-0.399-1.16
			c0.8-0.521,1.96-0.861,3.181-0.861c2.961,0,3.681,2.021,3.681,3.961v3.621c0,0.84,0.04,1.66,0.16,2.32H234.547z M234.287,186.509
			c-1.92-0.04-4.102,0.3-4.102,2.181c0,1.141,0.761,1.68,1.661,1.68c1.261,0,2.06-0.8,2.341-1.62c0.06-0.18,0.1-0.38,0.1-0.56
			V186.509z"/>
		<path fill="#FFFFFF" d="M238.826,177.246h1.76v14.203h-1.76V177.246z"/>
		<path fill="#FFFFFF" d="M252.307,186.529c0,3.58-2.48,5.141-4.82,5.141c-2.621,0-4.641-1.92-4.641-4.981
			c0-3.24,2.119-5.142,4.801-5.142C250.426,181.547,252.307,183.568,252.307,186.529z M244.625,186.629
			c0,2.12,1.221,3.721,2.941,3.721c1.68,0,2.939-1.58,2.939-3.761c0-1.641-0.818-3.722-2.9-3.722
			C245.525,182.867,244.625,184.788,244.625,186.629z"/>
		<path fill="#FFFFFF" d="M262.867,181.768c-0.041,0.7-0.08,1.48-0.08,2.66v5.621c0,2.221-0.439,3.582-1.381,4.422
			c-0.939,0.88-2.301,1.16-3.52,1.16c-1.16,0-2.441-0.28-3.221-0.801l0.439-1.34c0.641,0.4,1.641,0.76,2.84,0.76
			c1.801,0,3.121-0.939,3.121-3.381v-1.08h-0.039c-0.541,0.9-1.58,1.621-3.082,1.621c-2.4,0-4.121-2.041-4.121-4.722
			c0-3.28,2.141-5.142,4.361-5.142c1.682,0,2.602,0.881,3.021,1.682h0.039l0.08-1.461H262.867z M261.047,185.588
			c0-0.299-0.02-0.56-0.1-0.8c-0.32-1.021-1.182-1.86-2.461-1.86c-1.68,0-2.881,1.42-2.881,3.661c0,1.9,0.961,3.48,2.861,3.48
			c1.08,0,2.061-0.681,2.439-1.8c0.1-0.301,0.141-0.641,0.141-0.941V185.588z"/>
		<path fill="#FFFFFF" d="M269.865,191.449c0.039-0.66,0.08-1.64,0.08-2.5v-11.703h1.74v6.082h0.039
			c0.621-1.08,1.742-1.781,3.301-1.781c2.402,0,4.102,2.001,4.082,4.941c0,3.461-2.182,5.182-4.342,5.182
			c-1.4,0-2.52-0.54-3.24-1.82h-0.061l-0.08,1.6H269.865z M271.686,187.568c0,0.221,0.039,0.44,0.08,0.641
			c0.34,1.221,1.359,2.061,2.641,2.061c1.84,0,2.941-1.5,2.941-3.721c0-1.94-1.002-3.602-2.881-3.602
			c-1.201,0-2.32,0.82-2.682,2.161c-0.039,0.2-0.1,0.44-0.1,0.72V187.568z"/>
		<path fill="#FFFFFF" d="M290.088,186.529c0,3.58-2.482,5.141-4.822,5.141c-2.621,0-4.641-1.92-4.641-4.981
			c0-3.24,2.121-5.142,4.801-5.142C288.207,181.547,290.088,183.568,290.088,186.529z M282.406,186.629
			c0,2.12,1.219,3.721,2.939,3.721c1.68,0,2.941-1.58,2.941-3.761c0-1.641-0.82-3.722-2.9-3.722
			C283.305,182.867,282.406,184.788,282.406,186.629z"/>
		<path fill="#FFFFFF" d="M292.844,181.768l1.381,2.08c0.359,0.541,0.66,1.041,0.98,1.58h0.061c0.32-0.58,0.639-1.08,0.959-1.6
			l1.361-2.061h1.9l-3.301,4.682l3.4,5h-2l-1.42-2.18c-0.381-0.561-0.701-1.101-1.041-1.681h-0.041
			c-0.318,0.58-0.66,1.101-1.02,1.681l-1.4,2.18h-1.939l3.439-4.94l-3.279-4.741H292.844z"/>
	</g>
</g>
</svg>
