<?xml version="1.0" encoding="utf-8"?>
<!-- Generator: Adobe Illustrator 16.0.0, SVG Export Plug-In . SVG Version: 6.00 Build 0)  -->
<!DOCTYPE svg PUBLIC "-//W3C//DTD SVG 1.1//EN" "http://www.w3.org/Graphics/SVG/1.1/DTD/svg11.dtd">
<svg version="1.1" xmlns="http://www.w3.org/2000/svg" xmlns:xlink="http://www.w3.org/1999/xlink" x="0px" y="0px" width="244px"
	 height="282px" viewBox="0 0 244 282" enable-background="new 0 0 244 282" xml:space="preserve">
<g id="Decor">
	<circle id="focus" opacity="0" fill="#FFE9D2" cx="112.099" cy="152.099" r="69.099"/>
	<ellipse id="shadow_2_" opacity="0" fill="#E4D7AB" cx="111.988" cy="231.045" rx="39.312" ry="6.045"/>
</g>
<g id="Layer_2">
	<g id="character_2_">
		<g id="Legs2_2_" display="none">
			<g display="inline">
				<rect x="94" y="182" width="9" height="44"/>
				<polygon points="89.531,231 93.85,225 103.324,225 105,231 				"/>
			</g>
			<g display="inline">
				<rect x="122" y="182" width="9" height="44"/>
				<polygon points="120.531,231 121.85,225 131.324,225 135,231 				"/>
			</g>
		</g>
		<g id="Legs1_2_" display="none">
			<g display="inline">
				<rect x="91.423" y="179.887" transform="matrix(0.9638 0.2667 -0.2667 0.9638 57.321 -18.2708)" width="9" height="44"/>
				<polygon points="72.04,217.066 85.839,220.886 94.97,223.413 94.021,229.376 				"/>
			</g>
			<g display="inline">
				<rect x="119.523" y="179.279" transform="matrix(0.9404 -0.3401 0.3401 0.9404 -61.0544 54.1693)" width="9" height="44.001"/>
				<polygon points="128.531,228.36 126.791,222.609 135.701,219.388 148.301,216.959 				"/>
			</g>
		</g>
		<g id="Body3_2_" display="none">
			<g display="inline">
				<path fill="#F14263" d="M73.044,201.93c-4.425-2.655-15.575-97.346,41.069-97.346c4.57,0,25.685-4.396,29.384-3.283
					c2.273,0.684-12.611,6.559-10.642,7.604c34.91,18.544,23.573,90.607,18.949,94.204
					C146.496,207.239,77.469,204.585,73.044,201.93z"/>
				<g display="none">
					<defs>
						<path id="SVGID_1_" d="M73.044,201.93c-4.425-2.655-15.575-97.346,41.069-97.346c4.57,0,25.685-4.396,29.384-3.283
							c2.273,0.684-12.611,6.559-10.642,7.604c34.91,18.544,23.573,90.607,18.949,94.204
							C146.496,207.239,77.469,204.585,73.044,201.93z"/>
					</defs>
					<clipPath id="SVGID_2_" display="inline">
						<use xlink:href="#SVGID_1_"  overflow="visible"/>
					</clipPath>
					
						<linearGradient id="ColorMask_3_" gradientUnits="userSpaceOnUse" x1="399.0313" y1="106.3013" x2="231.7403" y2="227.3461" gradientTransform="matrix(0.8693 -0.2193 0.2174 0.8616 -196.9219 69.9458)">
						<stop  offset="0" style="stop-color:#FFFFFF"/>
						<stop  offset="1" style="stop-color:#FFFFFF;stop-opacity:0"/>
					</linearGradient>
					<path id="ColorMask_2_" display="inline" clip-path="url(#SVGID_2_)" fill="url(#ColorMask_3_)" d="M203.241,121.856
						c12.395,49.123-17.736,99.083-67.298,111.588c-49.563,12.506-99.789-17.178-112.184-66.301
						C11.364,118.021,41.494,68.061,91.056,55.555C140.62,43.049,190.847,72.733,203.241,121.856z"/>
				</g>
			</g>
			<path display="inline" opacity="0.07" d="M73.044,201.93c-4.425-2.655-15.575-97.346,41.069-97.346
				c4.57,0,25.685-4.396,29.384-3.283c2.273,0.684-19.702,5.614-21.932,5.618c-32.042,0.057-41.941,54.205-29.035,95.065
				C92.531,201.984,74.837,203.006,73.044,201.93z"/>
		</g>
		<g id="Body2_2_" display="none">
			<g display="inline">
				<path fill="#FCA40F" d="M68.241,142.561c0-28.41,24.381-51.44,43.44-51.44c14.819,0,40.44,23.03,40.44,51.44
					c0,28.409-13.031,49.439-41.44,49.439C82.271,192,68.241,170.97,68.241,142.561z"/>
				<g display="none">
					<defs>
						<path id="SVGID_3_" d="M68.241,142.561c0-28.41,24.381-51.44,43.44-51.44c14.819,0,40.44,23.03,40.44,51.44
							c0,28.409-13.031,49.439-41.44,49.439C82.271,192,68.241,170.97,68.241,142.561z"/>
					</defs>
					<clipPath id="SVGID_4_" display="inline">
						<use xlink:href="#SVGID_3_"  overflow="visible"/>
					</clipPath>
					
						<linearGradient id="ColorMask_4_" gradientUnits="userSpaceOnUse" x1="397.6865" y1="102.4761" x2="230.3957" y2="223.5208" gradientTransform="matrix(0.8693 -0.2193 0.2174 0.8616 -196.9219 69.9458)">
						<stop  offset="0" style="stop-color:#FFFFFF"/>
						<stop  offset="1" style="stop-color:#FFFFFF;stop-opacity:0"/>
					</linearGradient>
					<path id="ColorMask_1_" display="inline" clip-path="url(#SVGID_4_)" fill="url(#ColorMask_4_)" d="M201.241,118.856
						c12.395,49.123-17.736,99.083-67.298,111.588c-49.563,12.506-99.789-17.178-112.184-66.301
						C9.364,115.021,39.494,65.061,89.056,52.555C138.62,40.049,188.847,69.733,201.241,118.856z"/>
				</g>
			</g>
			<path display="inline" opacity="0.07" d="M68.241,142.561c0-28.41,24.381-51.44,43.44-51.44c-0.893,0-2.933,1.979-3.581,2.458
				c-3.193,2.36-6.095,5.082-8.704,8.073c-14.212,16.292-25.221,42.935-16.561,64.397c5.29,13.108,15.361,20.036,27.709,25.951
				c-2.254-1.08-6.274-0.744-8.785-1.166c-2.637-0.442-5.269-0.986-7.813-1.818c-4.26-1.393-8.09-3.6-11.296-6.743
				c-6.117-5.998-10.561-14.355-12.583-22.636C68.721,154.124,68.241,148.229,68.241,142.561z"/>
			<g display="inline">
				<g>
					<path fill="none" stroke="#000000" stroke-width="2" stroke-miterlimit="10" d="M94,101.638c0,0-14.174-28.699-18.101-22.053
						c-3.928,6.646,0,8.019,0,8.019"/>
					<circle cx="74.563" cy="86.225" r="2.887"/>
					
						<ellipse transform="matrix(0.8368 -0.5475 0.5475 0.8368 -40.1282 68.0832)" opacity="0.15" cx="94.137" cy="101.352" rx="2.636" ry="1.385"/>
				</g>
				<g>
					<path fill="none" stroke="#000000" stroke-width="2" stroke-miterlimit="10" d="M127.146,101.638
						c0,0,14.174-28.699,18.101-22.053c3.928,6.646,0,8.019,0,8.019"/>
					<circle cx="146.584" cy="86.225" r="2.887"/>
					
						<ellipse transform="matrix(-0.8368 -0.5475 0.5475 -0.8368 177.7978 255.7023)" opacity="0.15" cx="127.009" cy="101.352" rx="2.636" ry="1.385"/>
				</g>
			</g>
		</g>
		<g id="Body1_2_" display="none">
			<g display="inline">
				<path fill="#CE4A0C" d="M69.241,160.561c5.125-27.944,23.381-51.44,42.44-51.44c1.838,0,17.218-2.58,19.319-1.905
					c1.655,0.532-10.005,4.197-8.264,5.11c13.868,7.274,29.385,26.126,29.385,48.235c0,13.81-3.079,27.875-9.506,36.629
					c-0.637,0.868-0.307-2.297-1.01-1.496c-0.572,0.652-2.166,3.281-2.782,3.887c-6.704,6.593-16.023,10.42-28.141,10.42
					c-19.086,0-31.682-9.492-37.895-24.336c-0.354-0.847-0.688-5.711-1-6.592c-0.459-1.292-2.873,3.38-3.243,2.019
					C68.543,181.091,68.004,167.308,69.241,160.561z"/>
				<g display="none">
					<defs>
						<path id="SVGID_5_" d="M69.241,160.561c5.125-27.944,23.381-51.44,42.44-51.44c1.838,0,17.218-2.58,19.319-1.905
							c1.655,0.532-10.005,4.197-8.264,5.11c13.868,7.274,29.385,26.126,29.385,48.235c0,13.81-3.079,27.875-9.506,36.629
							c-0.637,0.868-0.307-2.297-1.01-1.496c-0.572,0.652-2.166,3.281-2.782,3.887c-6.704,6.593-16.023,10.42-28.141,10.42
							c-19.086,0-31.682-9.492-37.895-24.336c-0.354-0.847-0.688-5.711-1-6.592c-0.459-1.292-2.873,3.38-3.243,2.019
							C68.543,181.091,68.004,167.308,69.241,160.561z"/>
					</defs>
					<clipPath id="SVGID_6_" display="inline">
						<use xlink:href="#SVGID_5_"  overflow="visible"/>
					</clipPath>
					
						<linearGradient id="ColorMask_5_" gradientUnits="userSpaceOnUse" x1="397.6572" y1="116.3979" x2="230.3661" y2="237.4429" gradientTransform="matrix(0.8693 -0.2193 0.2174 0.8616 -196.9219 69.9458)">
						<stop  offset="0" style="stop-color:#FFFFFF"/>
						<stop  offset="1" style="stop-color:#FFFFFF;stop-opacity:0"/>
					</linearGradient>
					<path id="ColorMask" display="inline" clip-path="url(#SVGID_6_)" fill="url(#ColorMask_5_)" d="M204.241,130.856
						c12.395,49.123-17.736,99.083-67.298,111.588c-49.563,12.506-99.789-17.178-112.184-66.301
						C12.364,127.021,42.494,77.061,92.056,64.555C141.62,52.049,191.847,81.733,204.241,130.856z"/>
				</g>
			</g>
			<path display="inline" opacity="0.15" fill="#FFFFFF" d="M127.766,191.692c0,2.69-0.526,5.246-1.472,7.548
				c-0.203,0.493-0.425-2.025-0.665-1.557c-0.193,0.376-0.504,3.698-0.613,4.104c-1.921,7.151-8.065,8.213-13.85,8.213
				c-9.168,0-16.6-8.197-16.6-18.308c0-1.427,0.147-2.815,0.427-4.148c0.286-1.36-1.291,0.337-0.748-0.889
				c2.699-6.082,10.366-13.271,16.92-13.271C120.334,173.384,127.766,181.58,127.766,191.692z"/>
			<path display="inline" opacity="0.07" d="M69.241,160.561c5.125-27.944,23.381-51.44,42.44-51.44
				c1.838,0,17.218-2.58,19.319-1.905c1.655,0.532-13.408,4.46-15.264,5.11c-35.498,12.432-60.16,81.989-5.055,97.675
				c0,0-27.442,0-37.895-24.336c-0.362-0.843-0.688-5.711-1-6.592c-0.459-1.292-2.873,3.38-3.243,2.019
				C68.543,181.091,68.004,167.308,69.241,160.561z"/>
			<g display="inline">
				<path d="M88.828,126.689c0,0-12.941-5.387-6.146-22.423c5.585,15.264,11.278,15.299,11.278,15.299"/>
				<path d="M136.841,128.689c0,0,12.941-5.387,6.146-22.423c-5.585,15.264-11.278,15.299-11.278,15.299"/>
			</g>
		</g>
		<g id="Face5_2_" display="none">
			<g display="inline">
				<circle cx="98.991" cy="149.257" r="4.425"/>
				<circle cx="120.991" cy="149.257" r="4.425"/>
			</g>
			<path display="inline" fill="none" stroke="#000000" stroke-width="2" stroke-linecap="round" stroke-miterlimit="10" d="
				M99.5,161.124c0,0,2.65,4.193,9.553,4.247s9.689-4.062,9.689-4.062"/>
		</g>
		<g id="Face4_2_" display="none">
			<g display="inline">
				<ellipse cx="97.687" cy="149.257" rx="3.121" ry="4.425"/>
				<ellipse cx="122.538" cy="149.257" rx="2.878" ry="4.425"/>
			</g>
			<g display="inline">
				<path d="M119.742,158.31c0,0-2.718-0.132-9.621-0.186s-9.621,0-9.621,0s2.371,9.729,9.621,9.51S119.742,158.31,119.742,158.31z"
					/>
				<path fill="#FFFFFF" d="M119.742,158.31c0,0-2.718-0.132-9.621-0.186s-9.621,0-9.621,0s0.28,0.15,0.942,1.649l17.324,0.104
					C119.452,158.421,119.742,158.31,119.742,158.31z"/>
			</g>
		</g>
		<g id="Face3_2_" display="none">
			<g display="inline">
				<ellipse cx="97.687" cy="149.257" rx="3.121" ry="4.425"/>
				<ellipse cx="122.538" cy="149.257" rx="2.878" ry="4.425"/>
			</g>
			<g display="inline">
				<path d="M119.742,158.31c0,0-2.718-0.132-9.621-0.186s-9.621,0-9.621,0s2.371,9.729,9.621,9.51S119.742,158.31,119.742,158.31z"
					/>
				<path fill="#FFFFFF" d="M109.119,158.135l-4.068-0.035l0.391,2.623l3.61,0.078C109.1,160.7,109.119,158.135,109.119,158.135z"/>
				<path fill="#FFFFFF" d="M112.051,158.135l4.068-0.035l-0.391,2.623l-3.61,0.078C112.07,160.7,112.051,158.136,112.051,158.135z"
					/>
			</g>
		</g>
		<g id="Face2_2_" display="none">
			<g display="inline">
				<ellipse cx="97.687" cy="149.257" rx="3.121" ry="4.425"/>
				<ellipse cx="122.538" cy="149.257" rx="2.878" ry="4.425"/>
			</g>
			<g display="inline">
				<path d="M116.918,162.11c0,0-1.896-0.092-6.709-0.129c-4.813-0.037-6.709,0-6.709,0s1.653,6.785,6.709,6.632
					C115.265,168.46,116.918,162.11,116.918,162.11z"/>
			</g>
		</g>
		<g id="Face1_2_" display="none">
			<g display="inline">
				<ellipse cx="97.687" cy="149.257" rx="3.121" ry="4.425"/>
				<ellipse cx="122.538" cy="149.257" rx="2.878" ry="4.425"/>
			</g>
			<g display="inline">
				<path fill="#FFFFFF" d="M118.607,162.11c0,0-2.249-0.092-7.96-0.129c-5.711-0.037-7.961,0-7.961,0s1.962,6.785,7.961,6.632
					C116.646,168.46,118.607,162.11,118.607,162.11z"/>
			</g>
		</g>
		<g id="Arms1_2_" display="none">
			<path id="leftArm_2_" display="inline" fill="none" stroke="#000000" stroke-width="7" stroke-miterlimit="10" d="
				M72.239,149.026c-7.855-2.296-21.354-5.769-28.557-31.907"/>
			<path id="rightArm_2_" display="inline" fill="none" stroke="#000000" stroke-width="7" stroke-miterlimit="10" d="
				M150.682,149.026c8.223-2.296,17.703-2.741,31.557-31.907"/>
		</g>
	</g>
</g>
<g id="specialEffects">
	<g id="surpriseLines" display="none">
		
			<line display="inline" fill="none" stroke="#000000" stroke-width="6" stroke-miterlimit="10" stroke-dasharray="52,39,35" x1="51" y1="59" x2="69.54" y2="77.54"/>
		
			<line display="inline" fill="none" stroke="#000000" stroke-width="6" stroke-miterlimit="10" stroke-dasharray="52,39,35" x1="76.777" y1="33.61" x2="90.728" y2="64.606"/>
		
			<line display="inline" fill="none" stroke="#000000" stroke-width="6" stroke-miterlimit="10" stroke-dasharray="52,39,35" x1="114" y1="28" x2="114" y2="60"/>
		
			<line display="inline" fill="none" stroke="#000000" stroke-width="6" stroke-miterlimit="10" stroke-dasharray="52,39,35" x1="175.729" y1="59" x2="157.188" y2="77.54"/>
		
			<line display="inline" fill="none" stroke="#000000" stroke-width="6" stroke-miterlimit="10" stroke-dasharray="52,39,35" x1="149.952" y1="33.61" x2="136" y2="64.606"/>
	</g>
	<g display="none">
		<g display="inline">
			<g>
				
					<rect x="174" y="92" transform="matrix(-0.8919 0.4523 -0.4523 -0.8919 424.175 112.5855)" fill="#EDC49F" width="49.257" height="30"/>
				<path d="M213.37,83.827l12.665,24.972l-42.146,21.375l-12.665-24.972L213.37,83.827 M214.249,81.138l-45.714,23.185
					l14.474,28.539l45.714-23.185L214.249,81.138L214.249,81.138z"/>
			</g>
			<g>
				<polygon fill="#EDC49F" points="171.667,103.855 212.186,83.306 206.638,95.732 200.417,110.292 				"/>
				<path d="M210.123,85.473l-4.411,9.881l-5.888,13.78l-14.517-3.25l-10.705-2.397l17.792-9.023L210.123,85.473 M214.249,81.138
					L191.491,92.68l-22.758,11.542l16.138,3.614l16.139,3.613l6.542-15.31L214.249,81.138L214.249,81.138z"/>
			</g>
		</g>
		<path display="inline" d="M184.762,120.869c1.619,1.502,1.984,3.742,0.815,5.001l-5.29,5.701c-1.169,1.26-3.429,1.063-5.049-0.44
			l0,0c-1.619-1.502-1.984-3.742-0.815-5.001l5.29-5.701C180.882,119.169,183.142,119.366,184.762,120.869L184.762,120.869z"/>
	</g>
</g>
</svg>
