<?xml version="1.0" encoding="utf-8"?>
<!-- Generator: Adobe Illustrator 16.0.0, SVG Export Plug-In . SVG Version: 6.00 Build 0)  -->
<!DOCTYPE svg PUBLIC "-//W3C//DTD SVG 1.1//EN" "http://www.w3.org/Graphics/SVG/1.1/DTD/svg11.dtd">
<svg version="1.1" id="Layer_1" xmlns="http://www.w3.org/2000/svg" xmlns:xlink="http://www.w3.org/1999/xlink" x="0px" y="0px"
	 width="206.811px" height="218px" viewBox="0 0 206.811 218" enable-background="new 0 0 206.811 218" xml:space="preserve">
<g display="none">
	<rect x="67.811" y="92" display="inline" fill="#FFFFFF" width="5" height="36"/>
	<rect x="74.811" y="101" display="inline" fill="#FFFFFF" width="5" height="27"/>
	<rect x="81.811" y="92" display="inline" fill="#FFFFFF" width="6" height="36"/>
	<rect x="89.811" y="101" display="inline" fill="#FFFFFF" width="5" height="27"/>
	<rect x="96.811" y="108" display="inline" fill="#FFFFFF" width="5" height="20"/>
	<rect x="103.811" y="112" display="inline" fill="#FFFFFF" width="5" height="16"/>
	<rect x="110.811" y="108" display="inline" fill="#FFFFFF" width="5" height="20"/>
	<rect x="117.811" y="112" display="inline" fill="#FFFFFF" width="5" height="16"/>
	<rect x="125.811" y="118" display="inline" fill="#FFFFFF" width="5" height="10"/>
	<rect x="60.811" y="118" display="inline" fill="#FFFFFF" width="5" height="10"/>
</g>
<rect x="35.811" y="52" display="none" fill="#FFFFFF" width="117" height="13"/>
<rect x="20.811" y="58" fill="#A7C8EB" width="155" height="93"/>
<path fill="none" stroke="#FFFFFF" stroke-miterlimit="10" d="M75.156,100.571l-8.331,3.402l-12.351,5.048l5.275-12.248l3.556-8.256
	c-7.104-2.672-15.425-1.196-21.2,4.471c-7.934,7.785-8.054,20.529-0.269,28.462s20.528,8.055,28.462,0.27
	C76.084,116.043,77.714,107.732,75.156,100.571z"/>
<path fill="#FFFFFF" d="M61.547,102.02l12.351-5.048l8.331-3.402c-0.95-2.661-2.479-5.165-4.588-7.313
	c-2.119-2.159-4.605-3.738-7.262-4.739l-3.556,8.255L61.547,102.02z"/>
<rect x="108.811" y="90" fill="#FFFFFF" width="52" height="7"/>
<rect x="108.811" y="102" fill="#FFFFFF" width="52" height="7"/>
<rect x="108.811" y="115" fill="#FFFFFF" width="52" height="7"/>
</svg>
