<?xml version="1.0" encoding="utf-8"?>
<!-- Generator: Adobe Illustrator 16.0.0, SVG Export Plug-In . SVG Version: 6.00 Build 0)  -->
<!DOCTYPE svg PUBLIC "-//W3C//DTD SVG 1.1//EN" "http://www.w3.org/Graphics/SVG/1.1/DTD/svg11.dtd">
<svg version="1.1" id="Layer_1" xmlns="http://www.w3.org/2000/svg" xmlns:xlink="http://www.w3.org/1999/xlink" x="0px" y="0px"
	 width="505.429px" height="400px" viewBox="0 0 505.429 400" enable-background="new 0 0 505.429 400" xml:space="preserve">
<path fill="#E6E7E8" d="M146.448,372.104c0-8.179,49.799-21.047,111.228-21.047s111.227,6.644,111.227,14.822
	c0,8.186-49.798,14.822-111.227,14.822S146.448,380.291,146.448,372.104z"/>
<g>
	<g>
		<g>
			<polygon fill="#001119" points="239.504,365.241 211.744,356.826 216.335,293.107 251.77,284.264 			"/>
		</g>
		<g>
			<path fill="#001119" d="M216.027,348.297c0,0-23.459,15.654-25.771,17.628l49.373,0.634
				C242.194,348.689,228.625,345.162,216.027,348.297z"/>
		</g>
	</g>
</g>
<g>
	<g>
		<g>
			<polygon fill="#001119" points="268.159,362.262 294.361,355.401 289.771,291.686 254.336,282.84 			"/>
		</g>
		<g>
			<path fill="#001119" d="M290.079,346.873c0,0,23.46,15.654,25.77,17.629l-47.813,0.634
				C264.535,347.447,277.48,343.739,290.079,346.873z"/>
		</g>
	</g>
</g>
<path id="rightArm_1_" fill="none" stroke="#001119" stroke-width="24" stroke-linecap="round" stroke-miterlimit="10" d="
	M337.2,226.742c31.703-6.453,66.924,52.587-2.495,52.587"/>
<path id="leftArm_9_" fill="none" stroke="#001119" stroke-width="24" stroke-linecap="round" stroke-miterlimit="10" d="
	M172.224,218.96c-26.508,23.874-65.318-68.965-73.358-116.229"/>
<path fill="#155C87" d="M292.825,335.841l0.152-0.134C292.971,335.763,292.933,335.811,292.825,335.841z"/>
<g>
	<path fill="#DCE8EF" d="M173.993,211.729c0,45.028,37.281,86.2,83.269,86.2c29.389,0,83.27-45.328,83.27-86.2
		c0-45.028-37.28-81.531-83.27-81.531C211.274,130.198,173.993,166.701,173.993,211.729z"/>
	<path fill="#C2CACE" d="M326.06,195.784c-0.724-1.522-1.869-2.828-2.429-4.301c-1.851-4.877-5.071-9.417-8.01-13.762
		c-1.234-1.827-6.92,11.556-8.872,9.105c-10.798-13.548-16.202-24.966-40.42-28.989l2.574,14.674l-38.103-12.417l-2.065,13.062
		c0,0-13.173-6.086-13.176-6.088c-3.328-1.524-15.115,17.929-16.255,19.96c-6.336,11.294-10.892,22.848-14.427,35.373
		c-2.353,8.337-2.215,29.074-2.215,29.074s-7.033-8.67-6.172-6.135c0.86,2.536-2.397-33.359,3.529-45.882
		c6.955-14.701,13.442-32.04,28.047-40.969c22.708-13.887,55.48-12.387,81.542-9.518c5.379,0.591,10.831,1.483,15.365,4.642
		c5.988,4.173,11.305,8.475,16.855,13.213c4.781,4.082,2.735,6.82,3.757,12.627c0.551,3.146,0.554,5.843,0.471,9.154
		C326,190.824,326.705,193.701,326.06,195.784z"/>
	<path fill="#001119" d="M303.964,166.303c14.94,4.42,19.547,0.106,29.826-12.407c11.899-14.495,9.382-34.123,5.712-51.166
		c0,0-9.057,39.616-39.583,39.06L303.964,166.303z"/>
	<g>
		<path fill="#FFFFFF" d="M180.606,237.944c0.034-52.601,30.618-77.993,30.618-77.993l13.698,6.201l4.859-13.118l34.947,13.72
			l-4.877-16.616c30.758,9.168,35.95,16.968,47.583,31.094c1.442,1.754,8.308-8.383,9.213-6.36
			c10.865,24.208,10.508,21.029,16.834,60.065c0,0-25.241,22.529-69.191,22.484C244.65,257.405,180.599,251.664,180.606,237.944z
			 M162.811,262.287c21.42,59.866,53.408,66.829,53.408,66.829l7.959-14.135l11.493,14.135l12.652-5.397
			c0,0,19.868,9.293,19.751,13.544l9.516-20.867l13.321,12.493l10.837-17.665c0,0,3.377,0.695,4.346-1.114
			c4.486-8.372,12.503-13.992,12.503-13.992l3.812,5.393c1.43-5.423,11.289-16.618,12.294-22.181
			c0.203-1.128,5.042-8.476,5.167-9.606c1.763-16.136,5.057-15.359,6.879-28.44c1.25-8.984,0.349-42.837-0.982-46.403
			c-4.502-12.063-8.583-19.149-14.384-29.857c-16.206-29.917-36.115-41.831-67.348-56.915c-5.813-2.807-12.262-4-18.626-5.082
			c-2.788-0.476-12.145-1.942-24.171-1.942l18.725,23.68c0,0-12.924-12.73-31.447-11.117l9.938,15.178
			c0,0-17.757,11.086-31.045,19.317C169.986,158.941,148.14,221.285,162.811,262.287z"/>
		<path fill="#00171E" d="M225.875,325.534l-9.303,7.755l-2.715-1.98c-1.389-0.512-32.934-5.258-53.299-62.186
			c-4.886-13.651-8.463-39.273-4.332-58.479c2.831-13.157,5.434-26.736,11.903-38.691c8.351-15.431,22.774-26.693,36.38-37.27
			c0.697-0.541,9.262-7.621,10.504-5.528l-10.4-17.512l3.702-0.322c1.693-0.149,3.413-0.224,5.115-0.224
			c7.334,0,13.591,6.026,18.296,7.546l-15.522-18.339h5.036c11.726,0,21.084,1.382,24.563,1.976
			c6.489,1.103,12.902,2.854,19.064,5.2c31.934,12.156,51.979,27.357,68.57,57.986c11.528,21.283,17.455,42.593,18.507,66.736
			c0.204,4.68-0.487,12.574-1.323,17.183c-8.488,46.771-30.23,61.855-30.23,61.855l-4.542-7.284c0,0-25.141,28.272-24.627,29.761
			l-13.574-11.143l-9.393,15.729l-17.869-11.982l-16.034,8.73L225.875,325.534z M318.618,291.481
			c-0.178,0.297,2.425,9.176,2.843,9.633c0,0,14.632-18.306,20.274-43.3c3.141-13.915,3.895-36.331,1.165-50.339
			c-1.273-6.523-2.92-12.977-4.975-19.3c-2.634-8.104-6.091-16.102-10.151-23.598c-16.065-29.661-33.665-40.967-64.568-52.731
			c-5.879-2.241-11.999-3.911-18.188-4.965c-2.84-0.484-9.741-1.512-18.669-1.821l25.031,29.572l-12.651-7.89
			c-0.101-0.063-9.719-7.002-25.298-10.977c-0.299-0.076,8.482,20.531,8.482,20.531l-4.23-2.161
			c-0.222,0.077-16.115,9.539-29.042,17.545c-20.401,12.646-29.667,92.119-18.906,116.223
			c21.264,47.623,38.992,55.475,44.689,58.514l9.616-11.092l11.397,12.522l15.137-7.915c0,0,14.615,8.386,17.295,9.727l9.667-14.773
			l11.511,10.729 M178.272,236.387c0.033-53.05,30.197-78.683,31.417-79.749l1.13-0.988l12.784,5.784l4.816-13l32.727,12.848
			l-4.746-16.164l4.118,1.227c29.94,8.925,36.383,16.79,47.056,29.823l0.695,0.845c0.755-0.659,1.755-1.687,2.44-2.389
			c2.504-2.57,3.887-3.912,5.55-3.912c1.098,0,2.064,0.632,2.52,1.647c2.635,5.876,4.765,10.073,6.643,13.774
			c5.754,11.342,5.528,17.034,10.365,46.874l0.219,1.349l-1.07,0.852c-1.182,0.938-26.329,22.991-70.646,22.991
			C263.443,258.197,178.261,255.827,178.272,236.387z M321.258,188.248c-1.664-3.282-3.525-6.948-5.762-11.82
			c-0.493,0.479-1.019,1.019-1.444,1.456c-2.695,2.766-4.31,4.333-6.17,4.333c-0.878,0-1.698-0.384-2.25-1.056l-1.668-2.034
			c-9.928-12.121-15.624-19.072-40.651-27.036l4.999,17.021l-37.168-14.591l-4.901,13.233l-14.538-6.578
			c-5.138,5.189-27.177,30.091-27.206,75.214c-0.006,9.693,53.179,17.12,79.927,17.14c37.802,0,60.993-17.229,66.524-21.18
			C326.373,204.467,326.872,199.313,321.258,188.248z"/>
	</g>
	<path fill="#C7D6DD" d="M195.48,147.416c-6.182,3.792-5.998,13.828-8.252,19.917c-3.126,8.438-4.965,16.752-7.438,25.419
		c-2.906,10.192-4.818,21.373-5.399,31.903c-1.647,29.892,6.91,57.044,27.583,78.453c5.578,5.777,13.302,9.479,18.772,15.347
		c0.728,0.781-5.286,6.953-6.332,6.901c-6.598-0.326-15.322-9.859-19.157-14.514c-5.322-6.457-9.768-13.578-14.154-20.685
		c-6.776-10.979-12.076-22.942-14.775-35.598c-4.203-19.711-2.562-42.318,2.398-61.834C172.5,177.88,180.702,154.235,195.48,147.416
		z"/>
	<path fill="#001119" d="M195.226,158.232l-5.547-10.351l13.447-2.336l0.236-4.39c-35.364,8.653-56.29-35.05-56.29-35.05
		c0.158,15.881,6.787,47.656,20.067,57.997c4.51,3.509,7.966,6.092,11.029,7.783l5.789-9.885L195.226,158.232z"/>
</g>
<g>
	<path fill="#001119" d="M234.126,227.656l47.621,1.007c0,0-5.548,18.401-23.229,20.076
		C240.838,250.416,234.126,227.656,234.126,227.656z"/>
	<path fill="#DCE8EF" d="M257.885,247.086c-5.985,0.565-10.223-2.759-13.032-6.437c1.925-2.095,6.685-3.579,12.266-3.579
		c5.899,0,10.887,1.655,12.574,3.935C267.078,243.91,263.262,246.575,257.885,247.086z"/>
	<g id="eyes_5_">
		<circle fill="#001119" cx="234.481" cy="199.821" r="9.318"/>
		<path fill="#001119" d="M290.708,200.715c0,4.635-3.754,8.388-8.387,8.388c-4.632,0-8.387-3.753-8.387-8.388
			c0-4.63,3.754-8.384,8.387-8.384C286.954,192.332,290.708,196.085,290.708,200.715z"/>
	</g>
</g>
</svg>
