<?xml version="1.0" encoding="utf-8"?>
<!-- Generator: Adobe Illustrator 16.0.0, SVG Export Plug-In . SVG Version: 6.00 Build 0)  -->
<!DOCTYPE svg PUBLIC "-//W3C//DTD SVG 1.1//EN" "http://www.w3.org/Graphics/SVG/1.1/DTD/svg11.dtd">
<svg version="1.1" id="Layer_1" xmlns="http://www.w3.org/2000/svg" xmlns:xlink="http://www.w3.org/1999/xlink" x="0px" y="0px"
	 width="500px" height="500px" viewBox="0 0 500 500" enable-background="new 0 0 500 500" xml:space="preserve">
<g display="none">
	<circle display="inline" fill="#001119" cx="181.092" cy="184.009" r="9.026"/>
	<circle display="inline" fill="#001119" cx="147.707" cy="201.699" r="6.511"/>
</g>
<g id="stars">
	<path opacity="0.9" fill="#B2B2B2" d="M209.411,82.365c0.788-13.293,0.788-13.293,12.111-19.166
		c-12.926-1.234-12.926-1.234-19.166-12.11c-0.972,12.509-0.972,12.509-12.106,19.167C202.687,70.945,202.687,70.945,209.411,82.365
		z"/>
	<path opacity="0.9" fill="#B2B2B2" d="M308.27,234.235c5.783-4.085,5.783-4.085,11.981-1.332
		c-3.778-5.779-3.778-5.779-1.332-11.981c-5.518,3.749-5.518,3.749-11.98,1.334C310.781,227.651,310.781,227.651,308.27,234.235z"/>
	<path opacity="0.9" fill="#B2B2B2" d="M90.27,134.307c4.774-0.095,4.774-0.095,7.195,3.786c0.075-4.656,0.075-4.656,3.786-7.195
		c-4.499,0.007-4.499,0.007-7.195-3.785C94.162,131.58,94.162,131.58,90.27,134.307z"/>
	<path opacity="0.9" fill="#B2B2B2" d="M84.982,278.291c1.05,11.209,1.05,11.209-7.654,17.571
		c10.956-0.632,10.956-0.632,17.568,7.653c-0.797-10.574-0.797-10.574,7.651-17.57C92.067,286.97,92.067,286.97,84.982,278.291z"/>
	<path opacity="0.9" fill="#B2B2B2" d="M163.27,333.307c4.774-0.095,4.774-0.095,7.195,3.787c0.074-4.656,0.074-4.656,3.785-7.195
		c-4.499,0.008-4.499,0.008-7.195-3.785C167.162,330.58,167.162,330.58,163.27,333.307z"/>
</g>
<g id="sentiman">
	<path fill="#D80000" stroke="#000000" stroke-width="2" stroke-miterlimit="10" d="M232.522,179.424
		C274.944,262.424,358,311.465,410,329c-64.403,8.486-157.402,16-200.012,83c-12.446-46-15.279-122-62.134-166"/>
	<polygon fill="#C60000" points="186.203,290.903 205.886,359.384 214,331.604 282.682,303.516 288,283 320.251,290.903 
		256.701,227.578 	"/>
	<path fill="#001119" d="M209.169,167.723c9.046-2.488,10.031-6.159,11.311-15.827c1.479-11.196-6.047-20.436-13.342-27.986
		c0,0,7.96,23.143-7.83,32.561L209.169,167.723z"/>
	<g>
		<path id="rightArm_2_" fill="none" stroke="#001119" stroke-width="15" stroke-linecap="round" stroke-miterlimit="10" d="
			M149.218,239.036c-30.614-35.072-36.104-40.422-58.085-59.754"/>
		<path fill="#001119" d="M92.235,166.243c-0.148-0.704-0.239-1.42-0.263-2.147c-0.119-3.615-1.101-3.76-4.287-5.044
			c-2.284-0.92-7.531,8.956-6.658,7.255c2.87-3.911,8.657-12.706-6.705-14.464c-4.146-0.475-9.992,9.657-10.053,13.537
			c-0.177,11.567,13.857,15.386,22.264,18.72l5.872,1.372l7.382-5.536C97.133,175.654,93.278,171.224,92.235,166.243z"/>
	</g>
	<path fill="#001119" d="M206.554,307.474c0,0,23.302,23.534,24.133,25.726c0.83,2.192,0,25.052,4.024,26.149
		c4.025,1.097,16.249-23.539,15.882-28.54c-0.367-5-8.39-4.491-10.174-6.941c-2.666-3.663-4.472-4.409-11.845-27.231
		L206.554,307.474z"/>
	<path fill="#001119" d="M245.348,276.435c0,0,19.006,31.585,21.143,33.082c2.136,1.497,27.025,6.861,27.106,11.505
		c0.08,4.643-18.022,7.629-35.139,9.315c-5.554,0.547-2.548-10.28-4.702-12.877c-3.221-3.88-3.531-6.032-26.131-20.239
		L245.348,276.435z"/>
	<g>
		<path fill="#FFFFFF" stroke="#000000" stroke-width="2" stroke-miterlimit="10" d="M239.449,305.811
			c-31.515,13.611-71.467,8.005-87.509-25.404c-0.583-1.217-4.329,5.791-4.869,4.558c-0.542-1.238,2.122-10.718,1.624-11.972
			c-0.389-0.982-3.523,4.958-3.886,3.967c-0.515-1.412-0.243-7.759-0.7-9.184c-1.629-5.07-2.888-14.211-3.75-19.329
			c-3.853-22.857-2.759-40.577,3.085-62.892c1.868-7.128,2.895-12.047,6.038-16.192c0.667-0.88-6.838-9.401-6.838-9.401
			c1.812-1.684,13.296,3.57,16.384,1.944c1.774-0.934,35.562-36.92,37.483-37.632c0,0-19.704,28.662-17.31,28.167
			c2.213-0.457,18.479-11.813,20.738-11.989c0,0-10.87,13.837-8.776,13.893c28.992,0.79,45.039,22.117,62.313,42.539
			c0.617,0.729,11.182,0.93,11.784,1.67c0.768,0.942-8.432,2.426-7.687,3.385c1.055,1.354,8.108,3.794,9.114,5.18
			c0.826,1.141-4.388,1.223-3.595,2.384c8.162,11.961,9.044,12.675,8.625,26.901C270.68,271.677,265.602,294.516,239.449,305.811z"
			/>
		<path fill="#C7D6DD" d="M250.244,297.988c-11.007,7.6-29.839,14.205-43.191,13.832c-18.633-0.521-33.746-6.229-43.929-17.379
			c-6.624-7.253-12-14.559-11.13-15.246c-1.383,1.092-2.514,2.54-3.873,3.665c0.109-3.777,0.898-7.563,1.159-11.339
			c-1.198,0.598-3.264,1.543-3.521,3.034c0.117-5.262-1.346-9.922-2.362-15.022c-4-20.081-6.937-41.657-1.638-61.76
			c-0.793,5.776,1.473,12.56,1.365,18.396c-0.259,14.043,0.646,29.263,4.973,42.593c6.825,21.022,18.091,32.193,39.206,41.834
			c17.251,7.877,67.001-0.926,82.306-43.789C269.608,256.808,266.993,286.424,250.244,297.988z"/>
	</g>
	<path id="rightArm" fill="none" stroke="#001119" stroke-width="15" stroke-linecap="round" stroke-miterlimit="10" d="
		M259.375,218.718c26.834,18.815,31.052,22.377,46.613,37.066"/>
	<path fill="#001119" d="M144.866,199.63l-1.14-7.57l0.425-4.118l-0.421-3.248c-12.31,12.283-24.404-9.535-24.404-9.535
		c1.414,7.773,7.333,22.794,14.713,26.747c2.506,1.343,3.157,2.696,4.802,3.268l3.267-5.711L144.866,199.63z"/>
	<path fill="#001119" d="M301.453,261.304c0.091,0.614-0.013,1.26,0.152,1.869c0.595,2.199,2.739,5.589,6.16,4.947
		c1.78-0.334-0.315-3.158,0.959-3.89c2.064,2.171,4.225,6.988,6.8,7.426c2.696,0.458,5.379-6.767,5.454-10.139
		c0.219-10.053-10.202-12.68-15.648-15.671l-3.814-1.258l-4.858,4.729C298.347,253.067,300.818,256.964,301.453,261.304z"/>
	<g>
		<path fill="#DCE8EF" stroke="#000000" stroke-width="2" stroke-miterlimit="10" d="M147.927,234.242
			c0,0-2.182-23.546,4.943-40.542c0.553-1.318,1.155-2.602,1.812-3.84c0.713-1.346,1.491-2.637,2.339-3.855
			c1.968-2.829,4.313-5.272,7.104-7.119c0.523-0.346,1.063-0.671,1.617-0.974l0.759,6.477c0,0,5.54-9.336,7.085-9.818l3.425,11.495
			l10.664-13.355l4.443,6.058l8.12-3.958c3.469,1.015,6.856,2.348,10.127,3.905c23.742,11.303,35.371,34.386,33.82,32.64
			c0,0-13.427,16.255-43.779,32.31c-20.888,11.05-49.747,8.918-49.747,8.918L147.927,234.242z"/>
		<g>
			<g>
				<path fill="#001119" d="M208.078,204.099c-0.042-0.22-1.413-6.135-5.384-8.24c-2.283-1.213-5.326-1.938-8.381-0.62
					c-0.008,0.004-0.015,0.007-0.025,0.011c-7.123,3.074-2.752,14.223-2.58,14.665l2.287-1.22
					c-0.033-0.086-3.409-8.754,1.424-10.841c0.004-0.001,0.007-0.003,0.011-0.004c2.298-0.994,4.539-0.42,6.096,0.404
					c2.878,1.516,3.869,5.973,3.88,6.016L208.078,204.099z"/>
				<path fill="#001119" d="M162.679,224.792l1.688-1.209c-0.021-0.026-2.215-3.372-1.515-5.892c0.38-1.362,1.258-3.036,3.103-3.832
					c0.004-0.002,0.008-0.003,0.011-0.006c3.897-1.681,7.244,5.432,7.274,5.497l1.717-1.256c-0.16-0.347-4.17-8.806-9.894-6.336
					c-0.007,0.003-0.013,0.006-0.018,0.009c-2.454,1.059-3.687,3.285-4.237,5.287C159.85,220.539,162.575,224.646,162.679,224.792z"
					/>
			</g>
			<g>
				<path fill="#001119" d="M177.313,231.59l23.939-9.974c0,0,2.99,13.962-5.258,19.081
					C187.743,245.816,177.313,231.59,177.313,231.59z"/>
				<path fill="#DCE8EF" d="M194.676,238.619c-2.792,1.732-5.932,0.385-8.474-1.528c0.302-1.878,2.2-3.97,4.969-5.22
					c2.926-1.321,5.917-1.296,7.466-0.098C198.245,234.365,197.185,237.063,194.676,238.619z"/>
			</g>
		</g>
		<path fill="#C2CACE" d="M149.31,219.56c-0.277-29.609,15.814-40.675,15.814-40.675l0.376,9.063l7.215-11.411l4.597,11.36
			l10.306-13.528l4.801,5.733l7.818-4.294c0,0,28.562,8.543,42.947,35.337L237.77,216c-11.208-25.597-37.168-38.271-37.168-38.271
			l-10.181,7.609l-3.874-6.754l-12.233,15.297l-2.563-10.288l-8.96,8.918l-1.949-7.236
			C160.842,185.276,154.187,203.623,149.31,219.56L149.31,219.56z"/>
	</g>
</g>
</svg>
