<?xml version="1.0" encoding="utf-8"?>
<!-- Generator: Adobe Illustrator 16.0.0, SVG Export Plug-In . SVG Version: 6.00 Build 0)  -->
<!DOCTYPE svg PUBLIC "-//W3C//DTD SVG 1.1//EN" "http://www.w3.org/Graphics/SVG/1.1/DTD/svg11.dtd">
<svg version="1.1" id="Layer_1" xmlns="http://www.w3.org/2000/svg" xmlns:xlink="http://www.w3.org/1999/xlink" x="0px" y="0px"
	 width="105.405px" height="128.653px" viewBox="0 0 105.405 128.653" enable-background="new 0 0 105.405 128.653"
	 xml:space="preserve">
<g>
	<circle fill="#F4F4F4" cx="54.257" cy="79.581" r="45.5"/>
	<g>
		<ellipse fill="#D3D3D3" cx="52.371" cy="119.929" rx="23.571" ry="6.111"/>
		<g>
			<path d="M58.466,120.004c-3.33-0.021-6.669,0.491-9.867,0.276c0.907-4.363,3.142-8.542,3.367-13.098
				c0.242-4.892-0.445-9.823-1.301-14.661c-1.695-9.604-4.649-19.02-6.361-28.619c4.046,9.994,7.002,20.576,9.799,30.97
				c1.987,7.384,5.993,18.854,5.248,25.614"/>
		</g>
		<g>
			<path fill="#8AB91C" d="M86.729,45.509c-7.69,1.462-15.477,3.045-21.757,7.25C54.345,59.872,52.447,67.23,53.004,80.773
				l0.903,1.807c10.603-5.764,19.291-13.364,23.101-23.044c0.522-1.422,0.974-2.878,1.343-4.353
				c-0.338,1.493-0.786,2.945-1.343,4.353c-3.752,10.23-11.283,19.041-20.667,25.559c-0.291,0.2-0.585,0.396-0.879,0.592
				l0.603,1.201c9.349,1.869,22.038-2.146,25.452-9.713c2.793-6.172,3.824-14.435,3.578-21.924
				C84.983,51.777,83.696,47.104,86.729,45.509z"/>
			<path fill="#B8CA00" d="M69.615,57.024c4.44-2.383,9.419-3.95,14.636-5.095c-0.185-2.516-0.078-4.933,1.938-5.997
				c-7.691,1.47-15.479,3.051-21.761,7.256C53.806,60.3,51.902,67.656,52.458,81.208l0.352,0.698
				C53.436,70.605,57.388,63.584,69.615,57.024z"/>
		</g>
		<g>
			<path fill="#8AB91C" d="M17.423,86.69c2.801,4.203,5.696,8.433,9.771,11.109c6.896,4.532,11.747,3.812,19.654,0.08l0.849-0.992
				c-6.089-4.852-12.787-8.109-19.497-7.941c-0.977,0.047-1.955,0.143-2.924,0.294c0.973-0.173,1.947-0.272,2.924-0.294
				c7.022-0.34,14.15,1.924,20.381,5.864c0.191,0.124,0.381,0.248,0.571,0.375l0.563-0.66c-1.235-6.025-6.81-12.56-12.163-12.688
				c-4.37-0.109-9.541,1.353-13.93,3.379C21.586,86.153,19.132,88.091,17.423,86.69z"/>
			<path fill="#B8CA00" d="M28.563,93.969c-2.531-2.04-4.711-4.605-6.702-7.42c-1.449,0.742-2.913,1.285-4.052,0.355
				c2.806,4.202,5.699,8.434,9.777,11.111c6.894,4.527,11.743,3.812,19.658,0.078l0.327-0.385
				C40.698,100.175,35.533,99.589,28.563,93.969z"/>
		</g>
	</g>
</g>
</svg>
