<?xml version="1.0" encoding="utf-8"?>
<!-- Generator: Adobe Illustrator 16.0.0, SVG Export Plug-In . SVG Version: 6.00 Build 0)  -->
<!DOCTYPE svg PUBLIC "-//W3C//DTD SVG 1.1//EN" "http://www.w3.org/Graphics/SVG/1.1/DTD/svg11.dtd">
<svg version="1.1" id="Layer_1" xmlns="http://www.w3.org/2000/svg" xmlns:xlink="http://www.w3.org/1999/xlink" x="0px" y="0px"
	 width="105.405px" height="128.653px" viewBox="0 0 105.405 128.653" enable-background="new 0 0 105.405 128.653"
	 xml:space="preserve">
<g>
	<circle fill="#F4F4F4" cx="52.257" cy="80.581" r="45.5"/>
	<g>
		<ellipse fill="#D3D3D3" cx="53.494" cy="119.613" rx="20.841" ry="5.403"/>
		<g>
			<circle fill="#B8CA00" cx="51.934" cy="61.271" r="41.682"/>
			<circle fill="#8AB91C" cx="51.056" cy="60.588" r="34.369"/>
		</g>
		<g>
			<path d="M58.8,119.487c-4.416-0.002-8.846,0.729-13.085,0.457c1.237-6.021,4.233-11.797,4.568-18.08
				c0.358-6.743-0.514-13.535-1.606-20.196c-2.174-13.224-6.016-26.18-8.209-39.396c5.284,13.742,9.12,28.306,12.746,42.609
				c2.575,10.162,7.796,25.94,6.755,35.265"/>
			<path d="M50.968,101.929c9.641-1.642,17.544-12.809,23.939-18.651c-2.996,4.688-6.867,9.144-10.723,13.476
				c-2.736,3.083-6.516,8.222-10.359,10.052"/>
			<path d="M50.036,94.338c-0.357-6.234-10.361-14.328-15.298-19.91c4.241,3.209,8.138,6.866,11.917,10.475
				c2.689,2.566,7.267,6.371,8.58,9.215"/>
		</g>
	</g>
</g>
</svg>
