<?xml version="1.0" encoding="utf-8"?>
<!-- Generator: Adobe Illustrator 16.0.0, SVG Export Plug-In . SVG Version: 6.00 Build 0)  -->
<!DOCTYPE svg PUBLIC "-//W3C//DTD SVG 1.1//EN" "http://www.w3.org/Graphics/SVG/1.1/DTD/svg11.dtd">
<svg version="1.1" id="Layer_1" xmlns="http://www.w3.org/2000/svg" xmlns:xlink="http://www.w3.org/1999/xlink" x="0px" y="0px"
	 width="105.405px" height="128.653px" viewBox="0 0 105.405 128.653" enable-background="new 0 0 105.405 128.653"
	 xml:space="preserve">
<g>
	<circle fill="#F4F4F4" cx="54.257" cy="79.581" r="45.5"/>
	<g>
		<ellipse fill="#D3D3D3" cx="52.88" cy="120.729" rx="22.853" ry="5.926"/>
		<g>
			<path d="M58.473,119.813c-4.842-0.002-9.701,0.801-14.348,0.503c1.355-6.603,4.641-12.937,5.009-19.825
				c0.394-7.395-0.563-14.842-1.764-22.146c-2.382-14.5-6.595-28.707-9-43.199c5.795,15.069,10,31.038,13.977,46.723
				c2.825,11.143,8.55,28.443,7.408,38.668"/>
			<path d="M49.883,100.562C60.455,98.76,69.122,86.517,76.134,80.11c-3.285,5.141-7.529,10.025-11.757,14.777
				c-3,3.381-7.145,9.014-11.36,11.021"/>
			<path d="M48.862,92.239c-0.392-6.836-11.361-15.711-16.774-21.832c4.65,3.518,8.924,7.528,13.067,11.486
				c2.948,2.813,7.968,6.984,9.409,10.104"/>
		</g>
		<g>
			<path fill="#8AB91C" d="M84.583,7.952c-9.716,4.683-19.516,9.56-26.38,17.391c-11.614,13.249-11.521,23.718-5.962,41.544
				l1.846,2.083c12.061-11.444,20.92-24.651,22.547-38.89c0.189-2.079,0.272-4.177,0.238-6.271c0.082,2.108,0.002,4.199-0.238,6.271
				c-1.354,14.951-8.243,29.356-18.413,41.372c-0.316,0.369-0.639,0.734-0.96,1.1l1.229,1.385
				c13.107-0.839,28.57-10.697,30.422-21.984c1.521-9.208-0.047-20.573-3.039-30.454C84.49,16.915,81.114,11.154,84.583,7.952z"/>
			<path fill="#B8CA00" d="M65.901,29.368c5.061-4.752,11.13-8.608,17.666-11.988c-1.14-3.283-1.857-6.538,0.445-8.672
				c-9.714,4.693-19.515,9.567-26.381,17.401C46.024,39.353,46.107,49.82,51.669,67.659l0.716,0.805
				C49.198,53.2,51.961,42.449,65.901,29.368z"/>
		</g>
		<g>
			<path fill="#8AB91C" d="M19.192,38.616c-2.073,5.932-4.102,11.98-3.704,18.035c0.673,10.245,5.025,14.521,14.66,19.575
				l1.621,0.097c0.252-9.684-1.538-18.776-6.735-25.314c-0.778-0.934-1.607-1.834-2.484-2.682c0.901,0.835,1.73,1.729,2.484,2.682
				c5.603,6.718,8.701,15.493,9.46,24.634c0.021,0.283,0.04,0.564,0.057,0.85l1.078,0.063c5.056-5.745,7.363-16.179,3.477-21.593
				c-3.168-4.421-8.497-8.458-13.801-11.296C22.847,42.347,19.083,41.364,19.192,38.616z"/>
			<path fill="#B8CA00" d="M20.319,55.138c0.127-4.043,1.039-8.133,2.34-12.219c-1.823-0.883-3.459-1.928-3.391-3.757
				c-2.068,5.937-4.1,11.984-3.7,18.041c0.674,10.24,5.021,14.519,14.663,19.577l0.627,0.037
				C23.256,71.84,19.965,66.272,20.319,55.138z"/>
			<path fill="#FFFFFF" d="M25.034,51.009c5.197,6.538,6.987,15.63,6.735,25.314l2.781,0.17c-0.017-0.285-0.036-0.566-0.057-0.85
				C33.735,66.501,30.637,57.727,25.034,51.009z"/>
		</g>
		<g>
			<path fill="#8AB91C" d="M21.987,86.316c1.769-2.341,3.596-4.692,6.052-6.104c4.154-2.388,6.938-1.802,11.39,0.638l0.455,0.604
				c-3.698,2.602-7.694,4.257-11.574,3.927c-0.563-0.061-1.128-0.15-1.685-0.271c0.559,0.135,1.121,0.225,1.685,0.271
				c4.057,0.441,8.266-0.623,12.013-2.691c0.116-0.065,0.231-0.131,0.345-0.197l0.304,0.402c-0.929,3.451-4.388,7.045-7.495,6.934
				c-2.533-0.088-5.479-1.115-7.949-2.442C24.379,86.77,23.027,85.562,21.987,86.316z"/>
			<path fill="#B8CA00" d="M28.698,82.481c-1.54,1.096-2.894,2.508-4.146,4.07c-0.812-0.48-1.644-0.847-2.334-0.348
				c1.772-2.338,3.598-4.692,6.056-6.103c4.152-2.386,6.936-1.802,11.392,0.638l0.174,0.234
				C35.944,79.303,32.931,79.464,28.698,82.481z"/>
			<path fill="#FFFFFF" d="M28.31,85.381c3.88,0.33,7.876-1.325,11.574-3.927l0.783,1.038c-0.113,0.066-0.229,0.132-0.345,0.197
				C36.575,84.758,32.366,85.823,28.31,85.381z"/>
		</g>
		<g>
			<path fill="#8AB91C" d="M59.279,79.476c-0.889,2.177-1.769,4.39-1.884,6.487c-0.197,3.546,1.001,4.822,3.832,6.108l0.508-0.048
				c0.464-3.396,0.263-6.484-1.111-8.51c-0.209-0.287-0.433-0.561-0.677-0.813c0.252,0.248,0.478,0.518,0.677,0.813
				c1.495,2.069,2.12,4.98,1.993,8.137c-0.004,0.098-0.009,0.195-0.015,0.293l0.337-0.031c1.819-2.26,2.962-6.021,1.954-7.719
				c-0.82-1.387-2.337-2.531-3.892-3.26C60.279,80.596,59.135,80.442,59.279,79.476z"/>
			<path fill="#B8CA00" d="M58.977,85.194c0.2-1.422,0.649-2.896,1.223-4.389c-0.538-0.217-1.013-0.501-0.918-1.143
				c-0.887,2.177-1.769,4.393-1.883,6.488c-0.196,3.546,1,4.824,3.833,6.11l0.197-0.02C59.231,90.883,58.419,89.101,58.977,85.194z"
				/>
			<path fill="#FFFFFF" d="M60.624,83.514c1.374,2.025,1.575,5.113,1.111,8.51l0.867-0.08c0.006-0.098,0.011-0.195,0.015-0.293
				C62.744,88.495,62.119,85.583,60.624,83.514z"/>
		</g>
	</g>
</g>
</svg>
