<?xml version="1.0" encoding="utf-8"?>
<!-- Generator: Adobe Illustrator 16.0.0, SVG Export Plug-In . SVG Version: 6.00 Build 0)  -->
<!DOCTYPE svg PUBLIC "-//W3C//DTD SVG 1.1//EN" "http://www.w3.org/Graphics/SVG/1.1/DTD/svg11.dtd">
<svg version="1.1" id="Layer_1" xmlns="http://www.w3.org/2000/svg" xmlns:xlink="http://www.w3.org/1999/xlink" x="0px" y="0px"
	 width="500px" height="500px" viewBox="0 0 500 500" enable-background="new 0 0 500 500" xml:space="preserve">
<g>
	<path fill="none" stroke="#4A557C" stroke-width="12" stroke-linecap="round" stroke-linejoin="round" stroke-miterlimit="10" d="
		M232.874,293.674c-8.922-8.898,55.517,46.188-9.018,102.602"/>
	<path fill="none" stroke="#4A557C" stroke-width="11" stroke-linecap="round" stroke-linejoin="round" stroke-miterlimit="10" d="
		M206.961,285.372c20.311,64.622,13.19,104.323,16.022,129.51"/>
	<g>
		<path fill="#F0664F" d="M234.782,169.839c-11.468-4.364-36.025-6.598-36.907-4.322c-4.426,11.439-9.167,46.016-10.196,62.823
			c-1.705,27.842,6.287,78.293,6.287,78.293l59.641-5.979c0,0-6.806-49.001-6.363-59.462c0.439-10.459,7.942-47.137,7.942-47.137
			l2.796-17.982L234.782,169.839z"/>
		<polygon fill="#4A557C" points="189.764,267.749 193.973,306.736 253.615,300.811 248.085,264.664 		"/>
		
			<rect x="190.28" y="269.387" transform="matrix(0.9986 -0.0528 0.0528 0.9986 -14.0612 11.985)" fill="#5D678C" width="58.952" height="5.359"/>
		<path fill="#F9E6D6" d="M230.808,178.828c6.588-0.292,13.549-1.48,15.701-6.287l-17.051-4.139
			c-6.04-2.124-14.994-3.506-14.994-3.506C214.821,172.974,222.731,179.186,230.808,178.828z"/>
	</g>
	<g>
		<path fill="#FAE6DC" d="M240.97,160.433c14.01-2.281,19.987-11.339,22.207-15.887c2.744-5.623,3.313-20.23,3.313-20.23
			c-3.277-9.435-7.041-29.744-12.673-31.077c-5.632-1.333-39.623,2.953-45.167,8.637c-5.543,5.685-7.9,13.786-8.185,19.054
			c-0.286,5.269-3.483,11.049,1.871,18.353C212.371,152.966,223.45,163.424,240.97,160.433z"/>
		
			<ellipse transform="matrix(0.983 -0.1836 0.1836 0.983 -19.6757 44.584)" fill="#402F25" cx="230.97" cy="128.565" rx="4.332" ry="1.497"/>
		
			<ellipse transform="matrix(0.983 -0.1836 0.1836 0.983 -18.6347 49.0891)" fill="#402F25" cx="255.851" cy="125.205" rx="4.082" ry="1.41"/>
		<path fill="#725A41" d="M203.304,141.56c-0.423-0.914,3.797-7.172,4.34-8.339c1.932-4.17,2.625-8.14,3.387-12.619
			c0.438-2.559,0.266-6.321,0.598-7.52c1.131-4.092,3.014-4.825,9.987-6.987c3.9-1.209,9.031-3.059,13.063-2.517
			c4.92,0.661,9.08,3.605,14.393,0.612c2.917-1.644,4.119-4.216,6.626-6.266c0.211,0.236,0.517,0.624,0.605,0.936
			c0.665,2.318,3.45,7.555,4.497,10.781c2.074,6.397,4.015,13.407,6.469,19.665c0.632,0.053,1.263,0.106,1.895,0.158
			c-0.635-7.121-1.654-14.173-3.285-21.137c-1.581-6.75-3.702-13.45-8.551-18.627c-4.734-5.055-10.517-7.368-14.282-9.387
			c-1.228-0.657-2.45-1.215-3.722-1.757l0.938,3.218l-16.754-8.194c0,0,4.922,4.036,2.497,6.523
			c-2.425,2.487-5.604,2.484-5.604,2.484s2.714,0.433,2.072,3.029c-1.61,6.512-8.813,6.104-12.556,8.356
			c-7.965,4.792-12.674,11.507-13.478,21.848C195.796,124.115,198.748,135.334,203.304,141.56z"/>
		<path fill="#806851" d="M244.523,102.619c-3.679,1.37-7.923-0.654-10.613-3.113c-1.472-1.348-2.714-2.79-3.127-4.781
			c-0.446-2.148,0.329-4.459-0.865-6.433c-0.933-1.541-4.77-3.803-6.062-5.063l10.545,5.667c0,0-1.013-6.06-2.53-7.293
			c0.865,0.703,7.226,3.969,8.7,4.594c3.662,1.552,12.356,4.048,10.489,9.721C249.716,100.003,248.574,101.131,244.523,102.619z"/>
	</g>
	<g>
		<path fill="none" stroke="#F9E6D6" stroke-width="12" stroke-linecap="round" stroke-miterlimit="10" d="M197.532,178.901
			c0,0-40.974,44.929-40.974,77.345"/>
		<path fill="none" stroke="#F0664F" stroke-width="14" stroke-miterlimit="10" d="M202.571,170.425
			c0,0-23.652,32.258-25.017,34.236"/>
	</g>
	<g>
		<path fill="none" stroke="#F9E6D6" stroke-width="12" stroke-linecap="round" stroke-miterlimit="10" d="M255.888,187.394
			c0,0,18.474,68.214,47.385,89.896"/>
		<path fill="none" stroke="#F0664F" stroke-width="14" stroke-miterlimit="10" d="M251.568,178.53c0,0,13.984,37.477,14.889,39.703
			"/>
	</g>
</g>
</svg>
