<?xml version="1.0" encoding="utf-8"?>
<!-- Generator: Adobe Illustrator 16.0.0, SVG Export Plug-In . SVG Version: 6.00 Build 0)  -->
<!DOCTYPE svg PUBLIC "-//W3C//DTD SVG 1.1//EN" "http://www.w3.org/Graphics/SVG/1.1/DTD/svg11.dtd">
<svg version="1.1" id="Layer_1" xmlns="http://www.w3.org/2000/svg" xmlns:xlink="http://www.w3.org/1999/xlink" x="0px" y="0px"
	 width="500px" height="284.071px" viewBox="0 0 500 284.071" enable-background="new 0 0 500 284.071" xml:space="preserve">
<g>
	<path fill="none" stroke="#001119" stroke-width="16" stroke-linecap="round" stroke-miterlimit="10" d="M305.403,147.077
		c31.414,10.887,56.359-20.938,53.622-17.378"/>
	<g>
		<path fill="none" stroke="#001119" stroke-width="17" stroke-miterlimit="10" d="M248,194c0,0,26,21.964,28,59"/>
		<path fill="#001119" d="M281.28,244.226l1.433,3.881c0,0,20.004,2.776,20.832,6.077c-1.369,6.695-35.459,5.406-35.459,5.406
			s-0.769-8.574-1.292-11.922l0,0"/>
	</g>
	<g>
		<path fill="none" stroke="#001119" stroke-width="17" stroke-miterlimit="10" d="M237.513,196.508c0,0-9.932,28.654-37.025,53.984
			"/>
		<path fill="#001119" d="M217.849,243.118l-2.483,3.861c0,0,10.464,15.425,8.1,18.45c-6.763,4.102-27.616-19.609-27.616-19.609
			s7.032-6.934,9.635-9.79l0,0"/>
	</g>
	<g id="body">
		<g>
			<path fill="#FFFFFF" stroke="#001119" stroke-width="2" stroke-miterlimit="10" d="M311.605,128.161
				c-2.259-12.045-7.432-22.874-15.813-34.726c-11.848-16.752-28.476-33.066-50.184-34.468L247.99,52l-17.675,5.882
				c-4.314,4.731,20.102-25.169,20.102-25.169c-6.925,6.02-24.117,15.211-36.071,23.871C211.701,58.5,209.83,47,209.83,47
				c-1.582,1.087-6.418,16.765-7.767,17.815c-2.486,1.938-4.532,3.793-5.975,5.488c-8.964,10.527-17.404,22.41-21.429,34.831
				c-0.185,0.57-1.121,2.763-2.287,5.461c-0.603,1.394-3.266,3.922-3.919,5.432c-0.469,1.084,3.067,0.158,2.635,1.166
				c-1.184,2.76-4.128,6.02-4.285,6.604c-0.692,2.566,5.094-2.523,4.602,0.073c-6.312,33.302,8.262,73.086,38.606,90.167
				c1.933,1.088,3.936,6.068,5.996,6.944c1.165,0.495,2.349-3.043,3.548-2.615c1.354,0.483,1.728,5.925,3.118,6.324
				c1.521,0.437,4.061-4.178,5.616-3.841c18.608,4.024,40.955,2.315,53.56-9.96c15.796-15.383,17.321-20.737,22.258-35.651
				c0.54-1.63,2.31-5.291,2.761-6.96c0.466-1.725,5.745-0.154,5.745-0.154l-2.709-7.291l3.48-0.382l-1.008-6.417
				C313.315,144.469,313.086,136.054,311.605,128.161z"/>
			<path fill="#C7D6DD" d="M208.832,55.289l-2.157,16.462c-2.721,2.594-38.929,56.669-15.246,101.681
				c25.445,48.36,64.574,41.938,68.593,41.938s19.053-3.563,19.053-3.563l0.101-0.221c0,0-11.661,8.84-22.659,9.867
				c-6.679,0.624-19.534-0.122-28.481-2.103c-1.232-0.273-4.73,4.148-4.73,4.148s-1.923-5.811-3.341-6.241
				c-0.337-0.103-0.67-0.206-0.999-0.311c-1.301-0.413-2.957,2.034-2.957,2.034s-5.835-5.564-7.396-6.783
				c-12.762-9.961-25.659-20.311-33.58-44.986c-3.351-10.437-5.045-25.418-2.219-44.741l-3.694,0.383c0,0,3.047-5.437,3.178-6.515
				l-2.441-0.674c0,0,3.406-4.876,3.732-5.676c8.346-20.417,17.813-33.975,29.023-44.247l6.601-16.74L208.832,55.289z"/>
		</g>
		<g>
			<g>
				<path fill="#DCE8EF" stroke="#000000" stroke-width="2" stroke-miterlimit="10" d="M202.609,147.09
					c0,0,1.822-23.836,12.962-42.83c0.524-0.895,3.761-5.757,4.934-7.226c6.271-7.854,14.688-13.907,25.969-15.434
					c1.991-0.27,2.344,8.693,2.344,8.693l9.639-10.593c1.501,0.236,2.544,7.387,2.544,7.387s5.567-6.967,5.794-6.297
					c0,0,4.878,5.326,6.537,6.285c21.438,12.394,32.231,40.114,32.231,40.114S284.188,158.617,202.609,147.09z"/>
				<path fill="#C2CACE" d="M219.055,147.752c0,0-4.396-56.76,27.945-61.525l-0.526-3.626c0,0-34.657,0.831-42.864,64.048
					L219.055,147.752z"/>
				<polygon fill="#C2CACE" points="259.683,84.891 249.678,91.723 258.683,80.999 				"/>
				<polygon fill="#C2CACE" points="267.222,84.517 260.678,88.723 266.567,82.121 				"/>
			</g>
			<g>
				<g>
					<circle fill="#001119" cx="246.663" cy="114.271" r="6.85"/>
					<circle fill="#001119" cx="274.9" cy="108.9" r="5.163"/>
				</g>
				<line fill="none" stroke="#001119" stroke-width="2" stroke-miterlimit="10" x1="262" y1="135.492" x2="274.9" y2="133.02"/>
			</g>
		</g>
	</g>
	<path fill="none" stroke="#001119" stroke-width="16" stroke-linecap="round" stroke-miterlimit="10" d="M187.386,155.149
		C169.582,144.978,114.762,144,138.881,185"/>
</g>
</svg>
