<?xml version="1.0" encoding="utf-8"?>
<!-- Generator: Adobe Illustrator 16.0.0, SVG Export Plug-In . SVG Version: 6.00 Build 0)  -->
<!DOCTYPE svg PUBLIC "-//W3C//DTD SVG 1.1//EN" "http://www.w3.org/Graphics/SVG/1.1/DTD/svg11.dtd">
<svg version="1.1" id="Layer_1" xmlns="http://www.w3.org/2000/svg" xmlns:xlink="http://www.w3.org/1999/xlink" x="0px" y="0px"
	 width="331.356px" height="273.729px" viewBox="0 0 331.356 273.729" enable-background="new 0 0 331.356 273.729"
	 xml:space="preserve">
<ellipse fill="#C7D6DD" cx="167.44" cy="244.204" rx="58.345" ry="15.679"/>
<path fill="#001119" d="M199.286,123.149c6.525,1.831,8.503-0.073,12.896-5.578c5.087-6.377,3.873-14.899,2.173-22.29
	c0,0-3.698,17.287-16.978,17.23L199.286,123.149z"/>
<g id="leftArm">
	<path id="rightArm_2_" fill="none" stroke="#001119" stroke-width="11" stroke-linecap="round" stroke-miterlimit="10" d="
		M140.549,153.621c-14.859-30.166-17.697-34.92-29.453-52.496"/>
	<path fill="#001119" d="M114.287,92.228c0.027-0.518,0.097-1.036,0.215-1.548c0.587-2.545-0.07-2.829-2.057-4.317
		c-1.423-1.066-6.92,4.854-5.995,3.829c2.73-2.197,8.403-7.262-1.994-11.341c-2.806-1.101-8.769,4.886-9.532,7.583
		c-2.27,8.041,6.817,13.312,12.066,17.201l3.844,2.047l6.181-2.494C115.958,99.708,114.09,95.898,114.287,92.228z"/>
</g>
<path fill="#001119" d="M150.484,207.841c0,0,0.237,23.922-0.435,25.476c-0.673,1.554-12.605,12.983-11.071,15.577
	c1.535,2.594,20.265-4.024,22.59-6.802c2.327-2.775-2.086-6.548-1.78-8.715c0.462-3.241-0.098-4.536,7.562-20.074L150.484,207.841z"
	/>
<path fill="#001119" d="M181.162,203.899c0,0-0.009,26.627,0.756,28.35c0.763,1.722,14.166,14.316,12.486,17.22
	c-1.68,2.902-13.995-1.994-25.214-7.329c-3.641-1.731,2.254-7.311,1.889-9.721c-0.547-3.601,0.063-5.049-8.628-22.261
	L181.162,203.899z"/>
<g>
	<path fill="#FFFFFF" stroke="#000000" stroke-width="2" stroke-miterlimit="10" d="M166.565,219.88
		c-24.573-3.321-47.206-21.679-44.683-48.329c0.093-0.971-4.836,1.97-4.711,1.006c0.126-0.968,5.307-5.842,5.465-6.802
		c0.126-0.755-4.027,1.754-3.882,1.006c0.208-1.066,2.741-4.893,2.989-5.944c0.881-3.744,3.508-9.868,4.881-13.357
		c6.134-15.58,13.414-26.137,25.346-37.767c3.812-3.715,6.281-6.376,9.77-7.77c0.741-0.296-0.728-8.366-0.728-8.366
		c1.749-0.367,6.896,7.164,9.414,7.308c1.446,0.084,35.763-9.594,37.217-9.318c0,0-22.873,10.394-21.208,10.979
		c1.541,0.542,15.836-0.424,17.3,0.309c0,0-11.882,4.512-10.607,5.327c17.646,11.292,19.628,30.469,22.706,49.542
		c0.11,0.682,6.572,4.742,6.669,5.425c0.125,0.868-6.121-1.641-6.017-0.77c0.147,1.232,3.603,5.369,3.709,6.602
		c0.087,1.014-3.17-0.878-3.112,0.136c0.593,10.443,0.873,11.214-4.688,19.86C198.61,210.396,186.957,222.637,166.565,219.88z"/>
	<path fill="#C7D6DD" d="M176.16,219.062c-9.644,0.601-23.758-2.33-31.88-7.535c-11.336-7.266-18.561-16.43-20.707-27.124
		c-1.396-6.956-2.001-13.479-1.207-13.581c-1.262,0.16-2.501,0.635-3.762,0.824c1.475-2.297,3.374-4.345,4.942-6.584
		c-0.964-0.076-2.594-0.263-3.31,0.565c2.033-3.212,2.865-6.642,4.136-10.176c5.008-13.916,11.231-28.361,22-38.827
		c-2.643,3.278-3.768,8.321-6.01,11.893c-5.393,8.592-10.505,18.348-12.794,28.209c-3.61,15.552-0.801,26.662,8.671,40.496
		c7.74,11.302,41.805,24.394,67.248,3.574C203.489,200.796,190.834,218.147,176.16,219.062z"/>
</g>
<path fill="#001119" d="M147.605,118.931l2.116-5.109l1.797-2.39l0.95-2.166c-12.194,3.013-11.548-14.995-11.548-14.995
	c-2.022,5.337-3.957,16.838-0.862,22.033c1.05,1.765,0.949,2.845,1.753,3.812l4.15-2.316L147.605,118.931z"/>
<g id="rightArm_1_">
	<path id="rightArm" fill="none" stroke="#001119" stroke-width="10" stroke-linecap="round" stroke-miterlimit="10" d="
		M211.349,173.413c9.594,21.642,10.877,25.417,15.032,40.306"/>
	<path fill="#001119" d="M221.518,215.444c-0.173,0.413-0.477,0.775-0.603,1.213c-0.45,1.583-0.388,4.479,1.969,5.357
		c1.227,0.456,0.981-2.071,2.043-2.05c0.469,2.113,0.01,5.899,1.44,7.129c1.498,1.288,5.85-2.183,7.153-4.241
		c3.881-6.139-1.588-11.647-3.843-15.528l-1.893-2.2l-4.769,1.116C222.664,209.19,222.742,212.522,221.518,215.444z"/>
</g>
<path fill="#DCE8EF" stroke="#000000" stroke-width="2" stroke-miterlimit="10" d="M136.602,141.489c0,0,7.425-15.384,18.167-23.245
	c0.833-0.61,1.684-1.181,2.552-1.702c0.942-0.565,1.905-1.075,2.884-1.514c2.272-1.017,4.633-1.656,7.049-1.757
	c0.452-0.02,0.908-0.02,1.363,0l-1.944,4.291c0,0,6.907-3.712,8.043-3.436l-2.164,8.39l11.575-4.291l0.492,5.404l6.5,0.576
	c1.769,1.921,3.368,4.008,4.812,6.19c10.479,15.841,9.074,34.458,8.765,32.8c0,0-14.366,5.055-39.13,3.68
	c-17.042-0.946-34.105-13.019-34.105-13.019L136.602,141.489z"/>
<g>
	<path fill="#001119" d="M155.773,150.799l18.53,2.748c0,0-3.353,9.754-10.364,9.848
		C156.927,163.488,155.773,150.799,155.773,150.799z"/>
	<path fill="#DCE8EF" d="M163.899,161.618c-2.374,0.032-3.815-1.971-4.674-4.103c0.886-1.048,2.841-1.636,5.02-1.377
		c2.303,0.272,4.145,1.402,4.657,2.721C167.692,160.316,166.03,161.59,163.899,161.618z"/>
</g>
<path fill="#C2CACE" d="M142.928,132.92c10.863-18.426,24.943-19.277,24.943-19.277l-3.144,5.749l8.717-4.373l-1.388,8.743
	l11.417-4.53l0.835,5.336l6.438,0.255c0,0,14.491,15.93,13.408,37.871l-5.161,0.985c2.603-20.016-8.739-37.531-8.739-37.531
	l-9.135,0.915l0.12-5.623l-13.271,4.907l2.248-7.321l-8.867,2.18l1.49-5.204C162.839,116.002,151.885,124.875,142.928,132.92
	L142.928,132.92z"/>
<ellipse id="leftEye" fill="#001119" cx="157.785" cy="135.77" rx="4.664" ry="4.414"/>
<ellipse id="rightEye" fill="#001119" cx="180.181" cy="138.931" rx="5.248" ry="4.898"/>
</svg>
